<svg width="204" height="193" viewBox="0 0 204 193" fill="none" xmlns="http://www.w3.org/2000/svg">
<path d="M117.899 49.3993C117.899 55.6998 108.66 60.8076 102.353 60.8076C96.0466 60.8076 87.216 55.6998 87.216 49.3993C87.216 43.0988 96.0466 35.9297 102.353 35.9297C108.66 35.9297 117.899 43.0988 117.899 49.3993Z" fill="#727B7D"/>
<path d="M171.674 98.2086C171.408 97.4567 169.39 89.3348 169.715 89.2894C165.66 79.5081 157.166 66.946 148.148 65.7209C139.395 58.6944 124.316 50.9484 102.476 50.7475C83.8355 50.579 65.4736 58.5842 56.643 65.6561C50.7711 66.1163 45.6323 71.5547 42.2454 76.1699C39.2478 80.2535 36.5098 85.3419 34.6801 90.0867C34.6801 90.0867 32.9866 97.4632 32.7206 98.2151C32.0133 100.205 31.663 136.556 30.1123 136.608C32.487 155.697 39.3387 178.397 49.9276 188.976C57.2205 196.262 82.46 188.198 102.515 188.198C122.726 188.198 142.373 196.262 154.876 189.242C167.003 182.429 172.946 156.91 174.841 136.634C174.594 136.634 172.382 100.205 171.674 98.2086Z" fill="#A6B3B7"/>
<path d="M173.841 107.575C172.849 104.341 172.375 100.205 171.674 98.2086C171.408 97.4567 170.999 96.0695 170.85 95.4732C170.377 93.6258 169.656 91.5581 168.748 89.4125C169.066 89.3672 169.39 89.3348 169.715 89.2959C165.497 79.1256 156.479 65.9283 147.051 65.6301C130.545 65.1051 122.61 70.1157 116.225 74.141C111.91 76.8634 108.18 79.2099 102.859 79.2099C95.5988 79.2099 91.1413 76.6884 85.9702 73.765C79.5467 70.1351 72.2668 66.0126 57.7265 65.6301C51.4004 65.4421 45.8335 71.2694 42.2389 76.1698C39.2413 80.2535 36.5033 85.3419 34.6736 90.0867V91.8498C34.2129 93.1267 33.8301 94.3518 33.5381 95.4797C33.3824 96.076 32.9801 97.4567 32.7141 98.2151C32.0069 100.205 31.5332 104.347 30.547 107.582C28.9119 112.923 47.3777 115.807 47.7605 106.674C47.8319 105.008 49.0646 91.4025 51.634 91.4025C62.3073 91.4025 75.2774 87.7013 75.2125 87.0272C81.4089 91.0071 93.3993 91.6812 103.463 91.6942C121.902 91.7136 131.051 85.2965 131.051 85.7308C131.051 97.7225 135.482 111.568 146.162 111.568C148.803 111.568 152.605 107.945 156.576 108.197C165.621 108.755 175.457 112.851 173.841 107.575Z" fill="white"/>
<path d="M167.119 148.859C165.867 160.85 159.34 171.961 149.737 171.961C145.559 171.961 142.535 170.71 139.538 167.358C132.122 174.229 119.839 180.497 102.295 180.497C102.048 180.497 101.808 180.497 101.562 180.491C82.0318 180.303 69.931 175.441 63.2935 168.875C60.6138 171.202 58.2456 171.954 54.8457 171.954C45.2495 171.954 38.7223 160.85 37.4635 148.852C36.0037 134.923 37.4635 124.94 54.8457 127.014C64.3771 128.155 72.2214 136.005 72.2214 148.068C72.2214 148.178 72.2085 148.282 72.2085 148.392C81.8371 149.773 93.7886 151.218 102.022 151.277C110.204 151.328 122.389 149.915 132.368 148.522C132.368 148.373 132.349 148.217 132.349 148.068C132.349 136.011 140.199 128.155 149.731 127.014C167.12 124.947 168.579 134.929 167.119 148.859Z" fill="white"/>
<path d="M188.628 107.316L179.551 105.118C181.563 98.3901 182.581 91.4609 182.581 84.5122C182.581 42.5737 146.221 8.45251 101.523 8.45251C56.8312 8.45251 20.4642 42.5737 20.4642 84.5186L20.6199 107.225L11.2248 107.283L11.0626 84.5446C11.0626 37.9131 51.6405 0 101.523 0C151.405 0 191.983 37.9196 191.983 84.5186C191.976 92.1998 190.854 99.8745 188.628 107.316Z" fill="#D9502E"/>
<path d="M50.2001 56.5942C52.5831 56.5942 54.5148 54.6643 54.5148 52.2837C54.5148 49.903 52.5831 47.9731 50.2001 47.9731C47.8171 47.9731 45.8853 49.903 45.8853 52.2837C45.8853 54.6643 47.8171 56.5942 50.2001 56.5942Z" fill="#F9C04B"/>
<path d="M81.6555 28.3264C84.0384 28.3264 85.9702 26.3965 85.9702 24.0158C85.9702 21.6352 84.0384 19.7053 81.6555 19.7053C79.2725 19.7053 77.3408 21.6352 77.3408 24.0158C77.3408 26.3965 79.2725 28.3264 81.6555 28.3264Z" fill="#F9C04B"/>
<path d="M123.466 28.819C125.849 28.819 127.781 26.8892 127.781 24.5085C127.781 22.1279 125.849 20.198 123.466 20.198C121.083 20.198 119.151 22.1279 119.151 24.5085C119.151 26.8892 121.083 28.819 123.466 28.819Z" fill="#F9C04B"/>
<path d="M155.512 57.9035C157.895 57.9035 159.827 55.9736 159.827 53.593C159.827 51.2124 157.895 49.2825 155.512 49.2825C153.129 49.2825 151.197 51.2124 151.197 53.593C151.197 55.9736 153.129 57.9035 155.512 57.9035Z" fill="#F9C04B"/>
<path d="M187.337 153.156C188.46 153.532 189.608 154.207 190.633 155.172C191.516 156.002 192.171 156.942 192.619 157.888C210.027 135.201 190.244 109.87 190.03 109.604L185.78 111.925C186.507 112.839 202.39 133.464 187.337 153.156Z" fill="#007277"/>
<path d="M193.748 159.172C193.384 157.597 192.424 156.021 191.061 154.725C189.692 153.435 188.064 152.567 186.468 152.294C184.781 151.996 183.334 152.391 182.387 153.396L177.222 158.854C176.275 159.859 175.963 161.324 176.346 162.99C176.709 164.565 177.67 166.14 179.032 167.43C180.401 168.72 182.03 169.588 183.626 169.867C183.989 169.932 184.346 169.964 184.683 169.964C185.916 169.964 186.967 169.556 187.707 168.771L192.872 163.314C193.825 162.302 194.137 160.838 193.748 159.172Z" fill="#589CBC"/>
<path d="M61.8466 81.2388C53.9828 81.2388 45.9048 84.9983 43.1408 91.8628C42.2714 94.0213 39.9226 101.106 38.4173 103.841C37.6841 105.17 35.9258 103.005 34.68 102.325L34.3621 119.009C37.6971 119.21 43.0824 117.797 47.0273 113.389C47.7151 112.625 49.8432 112.359 51.0565 112.573C50.6802 111.788 48.9673 108.431 48.7467 107.556C48.4547 106.382 48.312 105.131 48.312 103.841C48.312 96.8798 53.9568 91.2405 60.9253 91.2405C67.8937 91.2405 73.5386 96.8798 73.5386 103.841C73.5386 108.217 68.8929 113.798 65.506 116.06C74.661 116.78 82.5898 108.807 82.5898 100.912C82.5898 96.2705 81.3505 91.6424 78.554 88.3754C75.1152 84.3696 67.5369 81.2388 61.8466 81.2388Z" fill="#727B7D"/>
<path d="M168.359 103.803C167.658 104.282 167.016 104.522 166.633 103.841C164.985 100.892 162.772 94.0148 161.909 91.8628C159.145 84.9983 151.067 81.2388 143.204 81.2388C139.33 81.2388 132.251 82.8139 129.267 84.8298C124.29 88.1875 122.726 94.3454 122.726 100.795C122.726 109.234 131.285 115.794 140.102 116.287C136.345 114.102 131.518 108.502 131.518 103.848C131.518 96.8863 137.163 91.247 144.131 91.247C151.1 91.247 156.745 96.8863 156.745 103.848C156.745 106.104 155.116 110.123 154.24 111.957C155.473 111.769 157.115 112.346 157.776 113.085C160.982 116.663 165.29 117.817 168.365 118.419V103.803H168.359Z" fill="#727B7D"/>
<path d="M60.7371 116.967C67.8537 116.967 73.6229 111.204 73.6229 104.094C73.6229 96.9845 67.8537 91.2209 60.7371 91.2209C53.6205 91.2209 47.8513 96.9845 47.8513 104.094C47.8513 111.204 53.6205 116.967 60.7371 116.967Z" fill="white"/>
<path d="M59.3292 113.318C63.4357 113.318 66.7648 109.992 66.7648 105.89C66.7648 101.787 63.4357 98.4614 59.3292 98.4614C55.2226 98.4614 51.8936 101.787 51.8936 105.89C51.8936 109.992 55.2226 113.318 59.3292 113.318Z" fill="#525554"/>
<path d="M144.17 116.967C151.287 116.967 157.056 111.204 157.056 104.094C157.056 96.9845 151.287 91.2209 144.17 91.2209C137.054 91.2209 131.285 96.9845 131.285 104.094C131.285 111.204 137.054 116.967 144.17 116.967Z" fill="white"/>
<path d="M146.454 113.318C150.561 113.318 153.89 109.992 153.89 105.89C153.89 101.787 150.561 98.4614 146.454 98.4614C142.348 98.4614 139.019 101.787 139.019 105.89C139.019 109.992 142.348 113.318 146.454 113.318Z" fill="#525554"/>
<path d="M87.2159 117.324C98.1942 115.704 98.5316 123.605 102.353 123.838C107.226 124.137 105.967 114.913 119.949 117.324C124.848 118.167 129.273 127.054 129.273 131.105C129.273 135.039 126.399 138.844 121.779 141.716C121.306 137.185 119.158 133.51 116.517 133.51C113.656 133.51 106.045 141.1 105.344 146.642C104.429 146.7 103.502 146.733 102.567 146.733C101.38 146.733 100.212 146.681 99.0636 146.584C98.4342 141.035 90.7456 133.51 87.8713 133.51C85.2305 133.51 83.0764 136.465 82.6092 141.003C78.7617 138.229 76.4518 134.728 76.4518 131.111C76.4453 126.405 81.2078 118.212 87.2159 117.324Z" fill="#727B7D"/>
<path d="M203.039 112.825C203.039 101.294 193.092 91.6682 179.876 89.4644V136.187C193.099 133.983 203.039 124.357 203.039 112.825Z" fill="#F9C04B"/>
<path d="M0 112.825C0 101.294 9.9466 91.6682 23.1633 89.4644V136.187C9.9466 133.983 0 124.357 0 112.825Z" fill="#F9C04B"/>
<path d="M34.7774 88.8551C30.8584 88.2134 26.9525 88.2134 23.0595 88.8551L22.5469 88.9393V136.705L23.0595 136.789C24.9735 137.107 26.946 137.269 28.9184 137.269C30.8844 137.269 32.8568 137.107 34.7774 136.789L35.2899 136.705V88.9393L34.7774 88.8551Z" fill="#D17D2B"/>
<path d="M179.979 88.8551C176.08 88.2134 172.167 88.2134 168.261 88.8551L167.749 88.9393V136.705L168.261 136.789C170.182 137.107 172.154 137.269 174.127 137.269C176.093 137.269 178.065 137.107 179.986 136.789L180.498 136.705V88.9393L179.979 88.8551Z" fill="#D17D2B"/>
<path d="M151.165 133.561C146.143 133.561 142.075 139.68 142.075 147.232C142.075 147.861 142.114 148.476 142.165 149.079C139.142 150.09 135.658 151.802 131.343 152.981C131.395 153.215 124.459 154.005 124.459 154.005L122.467 154.148L121.974 154.181C121.974 154.181 113.195 155.127 113.137 155.062C113.13 155.056 113.13 155.056 113.13 155.056C113.13 155.056 105.247 155.594 101.99 155.568C98.1033 155.542 93.4188 155.205 88.5525 154.719C88.5331 154.952 79.417 153.675 79.417 153.675L77.2175 153.351C77.2175 153.351 71.8451 153.079 71.9944 152.437C71.1574 152.262 70.3917 152.087 69.678 151.905C65.253 150.764 63.0145 149.449 60.9448 148.535C60.9448 148.45 60.9512 148.373 60.9512 148.288C60.9512 140.743 56.8831 134.618 51.8611 134.618C46.8392 134.618 42.771 140.737 42.771 148.288C42.771 155.833 46.8392 161.959 51.8611 161.959C54.5083 161.959 56.8831 159.016 58.5441 156.307C63.4428 164.928 72.3447 173.017 101.477 173.302C126.392 173.542 137.715 163.962 144.871 155.879C146.506 158.225 148.712 160.909 151.145 160.909C156.167 160.909 160.235 154.79 160.235 147.238C160.255 139.68 156.187 133.561 151.165 133.561Z" fill="#525454"/>
<path d="M67.7185 158.005C65.0454 160.326 71.6959 163.372 76.1598 155.276C77.2239 153.351 77.2239 153.351 77.2239 153.351C75.1736 153.014 72.0008 152.437 72.0008 152.437C71.8581 153.085 70.541 155.555 67.7185 158.005Z" fill="white"/>
<path d="M72.6756 162.529C67.1865 165.783 77.7559 171.773 86.1453 158.498C88.293 155.101 88.5395 154.958 88.559 154.725C88.559 154.725 82.6741 154.109 79.4234 153.681C79.4234 153.681 78.1647 159.275 72.6756 162.529Z" fill="white"/>
<path d="M125.731 155.425C132.439 163.016 138.642 160.734 135.716 158.193C132.478 155.38 131.401 153.215 131.349 152.981C131.349 152.981 126.516 153.669 124.465 154.006C124.472 154.006 124.946 154.531 125.731 155.425Z" fill="white"/>
<path d="M115.524 158.731C124.725 173.277 133.452 164.591 127.43 161.026C121.409 157.461 121.98 154.187 121.98 154.187C121.98 154.187 122.065 154.174 121.98 154.187C121.838 154.207 113.273 155.056 113.143 155.069C113.202 155.127 113.539 155.587 115.524 158.731Z" fill="white"/>
</svg>
