<svg width="258" height="79" viewBox="0 0 258 79" fill="none" xmlns="http://www.w3.org/2000/svg">
<rect width="257.693" height="78.3704" fill="#754CD5"/>
<path d="M102.511 51.5447H98.7829V25.2378H102.511V35.3187C103.754 33.1782 106.447 32.0735 109.209 32.0735C114.457 32.0735 118.876 35.9401 118.876 42.0162C118.876 48.0924 114.388 52.0281 109.209 52.0281C106.516 52.0281 103.823 50.7852 102.511 48.6448V51.5447ZM108.933 48.2995C112.385 48.2995 115.078 45.6757 115.078 41.9472C115.078 38.2186 112.316 35.6639 108.933 35.6639C105.826 35.6639 102.58 37.8044 102.58 41.9472C102.58 45.9519 105.48 48.2995 108.933 48.2995Z" fill="white"/>
<path d="M126.885 51.5447H123.226V32.4187H126.885V51.5447ZM126.885 28.8973H123.226V25.2378H126.885V28.8973Z" fill="white"/>
<path d="M141.936 32.4187V35.5949H137.863V51.5447H134.134V35.5949H130.682V32.4187H134.134V25.2378H137.863V32.4187H141.936Z" fill="white"/>
<path d="M161.131 35.5259L149.531 48.0234H161.131V51.6138H144.352V48.5758L155.745 36.0782H145.043V32.4878H161.131V35.5259Z" fill="white"/>
<path d="M162.927 41.9475C162.927 35.8713 167.484 32.0737 172.939 32.0737C178.394 32.0737 182.951 35.9404 182.951 41.9475C182.951 48.0236 178.394 51.9593 172.939 51.9593C167.484 51.9593 162.927 47.9546 162.927 41.9475ZM179.222 41.9475C179.222 38.0808 176.322 35.6642 172.939 35.6642C169.487 35.6642 166.656 38.0808 166.656 41.9475C166.656 45.8832 169.487 48.3688 172.939 48.3688C176.322 48.3688 179.222 45.8832 179.222 41.9475Z" fill="white"/>
<path d="M190.201 51.5442H186.473V32.4182H190.201V35.2491C191.306 32.9706 194.068 32.0039 196.139 32.0039C200.904 32.0039 203.528 35.042 203.528 40.4967V51.5442H199.799V40.7729C199.799 37.5277 198.211 35.7324 195.587 35.7324C192.894 35.7324 190.201 37.2515 190.201 41.3253V51.5442Z" fill="white"/>
<path d="M225.968 43.3967H210.432C210.916 46.6419 213.332 48.5752 216.578 48.5752C218.856 48.5752 220.928 47.5395 222.032 45.6062C222.999 46.0895 224.173 46.3657 225.208 46.849C223.551 50.2323 220.168 51.8895 216.439 51.8895C210.985 51.8895 206.635 47.9538 206.635 41.8776C206.635 35.8015 210.985 32.0039 216.439 32.0039C221.894 32.0039 225.899 35.8705 225.899 41.8776C226.037 42.361 226.037 42.9824 225.968 43.3967ZM222.378 40.4967C221.894 37.2515 219.685 35.3872 216.578 35.3872C213.401 35.3872 210.985 37.2515 210.501 40.4967H222.378Z" fill="white"/>
<path d="M85.7492 38.7051H72.2817V52.1726H85.7492V38.7051Z" fill="white"/>
<path d="M72.2826 25.2378H58.815V38.7053H72.2826V25.2378Z" fill="white"/>
<path d="M58.8148 38.7051H45.3472V52.1726H58.8148V38.7051Z" fill="white"/>
<path d="M45.3471 38.7051H31.8795V52.1726H45.3471V38.7051Z" fill="#EDE04B"/>
<path d="M45.347 25.2383H31.8795V38.7058H45.347V25.2383Z" fill="white"/>
</svg>
