<svg width="151" height="147" viewBox="0 0 151 147" fill="none" xmlns="http://www.w3.org/2000/svg">
<path d="M0 52.9802C0 50.714 0 48.4517 0 46.1855C0.744888 44.851 0.733064 43.2915 1.28089 41.8938C4.86739 32.6947 11.5438 27.4792 21.314 26.2039C24.6404 26.1645 27.9668 26.125 31.2932 26.0855C31.636 26.1013 31.9789 26.1329 32.3218 26.1329C57.6638 26.1368 83.0057 26.1368 108.348 26.1329C108.691 26.1329 109.033 26.1013 109.376 26.0815C112.841 26.2237 116.305 26.2197 119.769 26.0855C123.596 26.1171 127.419 26.1487 131.246 26.1802C133.65 26.958 135.183 28.4939 135.357 31.1075C135.499 33.2158 134.277 35.2254 132.361 36.0545C131.66 36.3585 130.864 36.4533 130.111 36.6468C129.476 36.6073 128.842 36.5362 128.207 36.5362C93.7179 36.5323 59.2245 36.5323 24.735 36.5362C23.8049 36.5362 22.8669 36.5875 21.9407 36.6823C14.2475 37.4917 8.93471 45.0642 10.7713 52.5854C12.2769 58.7524 17.4241 62.6531 24.1281 62.6571C58.9644 62.665 93.7967 62.661 128.633 62.6571C129.122 62.6571 129.61 62.6097 130.103 62.586C132.436 62.7953 134.21 63.8297 135.057 66.1078C136.117 68.9662 134.714 71.5522 131.352 73.0249C130.943 73.0565 130.533 73.0881 130.123 73.1196C128.416 73.1196 126.714 73.1196 125.011 73.1196C124.57 73.1038 124.128 73.0723 123.687 73.0723C95.0697 73.0683 66.4566 73.0683 37.8395 73.0723C37.3981 73.0723 36.9567 73.0999 36.5153 73.1157C34.7614 73.1157 33.0076 73.1157 31.2538 73.1157C27.5175 73.0841 23.7773 73.0525 20.041 73.0209C19.7848 72.6182 19.3395 72.7406 18.9808 72.6577C9.01748 70.2928 2.82584 64.1495 0.437474 54.1607C0.338944 53.7619 0.484768 53.2447 0 52.9802Z" fill="#F19C20"/>
<path d="M15.6387 146.018C12.1231 146.03 8.60759 146.061 5.09204 146.046C3.11355 146.038 1.67501 145.051 0.650299 143.396C0.453239 143.08 0.441415 142.626 0 142.484C0 132.736 0 122.988 0 113.24C1.4543 110.358 3.80326 109.312 6.97199 109.565C9.2106 109.742 11.4768 109.588 13.7272 109.584C14.3578 109.608 14.9884 109.632 15.619 109.656C15.6229 121.776 15.6308 133.897 15.6387 146.018Z" fill="#E54C3C"/>
<path d="M0 3.94461C1.28089 0.912443 3.59044 -0.106176 6.80646 0.0241121C11.5083 0.213623 16.222 0.103075 20.9278 0.122815C20.916 8.78108 20.9042 17.4393 20.8923 26.0976C16.0998 26.1055 11.3034 26.0186 6.51481 26.1568C3.28697 26.2476 1.05624 25.1027 0 21.9639C0 15.9548 0 9.94973 0 3.94461Z" fill="#3B97D2"/>
<path d="M130.111 36.6426C130.107 45.289 130.103 53.9354 130.099 62.5818C129.61 62.6055 129.122 62.6529 128.629 62.6529C93.7928 62.6569 58.9604 62.6608 24.1241 62.6529C17.4241 62.6529 12.2769 58.7482 10.7674 52.5812C8.93078 45.064 14.2435 37.4875 21.9368 36.6781C22.8629 36.5794 23.797 36.532 24.7311 36.532C59.2205 36.5241 93.714 36.5241 128.203 36.532C128.838 36.536 129.473 36.6071 130.111 36.6426Z" fill="#F4EDC8"/>
<path d="M36.5153 73.1157C36.9567 73.0999 37.3981 73.0723 37.8395 73.0723C66.4566 73.0683 95.0697 73.0683 123.687 73.0723C124.128 73.0723 124.57 73.1039 125.011 73.1197C125.015 85.2089 125.023 97.2981 125.027 109.391C124.487 109.407 123.947 109.439 123.407 109.439C95.1643 109.439 66.9256 109.439 38.6829 109.439C36.5389 109.439 36.5389 109.435 36.535 107.212C36.5271 95.8412 36.5192 84.4785 36.5153 73.1157ZM80.6804 99.1024C89.9698 99.1024 99.2553 99.1063 108.545 99.0984C111.114 99.0984 111.981 98.2298 111.997 95.6241C112.017 92.7696 112.017 89.915 111.997 87.0605C111.978 84.36 111.047 83.4598 108.316 83.4559C101.238 83.448 94.1633 83.4519 87.0849 83.4519C75.7342 83.4519 64.3796 83.448 53.0289 83.4559C50.3489 83.4598 49.5134 84.3166 49.5055 87.0013C49.4976 89.7571 49.5015 92.5129 49.5055 95.2727C49.5094 98.4707 50.1242 99.0984 53.2575 99.0984C62.4011 99.1024 71.5408 99.1024 80.6804 99.1024Z" fill="#7D6599"/>
<path d="M31.2616 0.114506C31.703 0.0987133 32.1445 0.0710763 32.5859 0.0710763C57.7505 0.0671282 82.915 0.0671282 108.08 0.0710763C108.521 0.0710763 108.962 0.102661 109.404 0.122402C109.392 8.77672 109.38 17.4271 109.368 26.0814C109.026 26.1011 108.683 26.1327 108.34 26.1327C82.9978 26.1367 57.6559 26.1367 32.3139 26.1327C31.971 26.1327 31.6282 26.1011 31.2853 26.0853C31.2813 17.4271 31.2735 8.76882 31.2616 0.114506Z" fill="#3B96D2"/>
<path d="M131.349 73.0168C135.964 73.0326 140.579 73.0484 145.194 73.0682C148.934 73.084 150.992 75.1567 150.995 78.9391C150.999 87.2025 151.003 95.466 150.995 103.725C150.992 107.476 148.934 109.545 145.166 109.596C142.467 109.632 139.767 109.652 137.071 109.679C136.992 109.636 136.914 109.64 136.839 109.691L136.85 109.695C136.752 109.612 136.653 109.529 136.555 109.442C134.399 109.411 132.243 109.379 130.083 109.348C130.095 97.2702 130.107 85.1889 130.119 73.1116C130.529 73.084 130.939 73.0484 131.349 73.0168Z" fill="#7D6599"/>
<path d="M13.5656 109.115C11.4453 108.183 10.4206 106.473 10.4087 104.235C10.3693 95.6476 10.3614 87.0564 10.4087 78.4692C10.4284 75.2002 12.6552 73.1037 15.9304 73.0682C17.3019 73.0524 18.6734 73.0366 20.045 73.0168C23.7813 73.0484 27.5215 73.08 31.2577 73.1116C31.2577 84.6204 31.238 96.1253 31.2892 107.63C31.2971 109.063 30.8439 109.486 29.4408 109.458C25.4169 109.379 21.3889 109.431 17.365 109.434C16.0841 109.438 14.8071 109.502 13.5656 109.115Z" fill="#7D6599"/>
<path d="M119.742 0.114551C124.999 0.102707 130.257 0.0474326 135.514 0.0948103C138.376 0.122447 140.52 2.2268 140.575 5.18791C140.673 10.4508 140.673 15.7215 140.575 20.9883C140.516 24.056 138.309 26.0459 135.227 26.117C133.902 26.1486 132.574 26.1604 131.25 26.1801C127.423 26.1486 123.6 26.117 119.773 26.0854C119.757 17.4271 119.75 8.76886 119.742 0.114551Z" fill="#3B97D2"/>
<path d="M31.2616 0.114496C31.2695 8.77276 31.2774 17.4271 31.2892 26.0853C27.9629 26.1248 24.6404 26.1643 21.3101 26.2038C21.1682 26.1682 21.0303 26.1327 20.8923 26.0972C20.9042 17.4389 20.916 8.78065 20.9278 0.122392C24.3724 -0.0434295 27.817 -0.0355332 31.2616 0.114496Z" fill="#67B8CB"/>
<path d="M119.742 0.114496C119.75 8.77276 119.757 17.4271 119.769 26.0853C116.305 26.2196 112.841 26.2235 109.376 26.0814C109.388 17.4271 109.4 8.77671 109.412 0.122392C112.852 -0.0434295 116.297 -0.0355332 119.742 0.114496Z" fill="#67B8CB"/>
<path d="M13.5656 109.115C14.8071 109.502 16.084 109.439 17.361 109.439C21.385 109.439 25.4129 109.383 29.4368 109.462C30.8399 109.49 31.2931 109.067 31.2853 107.634C31.234 96.1294 31.2537 84.6206 31.2537 73.1157C33.0076 73.1157 34.7614 73.1157 36.5152 73.1157C36.5231 84.4785 36.5271 95.8451 36.5349 107.208C36.5349 109.431 36.5389 109.435 38.6829 109.435C66.9256 109.435 95.1643 109.439 123.407 109.435C123.947 109.435 124.487 109.403 125.027 109.387C125.043 109.443 125.047 109.498 125.047 109.557L125.031 109.695C121.515 109.395 117.996 109.458 114.48 109.66C106.432 109.648 98.3843 109.624 90.3363 109.624C68.8922 109.624 47.4442 109.636 26.0001 109.644C22.5397 109.454 19.0794 109.439 15.619 109.656C14.9884 109.632 14.3539 109.608 13.7272 109.585C13.672 109.427 13.6168 109.269 13.5656 109.115Z" fill="#B495C1"/>
<path d="M125.043 109.553C125.043 109.498 125.035 109.438 125.023 109.383C125.019 97.2939 125.011 85.2047 125.007 73.1116C126.71 73.1116 128.416 73.1116 130.119 73.1116C130.107 85.1889 130.095 97.2702 130.083 109.348C130.068 109.427 130.06 109.509 130.056 109.588C128.381 109.695 126.714 109.758 125.043 109.553Z" fill="#B499C8"/>
<path d="M25.9962 109.644C47.4403 109.636 68.8883 109.624 90.3324 109.624C98.3803 109.624 106.428 109.648 114.476 109.66C114.48 121.78 114.488 133.897 114.492 146.018C114.102 146.034 113.708 146.065 113.317 146.065C84.5979 146.069 55.8744 146.069 27.1549 146.065C26.7647 146.065 26.3706 146.034 25.9804 146.018C25.9843 133.893 25.9883 121.768 25.9962 109.644ZM70.1337 135.686C74.4218 135.619 78.4812 135.33 82.4815 134.501C85.6148 133.854 88.7047 133.04 91.3965 131.208C94.5061 129.092 94.4864 126.585 91.3847 124.433C89.8358 123.36 88.1135 122.637 86.3124 122.132C76.5658 119.404 66.7482 119.352 56.8913 121.441C54.0024 122.053 51.1805 122.933 48.7842 124.757C46.2146 126.715 46.2303 128.946 48.7921 130.916C50.0099 131.852 51.3854 132.503 52.82 133.021C58.4835 135.074 64.3835 135.555 70.1337 135.686Z" fill="#E54C3C"/>
<path d="M125.043 109.553C126.71 109.758 128.381 109.695 130.052 109.592C132.216 109.616 134.383 109.636 136.547 109.66C136.645 109.671 136.748 109.683 136.846 109.699L136.835 109.695C136.862 109.802 136.929 109.841 137.028 109.817C139.566 110.864 140.626 112.81 140.614 115.499C140.587 123.711 140.61 131.919 140.602 140.131C140.599 144.012 138.565 146.061 134.714 146.069C131.475 146.073 128.239 146.042 124.999 146.026C125.007 133.917 125.015 121.808 125.023 109.699L125.043 109.553Z" fill="#E54D3D"/>
<path d="M125.031 109.695C125.023 121.804 125.015 133.913 125.007 146.022C121.503 146.164 118 146.168 114.496 146.022C114.492 133.901 114.484 121.784 114.48 109.663C117.996 109.458 121.511 109.395 125.031 109.695Z" fill="#F19A20"/>
<path d="M25.9962 109.644C25.9922 121.768 25.9844 133.893 25.9804 146.022C22.5319 146.168 19.0872 146.168 15.6387 146.022C15.6308 133.901 15.6269 121.776 15.619 109.655C19.0754 109.438 22.5358 109.454 25.9962 109.644Z" fill="#F19C20"/>
<path d="M137.032 109.814C136.929 109.841 136.866 109.798 136.839 109.691C136.914 109.636 136.992 109.632 137.071 109.679L137.099 109.762L137.032 109.814Z" fill="#B499C8"/>
<path d="M80.6804 99.1023C71.5407 99.1023 62.4011 99.1023 53.2575 99.1023C50.1203 99.1023 49.5055 98.4745 49.5055 95.2765C49.5015 92.5207 49.5015 89.7649 49.5055 87.0052C49.5133 84.3205 50.3489 83.4637 53.0289 83.4598C64.3796 83.4519 75.7342 83.4558 87.0848 83.4558C94.1632 83.4558 101.238 83.4519 108.316 83.4598C111.047 83.4637 111.977 84.3639 111.997 87.0644C112.017 89.9189 112.017 92.7734 111.997 95.6279C111.977 98.2337 111.114 99.0983 108.545 99.1023C99.2553 99.1062 89.9698 99.1023 80.6804 99.1023Z" fill="#9EC7D2"/>
<path d="M136.551 109.66C134.387 109.636 132.22 109.616 130.056 109.592C130.06 109.509 130.072 109.431 130.083 109.352C132.239 109.383 134.395 109.415 136.555 109.446C136.551 109.517 136.551 109.588 136.551 109.66Z" fill="#B495C1"/>
<path d="M136.551 109.659C136.551 109.588 136.551 109.517 136.555 109.446C136.653 109.529 136.752 109.616 136.85 109.699C136.748 109.683 136.649 109.671 136.551 109.659Z" fill="#B499C8"/>
<path d="M70.1338 135.686C64.3875 135.559 58.4836 135.078 52.82 133.024C51.3854 132.503 50.006 131.856 48.7921 130.92C46.2304 128.95 46.2146 126.715 48.7843 124.761C51.1805 122.937 54.0024 122.057 56.8913 121.445C66.7483 119.356 76.5658 119.411 86.3124 122.135C88.1135 122.641 89.8358 123.363 91.3847 124.437C94.4865 126.589 94.5062 129.096 91.3965 131.212C88.7047 133.044 85.6148 133.854 82.4815 134.505C78.4773 135.326 74.4218 135.614 70.1338 135.686Z" fill="#F4EDC8"/>
</svg>
