<svg width="31" height="31" viewBox="0 0 31 31" fill="none" xmlns="http://www.w3.org/2000/svg">
<path d="M30.1524 15.0762C30.1524 6.74984 23.4026 0 15.0762 0C6.74984 0 0 6.74984 0 15.0762C0 23.4026 6.74984 30.1524 15.0762 30.1524C23.4026 30.1524 30.1524 23.4026 30.1524 15.0762Z" fill="white"/>
<path d="M16.1397 23.4517V15.3515H18.9055L19.3202 12.1946H16.1397V10.1791C16.1397 9.26518 16.398 8.64231 17.7312 8.64231H19.4316V5.81965C18.6085 5.73405 17.7813 5.69259 16.9537 5.69545C14.502 5.69545 12.8236 7.16653 12.8236 9.86829V12.1946H10.0508V15.3515H12.8236V23.4517H16.1397Z" fill="black"/>
</svg>
