<svg width="29" height="30" viewBox="0 0 29 30" fill="none" xmlns="http://www.w3.org/2000/svg">
<circle cx="14.5" cy="14.5" r="14.5" fill="white"/>
<path d="M2.175 22.4651C3.94011 25.4222 6.72834 27.6978 10.0512 28.8041C10.7767 28.9367 11.0411 28.489 11.0411 28.1044C11.0411 27.9452 11.0384 27.6639 11.0348 27.2875C11.0307 26.8515 11.0253 26.2879 11.0215 25.6387C6.98823 26.5146 6.13726 23.6947 6.13726 23.6947C5.47766 22.0203 4.52699 21.5743 4.52699 21.5743C3.21046 20.6744 4.62668 20.6922 4.62668 20.6922C6.08207 20.7955 6.84759 22.1868 6.84759 22.1868C8.14097 24.4023 10.2417 23.7623 11.0678 23.392C11.1995 22.4547 11.5734 21.8156 11.9882 21.4533C8.76852 21.0874 5.3833 19.843 5.3833 14.2867C5.3833 12.7041 5.94855 11.4098 6.87608 10.3959C6.72653 10.0292 6.22894 8.5551 7.01761 6.5585C7.01761 6.5585 8.23533 6.16862 11.0055 8.04504C12.1617 7.7237 13.4026 7.56259 14.6355 7.55725C15.8665 7.56259 17.1074 7.7237 18.2655 8.04504C21.0338 6.16862 22.2489 6.5585 22.2489 6.5585C23.0402 8.5551 22.5426 10.0292 22.3931 10.3959C23.3224 11.4098 23.8841 12.7041 23.8841 14.2867C23.8841 19.8573 20.4935 21.083 17.2632 21.4417C17.7839 21.8895 18.2477 22.7743 18.2477 24.1273C18.2477 25.4233 18.2397 26.552 18.2344 27.2998C18.2318 27.6701 18.2299 27.947 18.2299 28.1044C18.2299 28.4925 18.4907 28.9438 19.2268 28.8023C21.8739 27.9187 24.1814 26.2934 25.9019 24.1727C23.2435 27.4501 19.1838 29.5447 14.635 29.5447C9.33862 29.5447 4.70547 26.705 2.175 22.4651Z" fill="black"/>
</svg>
