<svg width="32" height="31" viewBox="0 0 32 31" fill="none" xmlns="http://www.w3.org/2000/svg">
<path d="M20.5326 8.02246H11.5453C10.11 8.02246 8.94374 9.18876 8.94374 10.624V19.6099C8.94374 21.0452 10.11 22.2131 11.5453 22.2131H20.5326C21.9663 22.2131 23.1342 21.0452 23.1342 19.6099V10.624C23.1342 9.1887 21.9663 8.02246 20.5326 8.02246ZM16.0381 19.7887C13.4628 19.7887 11.3665 17.6923 11.3665 15.117C11.3665 12.5417 13.4629 10.4454 16.0381 10.4454C18.6151 10.4454 20.7097 12.5417 20.7097 15.117C20.7097 17.6923 18.6134 19.7887 16.0381 19.7887ZM20.8607 11.4113C20.2505 11.4113 19.7551 10.9162 19.7551 10.306C19.7551 9.69719 20.2505 9.20039 20.8607 9.20039C21.4692 9.20039 21.9663 9.69719 21.9663 10.306C21.9663 10.9162 21.4692 11.4113 20.8607 11.4113Z" fill="white"/>
<path d="M16.0381 12.4204C14.552 12.4204 13.3414 13.6293 13.3414 15.1171C13.3414 16.6048 14.552 17.8154 16.0381 17.8154C17.5259 17.8154 18.7365 16.6048 18.7365 15.1171C18.7365 13.6309 17.5259 12.4204 16.0381 12.4204Z" fill="white"/>
<path d="M16.0381 0C7.71183 0 0.961914 6.74992 0.961914 15.0762C0.961914 23.4025 7.71183 30.1524 16.0381 30.1524C24.3644 30.1524 31.1143 23.4025 31.1143 15.0762C31.1143 6.74998 24.3644 0 16.0381 0ZM25.1075 19.6101C25.1075 22.1345 23.0555 24.1866 20.5326 24.1866H11.5453C9.02249 24.1866 6.96881 22.1346 6.96881 19.6101V10.6242C6.96881 8.10159 9.02249 6.04791 11.5453 6.04791H20.5326C23.0555 6.04791 25.1075 8.10159 25.1075 10.6242V19.6101Z" fill="white"/>
</svg>
