<svg width="173" height="201" viewBox="0 0 173 201" fill="none" xmlns="http://www.w3.org/2000/svg">
<path d="M40.9088 123.164C38.6249 123.164 36.7758 121.317 36.7758 119.035V102.519C36.7758 100.238 38.6249 98.3901 40.9088 98.3901C43.1927 98.3901 45.0419 100.238 45.0419 102.519V119.035C45.0419 121.317 43.1927 123.164 40.9088 123.164Z" fill="#589CBC"/>
<path d="M24.3766 131.416C22.0927 131.416 20.2435 129.568 20.2435 127.287V94.2611C20.2435 91.9794 22.0927 90.1321 24.3766 90.1321C26.6605 90.1321 28.5096 91.9794 28.5096 94.2611V127.287C28.5096 129.568 26.6605 131.416 24.3766 131.416Z" fill="#589CBC"/>
<path d="M90.5704 180.355V196.871C90.5704 199.185 88.7537 201 86.4373 201C84.121 201 82.3043 199.185 82.3043 196.871V180.355C82.3043 178.041 84.121 176.226 86.4373 176.226C88.7537 176.226 90.5704 178.047 90.5704 180.355Z" fill="#1F4160"/>
<path d="M106.876 70.187C101.211 64.5282 94.3985 61.6956 86.4373 61.6956C78.4762 61.6956 71.6634 64.5282 65.9991 70.187C60.3284 75.8457 57.4995 82.6518 57.4995 90.6052V136.861C57.4995 144.814 60.3348 151.62 65.9991 157.279C71.6634 162.938 78.4762 165.77 86.4373 165.77C94.3985 165.77 101.211 162.938 106.876 157.279C112.54 151.62 115.375 144.814 115.375 136.861V90.6052C115.375 82.6518 112.54 75.8457 106.876 70.187ZM95.5534 134.372H79.0277C76.7114 134.372 74.8946 132.557 74.8946 130.243C74.8946 127.929 76.7114 126.114 79.0277 126.114H95.5599C97.8762 126.114 99.693 127.929 99.693 130.243C99.6865 132.557 97.8697 134.372 95.5534 134.372ZM95.5534 117.862H79.0277C76.7114 117.862 74.8946 116.047 74.8946 113.733C74.8946 111.419 76.7114 109.604 79.0277 109.604H95.5599C97.8762 109.604 99.693 111.419 99.693 113.733C99.6865 116.041 97.8697 117.862 95.5534 117.862ZM95.5534 101.346H79.0277C76.7114 101.346 74.8946 99.5309 74.8946 97.2168C74.8946 94.9028 76.7114 93.0878 79.0277 93.0878H95.5599C97.8762 93.0878 99.693 94.9028 99.693 97.2168C99.6865 99.5309 97.8697 101.346 95.5534 101.346Z" fill="#F9C04B"/>
<path d="M131.894 138.799C131.894 163.813 111.482 184.484 86.4374 184.484C61.3925 184.484 40.9802 163.813 40.9802 138.799C40.9802 136.485 42.797 134.67 45.1133 134.67C47.4296 134.67 49.2463 136.485 49.2463 138.799C49.2463 159.276 65.9408 176.226 86.4374 176.226C106.934 176.226 123.628 159.269 123.628 138.799C123.628 136.485 125.445 134.67 127.761 134.67C130.071 134.67 131.894 136.485 131.894 138.799Z" fill="#007277"/>
<path d="M107.096 196.871C107.096 199.185 105.279 201 102.963 201H69.9051C67.5888 201 65.772 199.185 65.772 196.871C65.772 194.557 67.5888 192.742 69.9051 192.742H102.963C105.279 192.742 107.096 194.557 107.096 196.871Z" fill="#1F4160"/>
<path d="M34.135 62.0456C36.518 62.0456 38.4498 60.1157 38.4498 57.7351C38.4498 55.3544 36.518 53.4246 34.135 53.4246C31.7521 53.4246 29.8203 55.3544 29.8203 57.7351C29.8203 60.1157 31.7521 62.0456 34.135 62.0456Z" fill="#F9C04B"/>
<path d="M65.5839 33.7775C67.9669 33.7775 69.8986 31.8477 69.8986 29.467C69.8986 27.0864 67.9669 25.1565 65.5839 25.1565C63.2009 25.1565 61.2692 27.0864 61.2692 29.467C61.2692 31.8477 63.2009 33.7775 65.5839 33.7775Z" fill="#F9C04B"/>
<path d="M107.401 34.2702C109.784 34.2702 111.716 32.3403 111.716 29.9597C111.716 27.5791 109.784 25.6492 107.401 25.6492C105.018 25.6492 103.086 27.5791 103.086 29.9597C103.086 32.3403 105.018 34.2702 107.401 34.2702Z" fill="#F9C04B"/>
<path d="M139.44 63.3486C141.823 63.3486 143.755 61.4187 143.755 59.0381C143.755 56.6574 141.823 54.7275 139.44 54.7275C137.057 54.7275 135.126 56.6574 135.126 59.0381C135.126 61.4187 137.057 63.3486 139.44 63.3486Z" fill="#F9C04B"/>
<path d="M36.7888 84.778H48.5975C48.6105 84.5576 48.6364 84.3372 48.6559 84.1104C48.286 73.6095 47.0468 54.7599 47.0403 54.6108C40.6104 62.9726 36.7888 73.428 36.7888 84.778Z" fill="#D17D2B"/>
<path d="M86.4373 35.1777L102.347 53.0162C102.957 53.3079 103.56 53.6255 104.15 53.9496H125.315C116.219 42.5153 102.184 35.1777 86.4373 35.1777Z" fill="#D17D2B"/>
<path d="M125.315 53.9497L123.881 84.778H136.086C136.086 73.1234 132.05 62.4152 125.315 53.9497Z" fill="#D17D2B"/>
<path d="M47.0403 54.6043L70.7875 52.6921C71.2676 52.4782 71.7543 52.2772 72.2409 52.0828L86.4373 35.1777C70.3852 35.1777 56.1174 42.7941 47.0403 54.6043Z" fill="#D17D2B"/>
<path d="M0 84.7779H18.5436C18.5371 84.4019 18.5176 84.0325 18.5176 83.663C18.5176 73.2594 20.8859 63.4003 25.1033 54.6042L9.61568 46.6055C3.67887 58.0721 0.220603 71.0296 0 84.7779Z" fill="#D9502E"/>
<path d="M117.108 5.71704L111.223 21.2544C119.476 24.5991 126.911 29.5383 133.16 35.6703L144.936 23.1017C136.923 15.6604 127.502 9.70995 117.108 5.71704Z" fill="#D9502E"/>
<path d="M172.427 84.778C172.213 71.1724 168.832 58.3445 162.999 46.9751L147.168 55.6156C151.1 64.1524 153.306 73.6485 153.306 83.6632C153.306 84.0391 153.286 84.4086 153.28 84.778H172.427Z" fill="#D9502E"/>
<path d="M27.0109 23.5296L37.6322 33.7128L39.1765 35.1778C45.6064 28.9939 53.2496 24.0611 61.7363 20.8007L55.4362 5.67822C44.8213 9.74243 35.1277 15.8744 27.0109 23.5296Z" fill="#D9502E"/>
<path d="M127.294 119.035V102.519C127.294 100.238 129.143 98.3901 131.427 98.3901C133.711 98.3901 135.56 100.238 135.56 102.519V119.035C135.56 121.317 133.711 123.164 131.427 123.164C129.143 123.164 127.294 121.317 127.294 119.035Z" fill="#589CBC"/>
<path d="M143.82 127.287V94.2611C143.82 91.9794 145.669 90.1321 147.953 90.1321C150.237 90.1321 152.086 91.9794 152.086 94.2611V127.287C152.086 129.568 150.237 131.416 147.953 131.416C145.669 131.416 143.82 129.568 143.82 127.287Z" fill="#589CBC"/>
<path d="M85.9118 0.0065918C80.6562 0.0260378 75.511 0.525151 70.5215 1.44559L73.8305 17.4237C77.7495 16.7107 81.7852 16.3347 85.9118 16.3347V0.0065918Z" fill="#D9502E"/>
<path d="M86.2102 0C86.1064 0 86.0091 0.00648199 85.9053 0.00648199V16.3346C89.8826 16.3346 93.7626 16.6976 97.5518 17.3652L101.296 1.34177C96.3969 0.473185 91.3619 0 86.2102 0Z" fill="#D9502E"/>
</svg>
