<svg width="241" height="52" viewBox="0 0 241 52" fill="none" xmlns="http://www.w3.org/2000/svg">
<path d="M4.55482 44.2672C3.94579 43.2693 3.80854 42.1151 3.50832 41.0129C2.89071 38.748 2.6248 36.4049 2.15302 34.1052C1.7327 32.0745 1.1923 30.0785 0.780563 28.0478C0.488917 26.6159 0.0257128 25.2274 0.0085571 23.7522C-2.07471e-05 23.2575 0.0257128 22.7542 0.385982 22.2769C0.566117 24.6894 1.91284 26.6506 2.47898 28.8896C2.87356 26.4337 3.39681 24.0472 4.25459 21.7649C5.20673 19.2308 6.2275 16.7055 8.22614 14.7529C9.48708 13.5206 11.1598 13.2429 12.2663 14.1541C13.004 14.7616 13.4072 15.6034 13.716 16.4712C14.6938 19.1875 15.3286 21.9905 15.6974 24.8543C15.7489 25.2274 15.8261 25.6006 15.9033 26.0085C16.7525 23.136 17.5074 20.2462 18.7083 17.5126C19.446 15.829 20.2694 14.2062 21.6934 12.9652C22.594 12.1842 23.9836 12.245 24.8414 13.2777C25.6049 14.1975 26.0337 15.2736 26.4369 16.3497C27.3033 18.6494 27.8694 21.0272 28.1353 23.4831C28.5556 27.423 28.65 31.3715 28.6243 35.3288C28.6071 37.7066 28.5728 40.1017 28.1525 42.4448C28.0238 43.1912 27.8866 43.9895 27.3633 44.6144C26.943 44.302 26.5227 43.9809 26.1024 43.6685C25.622 41.7593 26.1195 39.8414 26.0595 37.9235C26.0337 36.995 26.0681 36.0664 26.0681 35.1379C26.0595 34.5044 26.2053 33.8708 26.1024 33.2287C26.0938 33.1853 26.1967 33.1245 26.2568 33.0725C26.6514 32.6993 26.2225 32.222 26.4026 31.8228C26.3168 31.8488 26.231 31.8662 26.1453 31.8922C26.0509 31.8141 26.008 31.7187 26.0423 31.5972C26.4541 31.4063 26.334 31.1199 26.1967 30.8161C25.9137 30.4343 26.0595 30.0091 26.1109 29.6012C26.2053 29.6099 26.3082 29.6186 26.4026 29.6359C26.4369 29.6533 26.4626 29.662 26.4969 29.6793C26.4798 29.6533 26.4626 29.6186 26.4455 29.5925C26.4369 29.1586 26.0681 28.7681 26.4026 28.2821C26.5484 28.0652 26.2568 27.9263 26.008 27.9177C26.008 27.8482 25.9994 27.7788 25.9994 27.7181V27.7354C26.0337 27.6313 26.0766 27.5271 26.1109 27.423C26.1881 27.1627 26.3854 26.8676 26.334 26.642C26.0681 25.4791 26.1538 24.3076 26.1195 23.136C26.1109 22.9104 26.1367 22.7195 25.8279 22.7368C25.4076 22.0252 25.5277 21.2095 25.3904 20.4458C25.0387 18.4932 24.3182 16.6882 23.5033 14.9091C23.3403 14.5533 23.143 14.267 22.7227 14.7963C22.0193 15.6988 21.4274 16.6187 20.9385 17.6775C19.6947 20.3677 18.9913 23.2141 18.2708 26.0605C17.3358 29.7314 16.9412 33.4543 17.413 37.238C17.5588 38.3748 17.739 39.503 17.8419 40.6485C17.9019 41.3254 17.8505 41.9328 17.0442 42.2886C16.3751 42.5837 16.1778 42.2366 15.9376 41.82C15.4229 40.9522 15.2085 40.0063 15.0884 39.0083C14.8568 37.0384 14.4794 35.0858 14.2392 33.1158C14.0248 31.3368 13.8789 29.5491 13.7674 27.7528C13.7417 27.3536 13.4672 26.9804 13.6559 26.5725C13.7245 26.4858 13.7846 26.399 13.8532 26.3035C13.8875 26.3296 13.9476 26.3903 13.9647 26.3816C14.0591 26.3209 13.999 26.2601 13.939 26.2167C13.8704 25.9564 13.6645 25.7221 13.7932 25.427C14.0076 24.9497 13.6902 24.7588 13.3557 24.5766C13.3557 24.3162 13.3643 24.0559 13.3643 23.7955C13.5272 23.5352 13.553 23.3096 13.2013 23.1968C13.1756 23.0492 13.1412 22.9017 13.1155 22.7542C13.3643 22.6153 13.3128 22.5112 13.0812 22.4244C13.0726 22.2248 13.0555 22.0165 13.0469 21.8169C13.1927 21.6781 13.1069 21.5913 12.9783 21.5219C12.6008 20.9665 12.6523 20.2983 12.5236 19.6821C12.4293 19.2482 12.2234 18.875 12.1376 18.4325C12.0261 17.8076 11.7431 17.2002 11.5029 16.6014C11.0568 15.4732 10.4306 15.4038 9.57286 16.2976C8.02884 17.9205 7.20537 19.9425 6.39048 21.9731C5.35256 24.5679 4.83789 27.3189 4.52908 30.0785C4.35753 31.6666 4.46046 33.2981 4.56339 34.9209C4.7178 37.3421 5.40402 39.6331 5.97874 41.9589C6.19318 42.844 6.39905 43.8073 6.01305 44.7359C5.71283 44.7272 5.47265 44.7966 5.42976 45.1524C5.37829 45.1264 5.32682 45.109 5.27536 45.083C5.20673 44.8487 5.17242 44.5797 4.83788 44.5797C4.84646 44.3801 4.77784 44.2499 4.55482 44.2672Z" fill="black"/>
<path d="M54.3663 36.9431C54.3577 36.8389 54.3491 36.7435 54.3405 36.6393C54.8723 36.4137 54.4435 36.2228 54.3148 36.0232C54.392 34.3657 54.6665 32.7255 54.9924 31.1027C55.327 29.4365 55.773 27.805 56.3735 26.2169C56.7252 25.2883 56.9225 24.2817 57.3513 23.3965C58.0633 21.9125 58.6294 20.3505 59.41 18.8926C60.1134 17.5735 60.834 16.2718 61.6489 15.0221C62.1893 14.1803 62.7983 13.3906 63.4159 12.5922C63.9992 11.8372 64.5825 11.0736 65.2687 10.4053C66.2208 9.47679 67.2588 8.5569 68.5883 8.48748C69.7035 8.42673 70.8786 8.64369 71.745 9.58092C73.1775 11.1343 73.9838 12.9567 74.3183 15.0395C74.5928 16.7751 74.5585 18.476 74.3698 20.229C74.2068 21.7563 73.615 23.1101 73.1946 24.5333C73.126 24.7763 72.8944 24.9672 72.7486 25.1755C72.4913 25.566 72.0967 26.026 71.7707 25.8871C71.4362 25.7483 71.5391 25.0801 71.6163 24.6982C71.9937 22.9279 72.3025 21.1402 72.3969 19.3438C72.5256 16.8098 72.2597 14.2758 70.8014 12.1063C69.6091 10.3359 68.4854 10.4401 66.9414 12.0368C63.922 15.161 61.7689 18.8839 60.1563 22.9192C59.127 25.5053 58.252 28.1521 57.6687 30.8857C56.8624 34.6781 56.6137 38.4878 57.7459 42.2541C58.3807 44.3802 59.6759 46.0811 61.4601 47.3915C64.5567 49.6565 67.6619 48.9276 70.7928 47.4783C72.5599 46.6626 74.2068 45.6906 75.4249 44.1025C75.5535 43.9376 75.6908 43.8075 75.7165 43.5992C75.7508 43.2694 76.1283 43.2781 76.2569 43.0525C76.2226 43.4343 76.8059 43.0959 76.8231 43.6946C76.8574 45.2567 76.4542 46.5498 75.4249 47.7039C74.3441 48.9189 73.0317 49.7607 71.5648 50.4028C69.9865 51.0884 68.3739 51.7393 66.6669 51.8174C64.3595 51.9128 62.1292 51.4355 60.1906 50.0557C58.801 49.0664 57.5744 47.8775 56.6737 46.4196C55.7559 44.9269 55.001 43.3388 54.7694 41.5512C55.001 40.7875 54.5893 40.0325 54.7437 39.2688C54.778 39.1039 54.5378 39.1126 54.392 39.1473C54.3834 39.0866 54.3834 39.0171 54.3748 38.9564C54.8209 38.6787 54.6836 38.4097 54.3491 38.158V38.1493C54.4692 37.8456 54.5979 37.5505 54.7008 37.2381C54.7951 36.9257 54.5807 36.9257 54.3663 36.9431Z" fill="black"/>
<path d="M40.3499 42.5754C40.9332 39.7029 41.0447 36.8218 40.8389 33.8972C40.6759 31.6322 40.2641 29.3933 40.0754 27.137C39.8696 24.6637 39.4407 22.2251 39.0547 19.7779C38.9003 18.7973 38.6172 17.834 38.5314 16.8447C38.5143 16.6278 38.4199 16.4108 38.54 16.1765C38.8316 15.5864 38.3427 15.6037 38.0854 15.7339C37.1075 16.2025 36.1639 16.7232 35.2375 17.296C34.2682 17.8948 33.2903 18.5109 32.2095 18.8927C32.0294 18.9535 31.815 18.9969 31.6262 18.8754C31.8922 17.4088 32.9043 16.4889 34.0195 15.7079C36.7558 13.8074 39.6723 12.2366 42.8032 11.0998C45.651 10.0671 48.4989 9.02571 51.5955 9.1125C51.7241 9.42491 52.0673 9.19928 52.2474 9.37284C52.1616 9.6679 51.8271 9.73732 51.6727 9.91088C51.8099 10.3188 52.4104 9.60715 52.3675 10.2927C51.8785 11.013 51.0036 11.0738 50.3174 11.2907C48.3788 11.9069 46.4059 12.4189 44.4587 13.035C43.112 13.4602 41.8253 14.0503 40.5215 14.5884C40.144 14.7446 40.1012 14.8314 40.2127 15.1785C40.6845 16.6364 41.182 18.0857 41.568 19.5696C42.7517 24.1257 43.558 28.7685 44.0641 33.446C44.3558 36.1275 44.3729 38.8264 43.9097 41.4993C43.498 43.8771 42.8118 46.1507 41.1391 47.9905C39.9468 49.3009 37.7251 50.2121 35.6064 48.9798C32.2438 47.0186 30.2709 44.1114 29.945 40.2236C29.7648 38.0974 30.7942 36.2837 32.261 34.7824C32.9815 34.0448 33.7793 33.4113 34.74 33.0121C35.4949 32.6996 36.0353 32.0748 36.7301 31.693C36.8502 31.6236 36.9702 31.3111 37.2447 31.6236C37.4935 31.9099 37.3219 32.1095 37.219 32.2657C36.8587 32.8125 36.2669 33.1249 35.7865 33.5501C35.1946 34.0708 34.9459 34.7911 34.5427 35.3985C33.9165 36.3531 33.2389 37.273 32.7585 38.3404C32.2696 39.4252 32.2953 40.4579 32.647 41.5166C33.3161 43.5299 34.74 44.9705 36.2754 46.3156C36.9445 46.9057 38.5314 46.576 38.9775 45.7429C39.4578 44.849 40.0154 43.9639 40.1612 42.9138C40.3328 42.8791 40.5901 42.9745 40.6244 42.7142C40.6501 42.5754 40.4614 42.5927 40.3499 42.5754Z" fill="black"/>
<path d="M103.243 43.0524C102.462 42.1499 102.462 41.0131 102.479 39.9457C102.505 38.5832 102.719 37.2207 102.882 35.8669C103.054 34.4437 103.054 33.0205 103.123 31.5973C103.131 31.4498 103.32 31.2415 103.045 31.146C102.839 31.0766 102.737 31.2415 102.608 31.363C101.681 32.2568 100.987 33.2982 100.481 34.4871C99.6142 36.5525 99.1339 38.7307 98.542 40.8742C98.2932 41.7854 97.0923 42.4016 96.226 42.0111C95.8485 41.8375 95.4111 40.8222 95.4454 40.423C95.4969 39.8328 95.4282 39.2341 95.454 38.6353C95.5226 37.0211 95.7285 35.3983 95.6684 33.7842C95.6341 32.8817 95.737 31.9531 95.514 31.0592C95.4454 30.7989 95.3768 30.5472 94.9736 30.8597C93.9014 31.6928 93.035 32.7602 92.4946 33.9317C91.8599 35.3202 91.5425 36.8823 91.3795 38.427C91.2337 39.8068 91.0793 41.1866 91.045 42.5751C91.0278 43.2607 90.4874 43.5731 89.9384 43.8335C89.621 43.981 89.5524 43.6773 89.4495 43.5037C89.012 42.7574 88.9605 41.9243 89.0549 41.0912C89.2951 39.0778 89.4323 37.0558 89.9813 35.0946C90.0585 34.8342 90.1872 34.5826 90.2901 34.3309C90.5046 33.8276 90.6418 33.2982 90.6933 32.7515C90.719 32.4651 90.7447 32.1874 90.7705 31.901C90.9935 31.8056 91.3366 31.7709 90.9849 31.4151C90.9334 30.8336 91.3366 30.9985 91.654 30.9985C91.4481 31.0766 91.4996 31.1807 91.6197 31.3022C91.7655 31.4498 91.7998 31.2762 91.877 31.2241C92.5804 30.3476 93.3524 29.5406 94.3303 28.9591C95.6598 28.1694 97.0838 28.7769 97.4526 30.3129C97.6585 31.1981 97.8987 32.0659 97.8643 32.9858C97.8558 33.116 97.9673 33.2461 98.0702 33.4804C98.6792 32.2742 99.2711 31.2241 100.069 30.2869C100.892 29.3236 101.862 28.612 103.037 28.1868C104.023 27.831 105.25 28.4732 105.524 29.5059C106.013 31.363 105.893 33.2722 105.876 35.1466C105.85 37.3075 105.593 39.4597 105.413 41.6119C105.379 41.985 105.216 42.3408 105.121 42.7053C104.864 42.7834 105.01 43.1479 104.744 43.226C104.486 43.2086 104.812 42.7053 104.349 42.7747C103.912 42.8355 104.143 43.1132 104.058 43.2954C104.015 43.3996 103.869 43.4603 103.877 43.5992C103.817 43.5818 103.757 43.5558 103.697 43.5384C103.586 42.8789 103.569 42.8615 103.243 43.0524Z" fill="black"/>
<path d="M110.628 46.862C110.354 45.9334 110.559 44.9788 110.439 44.0416C110.379 43.5556 110.414 43.0176 109.959 42.6705C110.028 42.5924 110.096 42.5229 109.968 42.4448C109.959 42.4362 109.899 42.5316 109.856 42.575C109.684 42.1845 109.118 41.9241 109.633 41.334C109.882 41.0477 109.968 40.5877 109.899 40.0757C109.556 37.3508 109.367 34.6172 109.865 31.8836C110.456 28.6032 112.764 26.5986 115.869 26.3295C117.559 26.182 119 27.0325 120.081 28.3949C122.019 30.8335 121.754 33.0811 119.935 35.6932C118.228 38.1578 115.921 39.9802 113.459 41.6117C113.081 41.8634 112.935 42.0804 112.953 42.5663C113.013 43.9722 113.287 45.3433 113.476 46.7232C113.158 47.0876 113.373 47.7211 113.939 48.103C113.956 48.346 113.973 48.5976 113.999 48.8406C113.399 49.0142 113.639 49.3179 113.845 49.6737C113.965 49.8733 114.299 50.2638 113.647 50.2465C113.63 50.2291 113.613 50.2204 113.587 50.2031C113.605 50.2118 113.63 50.2291 113.647 50.2378C113.682 50.8106 113.45 51.2358 112.91 51.418C112.386 51.5916 112.266 51.0449 112 50.7932C111.391 50.2118 111.314 49.396 111.065 48.6323C110.885 48.0422 111.143 47.348 110.628 46.862ZM118.854 31.736C118.863 30.0178 117.31 28.5859 115.869 28.7074C113.69 28.8896 112.429 30.3041 112.112 32.3782C112.035 32.9076 111.829 33.4456 111.906 33.975C112.078 35.1378 112.284 36.3007 112.524 37.4462C112.592 37.7847 112.404 38.3054 112.704 38.4355C113.124 38.6091 113.27 38.0711 113.51 37.802C113.673 37.6198 113.922 37.6458 114.136 37.4809C115.466 36.4049 116.735 35.2593 117.808 33.9229C118.365 33.2287 118.743 32.4042 118.854 31.736ZM113.707 48.6237L113.742 48.6497L113.75 48.615L113.707 48.6237Z" fill="black"/>
<path d="M78.0323 29.0112C78.8386 28.1521 79.7479 27.4318 80.9488 27.3103C81.7808 27.2235 82.5271 27.588 83.2476 27.9698C83.3077 28.0045 83.3506 28.0827 83.4106 28.1174C83.7795 28.3343 84.3456 28.2475 84.4914 28.7769C84.7487 29.6968 85.0575 30.582 84.7831 31.5973C84.4314 32.8817 84.4228 34.2354 84.3799 35.5632C84.3027 37.7674 84.0797 39.989 84.4314 42.1933C84.5171 42.7313 84.7059 43.2607 84.8688 43.7901C84.9375 44.0244 85.1433 44.276 85.3578 44.0851C85.8124 43.6512 86.5844 43.8855 86.9275 43.2694C86.9961 43.1566 87.0819 43.2086 87.1763 43.1826C87.3221 43.1479 87.2792 43.2607 87.2792 43.2867C87.1334 44.4149 87.1334 45.5778 86.1727 46.4369C85.212 47.296 83.3677 46.7406 82.8016 45.8641C81.9695 44.5885 81.7293 43.1826 81.5406 41.716C81.4549 41.0565 81.8323 40.3449 81.3519 39.72C80.477 40.6226 79.7221 41.6466 78.3583 41.8462C76.9944 42.0458 75.9307 41.4209 75.3903 40.1192C74.7641 38.6353 74.8242 37.1166 75.0987 35.5979C75.3045 34.4871 75.6305 33.3937 76.0165 32.3263C76.0851 32.1353 76.2052 32.0486 76.3167 31.9271C76.9343 31.3717 77.0287 30.4344 77.6549 29.9137C77.9723 29.6447 78.058 29.3844 78.0323 29.0112ZM81.3948 29.2976C80.4856 29.367 79.9623 29.827 79.4991 30.3737C78.2382 31.8837 77.509 33.6367 77.1574 35.5806C76.9515 36.7174 76.8486 37.8369 77.123 38.9563C77.3461 39.8415 78.0066 40.0064 78.6585 39.3729C79.3104 38.7394 79.7908 37.9931 80.1682 37.16C81.1203 35.0685 81.7808 32.8903 82.3212 30.6601C82.5185 29.8356 82.0982 29.2716 81.3948 29.2976Z" fill="black"/>
<path d="M133.702 33.5064C133.634 36.8041 131.532 39.3381 128.375 39.9976C126.977 40.2927 125.733 39.8848 124.524 39.3988C123.949 39.1732 123.4 38.6525 123.006 38.0624C122.397 37.1338 122.028 36.1011 121.899 35.0337C121.805 34.2701 122.002 33.4717 122.174 32.6993C122.663 30.4604 124.078 28.8549 125.733 27.4317C126.488 26.7808 127.415 26.4077 128.375 26.1734C128.95 26.0345 129.525 26.1907 129.971 26.5812C131.678 28.0652 132.733 30.0091 133.462 32.1179C133.608 32.5518 133.848 33.1159 133.702 33.5064ZM124.224 33.9837C124.292 35.2767 124.412 36.3268 125.425 36.9863C126.651 37.776 127.887 37.7239 129.13 37.0297C130.408 36.3094 131.163 35.216 131.146 33.7233C131.129 31.7274 130.091 30.1393 128.924 28.6466C128.367 27.935 127.758 27.9524 127.097 28.5859C126.9 28.7768 126.686 28.959 126.497 29.1586C125.15 30.5645 124.275 32.1873 124.224 33.9837Z" fill="black"/>
<path d="M137.854 33.1162C137.7 32.7691 137.202 32.8298 137.074 32.4567C136.902 31.5802 136.242 31.1376 135.59 30.669C134.5 29.1503 135.058 27.8226 136.379 26.8246C137.245 26.1737 138.206 25.7138 139.253 25.3493C140.273 24.9935 141.208 24.9761 142.229 25.1497C142.967 25.2799 143.07 25.8526 143.318 26.356C143.044 26.5035 142.735 26.5729 142.401 26.5556C140.651 26.5035 139.201 27.2932 137.863 28.3085C137.134 28.8639 137.134 29.3673 137.837 29.9834C139.004 30.9988 140.23 31.9447 141.371 32.986C142.375 33.8886 143.19 34.9213 143.644 36.2751C144.228 38.0194 143.507 39.3124 142.461 40.1802C140.728 41.6034 138.704 42.0981 136.516 41.8725C135.813 41.803 135.092 41.6555 134.535 41.1175C134.32 40.9179 134.149 40.7183 134.226 40.4059C134.295 40.0934 134.543 40.0934 134.792 39.9719C136.242 39.2603 137.837 39.3037 139.347 38.9306C140.119 38.7396 140.719 38.245 141.286 37.7243C141.448 37.5768 141.431 37.247 141.328 36.9693C140.934 35.8325 140.007 35.1295 139.193 34.3485C139.09 34.2444 138.969 34.1576 138.858 34.0621C138.858 33.3852 138.438 33.1596 137.854 33.1162Z" fill="black"/>
<path d="M113.647 50.2381C114.299 50.2641 113.965 49.8649 113.845 49.6653C113.63 49.3095 113.39 49.0145 113.999 48.8322C114.248 49.3963 114.265 50.0211 114.162 50.5852C114.025 51.3402 113.253 51.4357 112.678 51.7047C112.155 51.9477 112.146 51.3923 111.923 51.184C110.679 50.0038 110.654 48.4244 110.628 46.8623C111.143 47.3483 110.877 48.0425 111.074 48.624C111.323 49.379 111.4 50.2034 112.009 50.7848C112.275 51.0365 112.395 51.5919 112.918 51.4096C113.459 51.2274 113.69 50.8022 113.647 50.2381Z" fill="black"/>
<path d="M25.8016 22.7372C26.1104 22.7111 26.0847 22.9107 26.0933 23.1363C26.1276 24.3079 26.0418 25.4794 26.3077 26.6423C26.3592 26.8766 26.1619 27.163 26.0847 27.4233C25.7587 27.0241 25.8274 26.5382 25.8617 26.0956C25.9303 24.9761 25.6215 23.8653 25.8016 22.7372Z" fill="black"/>
<path d="M78.0326 29.0112C78.0583 29.3757 77.964 29.6447 77.6466 29.9138C77.0204 30.4431 76.926 31.3717 76.3084 31.9271C76.1111 31.5192 76.4457 31.2675 76.6086 30.9898C77.029 30.2956 77.4493 29.5927 78.0326 29.0112Z" fill="black"/>
<path d="M52.3588 10.2835C52.4017 9.59796 51.8013 10.3009 51.664 9.90169C51.827 9.72813 52.153 9.66739 52.2387 9.36365C52.0586 9.19009 51.7155 9.41572 51.5868 9.10331C51.8527 9.10331 52.1186 9.08595 52.376 9.21612C52.6247 9.33762 52.9078 9.30291 52.8992 9.77152C52.8821 10.2141 52.6333 10.2141 52.3588 10.2835Z" fill="black"/>
<path d="M26.0933 43.6597C26.5136 43.9721 26.9339 44.2932 27.3543 44.6056C27.1484 45.0308 26.8139 44.8746 26.5394 44.7444C26.0933 44.5362 26.1019 44.0849 26.0933 43.6597Z" fill="black"/>
<path d="M54.3834 39.1558C54.5293 39.1211 54.7694 39.1124 54.7351 39.2773C54.5807 40.0497 54.9925 40.796 54.7609 41.5597C54.2719 40.8134 54.5121 39.9542 54.3834 39.1558Z" fill="black"/>
<path d="M135.59 30.6689C136.242 31.1289 136.911 31.5802 137.074 32.4566C136.525 31.9012 135.727 31.5628 135.59 30.6689Z" fill="black"/>
<path d="M103.843 43.6253C103.835 43.4778 103.981 43.417 104.023 43.3216C104.101 43.1393 103.869 42.8616 104.315 42.8009C104.778 42.7401 104.452 43.2348 104.71 43.2521C104.984 43.174 104.83 42.8009 105.087 42.7314C105.078 43.5993 104.564 43.7641 103.843 43.6253Z" fill="black"/>
<path d="M13.836 26.2948C13.7674 26.3816 13.7073 26.4684 13.6387 26.5638C13.3899 25.9217 13.4414 25.2361 13.3385 24.5679C13.673 24.7501 13.9904 24.941 13.7759 25.4183C13.6473 25.7047 13.8531 25.9477 13.9218 26.208C13.8875 26.2341 13.8617 26.2688 13.836 26.2948Z" fill="black"/>
<path d="M25.9822 27.9263C26.2309 27.9349 26.5226 28.0738 26.3767 28.2908C26.0422 28.7767 26.4111 29.1672 26.4196 29.6012L26.3767 29.6445C26.2824 29.6359 26.1795 29.6272 26.0851 29.6098C25.7849 29.0631 26.1108 28.4817 25.9822 27.9263Z" fill="black"/>
<path d="M113.939 48.0947C113.373 47.7128 113.159 47.0793 113.476 46.7148C113.939 47.0793 113.759 47.6521 113.939 48.0947Z" fill="black"/>
<path d="M26.1192 31.901C26.205 31.8749 26.2908 31.8576 26.3766 31.8315C26.1964 32.2307 26.6253 32.6994 26.2308 33.0812C25.922 32.7167 25.9305 32.3175 26.1192 31.901Z" fill="black"/>
<path d="M54.3664 36.9429C54.5895 36.9169 54.7953 36.9256 54.6924 37.238C54.5895 37.5504 54.4608 37.8454 54.3407 38.1492C54.0319 37.75 54.3579 37.3508 54.3664 36.9429Z" fill="black"/>
<path d="M90.6764 32.769C90.625 33.3158 90.4877 33.8451 90.2733 34.3485C90.076 33.7323 90.2818 33.2203 90.6764 32.769Z" fill="black"/>
<path d="M137.855 33.1162C138.438 33.1596 138.858 33.3852 138.858 34.0621C138.558 33.6976 138 33.6282 137.855 33.1162Z" fill="black"/>
<path d="M54.3402 38.1577C54.6748 38.4094 54.812 38.6784 54.366 38.9561C54.1515 38.6958 54.2802 38.4267 54.3402 38.1577Z" fill="black"/>
<path d="M26.1707 30.8247C26.308 31.1198 26.4281 31.4148 26.0163 31.6057C26.0163 31.3367 25.8276 31.033 26.1707 30.8247Z" fill="black"/>
<path d="M103.243 43.0527C103.569 42.8618 103.586 42.8878 103.663 43.5647C103.38 43.504 103.32 43.2784 103.243 43.0527Z" fill="black"/>
<path d="M5.41226 45.1438C5.45515 44.788 5.69533 44.7186 5.99555 44.7273C6.00413 45.1438 5.65244 45.0657 5.41226 45.1438Z" fill="black"/>
<path d="M54.3148 36.0229C54.4435 36.2225 54.8724 36.4135 54.3405 36.6391C54.3319 36.4395 54.3234 36.2312 54.3148 36.0229Z" fill="black"/>
<path d="M40.3501 42.5752C40.4616 42.6012 40.6589 42.5752 40.6332 42.714C40.5988 42.9744 40.3415 42.8702 40.17 42.9136C40.1185 42.7314 40.2643 42.6707 40.3501 42.5752Z" fill="black"/>
<path d="M13.1837 23.1885C13.5268 23.31 13.5097 23.5269 13.3467 23.7873C13.0379 23.6571 13.1408 23.4141 13.1837 23.1885Z" fill="black"/>
<path d="M4.82043 44.5801C5.15497 44.5801 5.18928 44.8491 5.25791 45.0834C4.99199 45.0227 4.82043 44.8751 4.82043 44.5801Z" fill="black"/>
<path d="M90.9594 31.4321C91.3111 31.7879 90.9679 31.8226 90.7449 31.9181C90.6935 31.6925 90.7878 31.5449 90.9594 31.4321Z" fill="black"/>
<path d="M4.55449 44.2672C4.77751 44.2498 4.84614 44.38 4.8204 44.5796C4.59738 44.5883 4.5888 44.4147 4.55449 44.2672Z" fill="black"/>
<path d="M13.0636 22.416C13.2952 22.5028 13.3467 22.6069 13.098 22.7458C12.9693 22.6503 12.9521 22.5375 13.0636 22.416Z" fill="black"/>
<path d="M12.9525 21.5132C13.0918 21.5826 13.1789 21.6607 13.0221 21.8082C12.8741 21.7475 12.9438 21.626 12.9525 21.5132Z" fill="black"/>
<path d="M25.9647 27.7397V27.7183C25.9754 27.729 25.9647 27.7397 25.9647 27.7397Z" fill="black"/>
<path d="M13.923 26.208C13.984 26.2601 14.0449 26.3121 13.9491 26.3729C13.9317 26.3816 13.8795 26.3208 13.8359 26.2948C13.862 26.2688 13.8882 26.234 13.923 26.208Z" fill="black"/>
<path d="M26.4198 29.6016C26.4371 29.6276 26.4544 29.6623 26.4716 29.6883C26.4371 29.671 26.4112 29.6623 26.3766 29.6449L26.4198 29.6016Z" fill="black"/>
<path d="M113.708 48.6246L113.753 48.6152L113.744 48.6528L113.708 48.6246Z" fill="black"/>
<path d="M113.658 50.2311C113.64 50.222 113.614 50.2039 113.596 50.1948C113.614 50.2039 113.632 50.222 113.658 50.2311Z" fill="black"/>
<path d="M181.327 49.2054C181.661 49.2227 181.739 48.9364 181.679 48.6326C181.421 48.5892 181.155 48.5458 180.898 48.5024C180.872 48.8496 180.932 49.188 181.327 49.2054Z" fill="black"/>
<path d="M173.041 42.8528C173.041 42.792 173.033 42.7399 173.033 42.6792C172.946 42.7399 172.895 42.8007 173.041 42.8528Z" fill="black"/>
<path d="M240.437 7.34194C240.033 6.52619 239.193 6.72579 238.773 6.88199C237.786 7.25515 236.757 7.5155 235.83 8.06222C234.998 8.54819 234.955 8.49613 234.758 7.53285C234.707 7.28987 234.681 7.04688 234.655 6.79521C234.578 5.95343 233.574 5.11166 232.948 5.36332C232.116 5.69309 231.541 6.35263 231.19 7.15102C230.435 8.85193 230.117 10.6483 230.169 12.5141C230.186 13.0695 230.015 13.5294 229.508 13.8766C228.016 14.9093 226.798 16.2717 225.537 17.5648C223.839 19.3091 222.132 21.036 220.553 22.9539C220.004 21.279 219.498 19.6649 218.949 18.0681C218.134 15.725 217.294 13.3993 216.101 11.2124C216.05 11.2124 216.007 11.2124 215.964 11.2037C215.998 11.2124 216.05 11.2124 216.101 11.2124C216.161 10.9694 215.998 10.8392 215.835 10.7177C215.638 10.0929 215.321 9.20773 214.797 9.19906C214.111 9.19038 214.12 8.79118 213.897 8.46141C213.657 8.09693 213.391 7.74981 213.168 7.37665C212.567 6.36999 211.778 5.52821 211.032 4.63436C210.62 4.17442 210.354 3.54092 209.625 3.48017L209.591 3.45413C209.548 3.35867 209.737 3.17643 209.488 3.1504C209.428 3.01155 209.299 3.02023 209.188 2.98552C209.162 2.98552 209.136 2.97684 209.11 2.97684C209.136 2.97684 209.162 2.97684 209.188 2.98552C209.136 2.72517 208.93 2.72517 208.724 2.72517C208.716 2.6731 208.681 2.64707 208.63 2.65575C208.57 2.49086 208.467 2.37805 208.278 2.40408C208.235 2.52557 208.227 2.60368 208.244 2.64707C208.227 2.60368 208.235 2.52557 208.278 2.40408C208.184 2.33466 208.09 2.25655 208.004 2.18713C207.927 2.22184 207.858 2.25655 207.789 2.28259C207.858 2.25655 207.927 2.23052 208.004 2.18713C207.695 1.90943 207.412 1.57966 206.932 1.64041C206.786 1.5623 206.674 1.38874 206.477 1.43213C206.468 1.38874 206.434 1.38006 206.4 1.38874C206.4 1.39742 206.391 1.4061 206.391 1.4061C206.391 1.39742 206.4 1.38874 206.4 1.38874C206.245 1.25857 206.177 1.38874 206.1 1.4842C206.108 1.38874 206.125 1.21518 206.117 1.21518C205.388 1.05897 204.779 0.408112 203.946 0.685812C203.835 0.538283 203.723 0.390755 203.509 0.486215C203.286 0.538283 203.217 0.095699 202.943 0.303974C202.977 0.408112 203.012 0.494893 203.054 0.546962C203.012 0.486215 202.977 0.408112 202.943 0.303974C202.806 0.303974 202.668 0.295296 202.523 0.295296C202.497 0.312652 202.48 0.330008 202.463 0.347365C202.48 0.330008 202.505 0.312652 202.523 0.295296C202.325 0.364721 202.179 -0.0171167 201.965 0.234549C201.768 0.13909 201.588 0.00023957 201.347 0.0175958C199.906 0.104377 198.474 0.0956989 197.058 0.503571C195.712 0.885409 194.296 1.04161 192.924 1.36271C192.478 1.46684 191.946 1.35403 191.603 1.78793C191.594 1.82265 191.594 1.84868 191.594 1.88339C191.594 1.84868 191.594 1.81397 191.603 1.78793C191.552 1.77926 191.5 1.77926 191.457 1.77058C191.423 1.88339 191.38 1.99621 191.354 2.1177C191.38 2.00489 191.423 1.88339 191.457 1.77058C191.268 1.71851 191.157 1.88339 191.003 1.94414C190.857 1.84868 190.84 1.9615 190.814 2.06563C190.78 2.0396 190.737 2.02224 190.702 1.99621C190.728 2.17845 190.711 2.25655 190.659 2.29127C190.711 2.25655 190.728 2.17845 190.702 1.99621C190.411 1.86604 190.291 2.05696 190.179 2.27391C190.05 2.27391 189.93 2.27391 189.802 2.28259C189.802 2.30862 189.802 2.34333 189.802 2.36937C189.802 2.43012 189.81 2.49086 189.81 2.55161C189.81 2.49086 189.81 2.43012 189.802 2.36937C189.802 2.34333 189.802 2.30862 189.802 2.28259C189.253 2.43879 188.781 2.74253 188.292 3.02023C188.129 3.01155 187.94 2.92477 187.829 3.13304C187.82 3.20247 187.812 3.26322 187.786 3.32396C187.803 3.26322 187.82 3.20247 187.829 3.13304C187.563 3.21115 187.417 2.56029 187.082 3.00287C186.945 2.96816 186.817 2.94212 186.748 3.10701L186.739 3.08097C186.842 3.29793 186.731 3.66241 186.791 3.83597C186.731 3.66241 186.834 3.28925 186.739 3.08097C186.276 3.30661 185.787 3.49752 185.358 3.77523C184.252 4.51287 183.377 5.51953 182.476 6.4828C181.618 7.41136 180.701 8.27917 180.023 9.3813C179.989 9.43336 179.946 9.51147 179.911 9.58089C179.92 9.57221 179.937 9.56354 179.946 9.55486C179.937 9.56354 179.92 9.57221 179.911 9.58089C179.894 9.58957 179.886 9.59825 179.868 9.60693C179.868 9.60693 179.877 9.61561 179.877 9.62428C179.877 9.62428 179.877 9.62428 179.886 9.63296C179.706 9.94537 179.474 10.3185 179.208 10.1884C178.548 9.86727 178.728 10.3532 178.693 10.5962C178.59 11.438 178.539 12.2885 178.016 13.0088C177.878 13.1997 177.827 13.4687 177.784 13.7117C177.638 14.5361 177.304 15.3085 177.089 16.1155C176.823 17.1309 176.566 18.1462 176.463 19.1876C176.326 20.5674 176.231 21.9559 176.249 23.3618C176.266 24.5767 176.214 25.8263 175.88 27.0239C175.82 27.2322 175.803 27.7702 175.305 27.4925C174.31 26.9285 173.366 26.2603 172.337 25.783C171.291 25.297 170.296 24.6461 169.129 24.4465C169.06 24.2556 168.983 24.082 168.726 24.1688C168.692 24.1168 168.657 24.1081 168.597 24.1341C168.486 24.1775 168.391 24.1949 168.297 24.1775C168.203 24.1688 168.117 24.1341 168.04 24.0907C168.125 24.1341 168.211 24.1601 168.297 24.1775C168.391 24.1862 168.486 24.1775 168.597 24.1341C168.34 23.8911 168.083 23.6568 167.688 23.6828C167.636 23.7262 167.594 23.7783 167.542 23.8217C167.594 23.7783 167.636 23.7262 167.688 23.6828C167.199 23.4399 166.693 23.275 166.187 23.0841C164.754 22.5373 163.365 21.8691 161.941 21.2877C161.349 21.0447 160.834 20.8191 160.731 20.0467C160.697 19.8124 160.568 19.4913 160.397 19.2657C159.462 18.0507 158.518 16.9139 157.103 16.1242C156.048 15.5341 155.199 15.5341 154.161 15.8291C153.869 15.9159 153.689 16.1502 153.595 16.2891C152.865 17.3131 152.634 18.4413 153.097 19.6822C153.166 19.8732 153.354 20.0554 153.294 20.2984C153.32 20.2637 153.363 20.1942 153.363 20.1942C153.612 20.3244 153.603 20.5934 153.68 20.8191C153.689 20.8451 153.68 20.8711 153.68 20.9406C152.994 20.9579 152.651 21.5394 152.153 21.8952C151.476 22.3725 151.33 23.032 151.433 23.7436C151.536 24.4378 152.351 25.0019 153.037 25.1495C153.955 25.3404 154.83 25.1842 155.73 25.0627C157.377 24.8457 158.973 24.4986 160.44 23.6742C160.671 23.6047 160.834 23.4659 160.894 23.2229C161.658 23.3704 162.318 23.787 163.03 24.0734C166.873 25.6441 170.75 27.1454 174.327 29.315C175.279 29.8877 175.382 30.122 175.082 31.1547C174.722 32.413 174.662 33.7408 174.319 35.0165C174.096 35.8583 173.941 36.7174 173.821 37.5765C173.641 38.8435 173.289 40.0845 173.349 41.3776C173.59 41.6205 173.564 41.8115 173.461 41.985C173.564 41.8115 173.59 41.6205 173.349 41.3776C172.878 41.6379 173.178 42.0544 173.135 42.4016C173.178 42.3408 173.221 42.2801 173.272 42.228C173.221 42.2888 173.178 42.3495 173.135 42.4016C173.109 42.497 173.083 42.5838 173.058 42.6706C173.058 42.7313 173.066 42.7834 173.066 42.8442C172.92 44.0157 172.62 45.1786 172.809 46.3675C172.603 46.758 172.886 47.0791 172.98 47.4262C173.032 47.5998 172.852 47.9295 173.315 47.9122C173.667 47.9035 173.658 47.6779 173.761 47.4956C173.555 47.4002 173.418 47.244 173.298 47.0704C173.418 47.244 173.555 47.4002 173.761 47.4956C173.795 47.4436 173.83 47.3828 173.864 47.3307C173.864 47.2787 173.855 47.2179 173.847 47.1659C173.847 47.1398 173.847 47.1138 173.847 47.0878C173.847 47.1138 173.847 47.1398 173.847 47.1659C173.847 47.2179 173.855 47.2787 173.864 47.3307C174.01 47.1919 174.199 47.0791 174.113 46.8274C174.362 45.6559 174.687 44.493 174.859 43.3128C175.297 40.2928 175.837 37.2902 176.386 34.2875C176.583 33.2114 176.643 32.1006 177.029 31.0853C178.47 31.8403 179.551 32.9771 180.718 33.9925C180.821 34.0792 180.992 34.1573 181.009 34.4351C181.052 35.433 180.932 36.4397 180.778 37.403C180.623 38.3402 180.598 39.3035 180.563 40.2147C180.486 42.2801 180.469 44.3628 180.503 46.4369C180.512 47.1398 180.606 47.8601 180.915 48.511C181.172 48.5544 181.438 48.5978 181.696 48.6411C182.116 48.025 182.039 47.296 182.047 46.6191C182.099 43.1045 182.236 39.5899 182.099 36.0752C182.09 35.893 182.124 35.7194 182.313 35.6326C182.502 35.5459 182.571 35.7107 182.673 35.8149C183.368 36.5004 184.2 36.9951 185.015 37.5245C185.273 37.698 185.616 37.7414 185.873 37.915C187.426 38.913 189.158 39.5031 190.874 40.0498C192.409 40.5358 194.022 40.7788 195.652 40.8135C196.921 40.8395 198.199 40.9263 199.426 40.449C199.435 40.3969 199.426 40.3362 199.452 40.2928C199.426 40.3362 199.435 40.3969 199.426 40.449L199.477 40.5011L199.546 40.4924C199.537 40.4056 199.537 40.3101 199.529 40.2234C199.495 40.232 199.477 40.2407 199.46 40.2581C199.477 40.2407 199.495 40.232 199.529 40.2234C199.537 40.3101 199.537 40.4056 199.546 40.4924C199.752 40.5965 199.855 40.3882 200.001 40.3275C199.992 40.2928 199.992 40.2668 199.992 40.2407C199.992 40.2668 199.992 40.3015 200.001 40.3275C200.129 40.4056 200.267 40.5358 200.327 40.2668C200.387 40.2407 200.447 40.2234 200.507 40.1973C200.584 40.1192 200.67 40.0672 200.764 40.0151C200.67 40.0672 200.584 40.1192 200.507 40.1973C200.979 40.2581 201.399 40.0845 201.828 39.9457C201.768 39.7027 201.648 39.6072 201.519 39.5985C201.648 39.6072 201.776 39.7027 201.828 39.9457C203.346 39.5291 204.83 39.0171 206.314 38.4704C207.36 38.0885 208.381 37.6546 209.385 37.1773C210.98 36.405 212.396 35.3376 213.639 34.0792C214.257 33.4544 215.003 32.8643 215.166 31.8837C215.201 31.6754 215.424 31.5452 215.595 31.5105C215.827 31.4671 215.895 31.7188 215.93 31.9097C216.299 33.6974 216.865 35.433 217.422 37.1687C218.151 39.4423 218.966 41.6726 219.841 43.8855C220.064 44.4409 220.425 44.9529 220.656 45.4823C221.299 46.9142 222.14 48.1552 223.281 49.1879C223.504 49.3961 223.907 49.266 223.95 48.8494C223.984 48.5804 223.941 48.294 223.873 48.0337C223.315 45.6212 222.26 43.3909 221.454 41.0651C220.562 38.5224 219.627 36.0058 218.666 33.4891C218.203 32.2655 217.868 30.9551 216.908 29.9745C216.539 29.6013 216.796 29.2542 217.096 29.0546C218.143 28.317 218.872 27.2756 219.781 26.2776C220.159 27.2235 220.536 28.1347 220.879 29.0633C221.42 30.4865 222.011 31.8837 222.681 33.2461C223.006 33.897 223.229 34.6086 223.573 35.2595C224.225 36.5265 224.851 37.8108 225.7 38.9737C226.069 39.7547 226.498 40.4924 227.235 41.0738C227.304 40.2841 226.892 39.7027 226.781 39.0518C226.746 39.0084 226.712 38.965 226.686 38.9216C226.686 38.7307 226.678 38.5658 226.412 38.6092C226.352 38.3662 226.42 38.1233 226.309 37.8716C224.525 33.8363 223.084 29.6621 221.462 25.5573C221.222 24.9499 221.257 24.4639 221.814 24.03C222.174 23.7523 222.432 23.3357 222.749 22.9886C224.147 21.4526 225.571 19.9513 227.064 18.5107C227.939 17.6602 228.779 16.7577 229.569 15.8291C230.04 15.2737 230.409 14.8225 231.267 14.8138C232.125 14.8051 233.051 14.5708 233.815 14.1803C236.233 12.9393 238.55 11.5161 240.291 9.32923C240.737 8.73044 240.78 8.02751 240.437 7.34194ZM157.472 22.4766C157.497 22.4766 157.523 22.4853 157.549 22.4853C157.523 22.4853 157.497 22.4766 157.472 22.4766ZM158.621 22.4853C158.604 22.5373 158.63 22.6328 158.587 22.6675C158.63 22.6328 158.595 22.546 158.621 22.4853C158.57 22.4853 158.51 22.4853 158.458 22.4853C158.467 22.5026 158.467 22.52 158.475 22.546C158.475 22.5287 158.467 22.5026 158.458 22.4853C158.167 22.4766 157.875 22.4679 157.583 22.4592C157.703 22.1468 158.39 22.1902 158.098 21.5827C157.815 21.01 157.652 20.4112 156.82 20.3765C155.953 20.3331 155.104 19.231 155.164 18.3718C155.19 17.9379 155.404 17.7123 155.851 17.9119C156.794 18.3371 157.575 18.9793 158.295 19.7169C158.441 19.8732 158.535 20.0901 158.467 20.2723C158.089 21.2617 158.681 21.8084 159.35 22.3204C159.376 22.3204 159.402 22.3291 159.419 22.3291C159.393 22.3291 159.367 22.3204 159.35 22.3204C159.307 22.4679 159.17 22.4419 159.067 22.4853C158.913 22.4939 158.767 22.4939 158.621 22.4853ZM159.565 22.3811C159.53 22.3638 159.488 22.3464 159.436 22.3377C159.488 22.3551 159.53 22.3638 159.565 22.3811ZM159.582 22.6675C159.505 22.7543 159.427 22.7977 159.35 22.7977C159.419 22.7977 159.505 22.7543 159.582 22.6675C159.685 22.5547 159.676 22.4766 159.625 22.4158C159.676 22.4766 159.676 22.5547 159.582 22.6675ZM160.268 22.9192C160.311 22.9105 160.354 22.9105 160.388 22.9105C160.354 22.9105 160.311 22.9192 160.268 22.9192C160.139 22.9452 160.011 23.0233 159.874 23.1708C160.019 23.032 160.148 22.9452 160.268 22.9192ZM160.242 23.3184C160.32 23.3618 160.371 23.4225 160.397 23.518C160.38 23.4225 160.32 23.3618 160.242 23.3184ZM168.76 24.3858C168.803 24.4378 168.855 24.4726 168.932 24.4726C168.855 24.4726 168.795 24.4378 168.76 24.3858ZM172.912 46.515C172.972 46.5931 173.032 46.6799 173.083 46.7667C173.023 46.6799 172.972 46.5931 172.912 46.515ZM173.95 46.8708C173.984 46.8534 174.027 46.8448 174.078 46.8361C174.018 46.8361 173.976 46.8534 173.95 46.8708ZM210.749 4.62568C210.225 4.54758 210.028 4.07028 209.762 3.67109C210.02 4.07028 210.225 4.54758 210.749 4.62568ZM209.471 3.21982C209.471 3.21982 209.471 3.2285 209.471 3.23718C209.462 3.2285 209.471 3.2285 209.471 3.21982ZM206.357 1.44949V1.45816V1.44949ZM191.414 2.14374C191.414 2.14374 191.406 2.14374 191.406 2.13506C191.406 2.14374 191.406 2.14374 191.414 2.14374ZM188.524 3.08965C188.472 3.0723 188.429 3.04626 188.378 3.02891C188.421 3.05494 188.472 3.0723 188.524 3.08965ZM186.31 3.61034C186.336 3.59298 186.37 3.56695 186.405 3.55827C186.431 3.54959 186.456 3.54092 186.482 3.53224C186.516 3.52356 186.542 3.54092 186.568 3.55827C186.542 3.53224 186.516 3.52356 186.482 3.53224C186.456 3.53224 186.431 3.54959 186.405 3.55827C186.37 3.57563 186.336 3.59298 186.31 3.61034C186.285 3.6277 186.25 3.65373 186.225 3.67109C186.25 3.65373 186.276 3.63637 186.31 3.61034ZM187.185 6.7605C187.271 6.42205 187.589 6.27453 187.872 6.127C189.742 5.1724 191.68 4.40873 193.747 4.03557C194.236 3.94879 194.717 3.84465 195.197 3.72316C195.763 3.57563 195.909 3.91408 196.063 4.35666C196.492 5.58895 196.69 6.92539 197.59 7.95808C197.736 8.12297 197.891 8.23578 197.993 8.07958C198.431 7.36797 198.302 8.24446 198.482 8.24446C198.894 7.7151 198.894 6.6824 198.5 5.65838C198.225 4.94677 197.976 4.22649 197.71 3.5062C197.642 3.31528 197.539 3.26322 197.873 3.16776C199.726 2.62103 201.553 2.83799 203.38 3.27189C203.904 3.39339 204.118 3.7058 204.238 4.28723C204.504 5.50217 205.07 6.63033 205.765 7.6717C206.014 8.04486 206.263 7.66303 206.52 7.6717C206.811 7.68038 206.777 7.394 206.777 7.1597C206.76 6.15303 206.331 5.28522 205.816 4.22649C207.712 5.12901 209.093 6.35263 210.251 8.01015C207.172 8.00147 204.298 8.68705 201.45 9.51147C201.227 9.57221 201.056 9.58957 200.85 9.44204C200.618 9.27716 200.515 9.01681 200.207 8.89532C198.397 8.20107 196.638 8.20975 194.983 9.25112C194.622 9.47676 194.356 9.3379 194.228 9.21641C193.507 8.56555 192.632 8.63498 191.8 8.66969C189.947 8.73911 188.172 9.23377 186.422 9.84124C186.353 9.86727 186.276 9.84991 186.199 9.84991C186.156 9.8152 186.113 9.78049 186.07 9.74578C186.319 8.71308 186.928 7.80188 187.185 6.7605ZM186.147 9.91934C186.13 9.9367 186.122 9.94537 186.105 9.95405C186.122 9.94537 186.13 9.9367 186.147 9.91934ZM183.137 8.904C183.557 8.7044 183.969 8.46141 184.338 8.17504C184.492 8.05354 184.603 7.98412 184.792 8.03619C184.655 8.18371 184.003 10.0582 184.02 10.4834C184.037 10.9694 183.634 11.0215 183.377 11.1603C182.287 11.7591 181.172 12.3145 180.031 12.9133C180.409 11.0128 181.464 9.71974 183.137 8.904ZM179.963 9.59825C179.954 9.58957 179.946 9.58089 179.937 9.57221C179.946 9.58089 179.954 9.59825 179.963 9.59825ZM179.903 9.63296C179.894 9.64164 179.886 9.64164 179.868 9.65032C179.886 9.64164 179.894 9.63296 179.903 9.63296ZM181.618 30.0439C180.709 29.4712 180.126 28.6728 179.508 27.7963C178.891 26.9111 178.659 25.9999 178.427 25.0366C178.084 23.6655 178.668 22.3811 178.848 21.0621C179.139 18.9619 179.808 16.9139 179.8 14.7704C179.8 14.4146 179.946 14.1803 180.34 14.0935C181.653 13.8158 182.862 13.2431 184.089 12.7311C186.225 11.8459 188.395 11.0996 190.719 10.8913C191.26 10.8479 191.8 10.7698 192.341 10.7264C193.061 10.6657 193.404 11.0649 193.482 11.7938C193.55 12.5315 193.885 14.9874 193.816 15.4994C193.739 16.0461 194.013 17.7557 194.039 17.9032C194.022 18.3632 194.125 19.7083 194.056 19.6996C194.159 20.1595 193.876 25.4185 193.421 25.9912C192.392 27.7269 190.882 28.8984 189.141 29.8356C187.88 30.5039 186.542 30.9204 185.161 31.094C183.874 31.2415 182.716 30.7295 181.618 30.0439ZM199.975 40.2234C199.975 40.1886 199.984 40.1626 199.992 40.1366C199.984 40.1626 199.975 40.1886 199.975 40.2234ZM200.129 40.0324C200.172 40.0238 200.207 40.0238 200.232 40.0324C200.198 40.0238 200.164 40.0238 200.129 40.0324ZM201.116 39.7547C201.064 39.8068 201.013 39.8502 200.961 39.8849C201.013 39.8415 201.073 39.7981 201.116 39.7547C201.167 39.7027 201.227 39.6593 201.287 39.6332C201.227 39.6593 201.167 39.7027 201.116 39.7547ZM214.163 27.9612C213.005 31.5973 210.483 33.8449 207.077 35.3029C204.684 36.3269 202.24 37.1687 199.709 37.7588C196.226 38.5658 192.873 38.1753 189.587 36.7608C187.854 36.0145 186.147 35.2334 184.578 34.1747C184.303 33.9925 183.969 33.8363 183.797 33.3763C185.573 33.6193 187.22 33.2895 188.755 32.6387C191.637 31.4237 194.236 29.7662 195.677 26.807C196.407 25.3143 196.484 23.6568 196.484 22.0166C196.484 18.2851 196.132 14.5795 195.394 10.9173C195.326 10.5702 195.429 10.4053 195.695 10.2838C196.467 9.9367 197.282 9.78917 198.096 10.0322C198.345 10.1103 198.68 9.96273 198.817 10.1623C199.126 10.5789 199.769 10.709 199.563 11.5855C199.323 12.6356 199.555 13.7724 199.632 14.8745C199.718 16.1763 200.018 17.4259 200.241 18.6929C200.37 19.4306 200.756 20.1335 201.073 20.8277C201.425 21.6001 201.699 22.4679 202.24 23.0754C203.217 24.1601 203.818 25.5747 205.105 26.3731C206.443 27.1975 207.738 27.9785 209.445 27.9178C210.225 27.8917 211.075 28.0479 211.881 27.9872C212.516 27.9351 213.219 27.9612 213.794 27.588C214.008 27.4492 214.051 27.6401 214.154 27.6661C214.369 27.7269 214.188 27.8744 214.163 27.9612ZM215.183 19.4392C215.089 20.9926 215.003 22.5373 214.892 24.0907C214.866 24.4552 214.746 24.7676 214.317 24.9325C212.37 25.6788 210.388 25.783 208.364 25.3838C207.189 25.1495 206.323 24.4205 205.542 23.5787C204.152 22.0861 203.046 20.4025 202.325 18.476C201.648 16.6449 201.407 14.7097 201.056 12.8005C201.004 12.5054 200.961 12.2017 200.927 11.9066C200.807 10.6483 200.807 10.6396 202.068 10.4661C203.715 10.2404 205.37 10.0929 207 9.80652C208.373 9.57221 209.788 9.84991 211.143 9.43336C211.255 9.39865 211.315 9.48543 211.366 9.58089C212.37 11.412 213.708 13.0608 214.377 15.0655C214.849 16.4713 215.278 17.9119 215.183 19.4392ZM215.793 10.8739C215.793 10.8826 215.792 10.8913 215.784 10.9C215.792 10.8913 215.793 10.8826 215.793 10.8739ZM218.966 24.7416C218.409 25.3491 217.894 25.9999 217.354 26.6247C217.294 26.5987 217.242 26.5813 217.182 26.5553C217.397 25.8177 217.337 25.0627 217.414 24.3164C217.474 23.6915 217.139 22.9452 217.379 22.4506C217.688 21.8257 217.551 21.1054 217.834 20.3071C218.289 21.7823 218.649 22.9973 219.044 24.2035C219.129 24.4378 219.146 24.5507 218.966 24.7416ZM231.662 12.6269C231.97 11.7678 232.065 11.0215 232.176 10.2838C232.356 10.2231 232.288 10.0842 232.279 9.96273C232.245 9.96273 232.219 9.95405 232.185 9.94537C232.15 9.92802 232.116 9.91066 232.082 9.90198C232.116 9.91066 232.15 9.92802 232.185 9.94537C232.219 9.96273 232.253 9.97141 232.279 9.96273C232.382 9.66767 232.485 9.3813 232.622 8.99078C232.922 10.1797 233.592 10.7958 234.844 10.7872C233.806 11.4988 232.88 12.1843 231.662 12.6269Z" fill="black"/>
<path d="M202.136 26.7374C202.008 27.3188 201.87 27.9002 201.742 28.4817C201.467 29.74 201.347 31.0591 200.575 32.1612C200.412 32.3955 200.241 32.6125 199.906 32.4823C198.508 31.9616 197.358 31.2066 197.05 29.5925C196.981 29.1499 196.329 27.7961 195.806 28.0131C194.897 28.3862 195.823 30.3648 195.995 31.1111C196.243 32.2306 196.887 33.0464 197.779 33.6365C198.782 34.296 199.752 35.0337 201.133 34.6171C201.939 34.3741 202.368 33.7146 202.754 33.1939C203.329 32.4129 203.543 31.3628 203.835 30.3822C204.289 28.8462 204.066 27.5618 203.174 26.3121C202.608 25.9129 202.299 26.1559 202.136 26.7374ZM202.702 26.8762L202.711 26.8849C202.711 26.8762 202.702 26.8762 202.702 26.8762ZM202.591 26.7634C202.548 26.7374 202.497 26.7287 202.445 26.72C202.497 26.7287 202.548 26.7374 202.591 26.7634Z" fill="black"/>
<path d="M205.825 14.3541C205.147 15.3868 204.89 16.4716 204.727 17.6431C204.564 18.7887 204.778 19.7693 205.645 20.585C205.808 20.7412 205.988 20.9669 206.177 20.8974C206.408 20.8107 206.297 20.5069 206.322 20.2987C206.477 19.049 206.151 17.7299 206.88 16.5671C207.197 16.0724 207.343 15.4129 207.935 15.1699C208.673 14.8661 209.282 15.4476 209.711 16.5237C209.865 17.1745 209.831 17.7907 209.874 18.0684C210.045 19.023 210.148 19.9862 210.483 20.8888C210.5 20.9322 211.289 22.2773 211.975 21.1838C212.224 20.7933 212.421 20.3334 212.456 19.8821C212.601 17.9816 212.49 16.1331 211.349 14.4669C209.848 12.2887 207.094 12.4102 205.825 14.3541Z" fill="black"/>
<path d="M185.676 17.9206C186.13 17.4694 186.439 17.4607 186.808 17.938C187.323 18.5802 187.734 19.2831 188.009 20.0641C188.069 20.229 189.939 22.2944 190.394 22.3552C190.634 22.3899 191.148 22.4333 191.114 21.8605C191.114 21.8084 191.234 21.0708 190.985 20.7931C190.428 18.9533 189.536 17.3218 188.112 16.0288C187.494 15.4734 186.765 15.3085 185.942 15.4647C184.526 15.7337 183.669 16.6797 182.999 17.8686C181.79 20.0555 181.756 22.3812 182.262 24.7503C182.39 25.3491 182.631 25.9826 183.18 26.4165C183.771 25.5574 183.857 24.6375 183.832 23.6482C183.814 22.7717 183.703 21.8692 183.943 21.0187C184.295 19.8559 184.809 18.7971 185.676 17.9206Z" fill="black"/>
</svg>
