<svg width="188" height="179" viewBox="0 0 188 179" fill="none" xmlns="http://www.w3.org/2000/svg">
<path d="M164.461 25.6123C160.678 25.627 156.895 25.5903 153.116 25.671C150.474 25.7261 148.987 27.9388 150.183 29.935C150.919 31.1643 152.152 31.4615 153.495 31.4652C157.153 31.4725 160.814 31.4908 164.472 31.5019C165.035 32.8816 166.121 33.3586 167.541 33.3109C168.458 33.2816 169.374 33.3183 170.287 33.3036C172.782 33.2669 173.69 32.3605 173.724 29.8909C173.805 23.8069 173.657 23.6822 167.523 23.7886C166.099 23.8143 165.021 24.2362 164.461 25.6123ZM16.8999 176.087C20.6166 176.095 24.3334 176.12 28.0464 176.095C30.1403 176.08 31.3068 174.99 31.2664 173.214C31.2222 171.416 30.2544 170.583 28.0869 170.568C24.3702 170.543 20.6534 170.554 16.9404 170.554C16.2449 169.049 15.0305 168.433 13.415 168.47C12.6827 168.488 11.9541 168.466 11.2218 168.473C8.32938 168.499 7.39468 169.431 7.37996 172.297C7.35052 177.852 7.49404 177.948 13.1133 178.003C14.7877 178.014 16.1124 177.665 16.8999 176.087ZM36.6869 153.48C35.3695 151.7 30.5598 150.75 28.5726 151.88C26.5892 153.01 26.453 159.332 28.385 160.569C30.3758 161.842 35.1965 160.987 36.6685 159.098C40.4514 159.134 44.2344 159.244 48.0174 159.182C49.9493 159.149 51.1012 157.865 51.0496 156.21C50.9981 154.522 49.8205 153.432 47.8591 153.425C44.1351 153.406 40.411 153.458 36.6869 153.48ZM166.688 9.53624C166.861 12.5232 167.589 13.2057 170.629 13.2094C172.763 13.2131 174.897 13.2388 177.028 13.1984C179.041 13.158 179.913 12.2957 179.946 10.2885C179.987 7.85928 179.987 5.4264 179.946 2.99352C179.913 0.920258 179.001 0.0505874 176.877 0.0175619C174.743 -0.0117941 172.609 0.0028839 170.478 0.0102229C167.637 0.0175619 166.846 0.791826 166.691 3.67972C162.529 3.68706 158.371 3.6944 154.209 3.70174C152.984 3.70541 151.754 3.63202 150.54 3.73476C148.811 3.88521 147.578 5.2099 147.626 6.69605C147.673 8.10514 148.891 9.29772 150.529 9.48854C151.011 9.54358 151.508 9.51055 151.997 9.51055C156.895 9.52156 161.79 9.5289 166.688 9.53624ZM47.3844 170.561C44.2712 170.561 41.158 170.55 38.0485 170.565C35.9104 170.576 34.6224 171.614 34.6556 173.258C34.6887 174.965 35.984 176.095 38.008 176.098C44.2344 176.113 50.4572 176.113 56.6836 176.098C58.8069 176.095 60.1574 174.887 60.0912 173.13C60.0286 171.534 58.8069 170.579 56.7278 170.565C53.6109 170.546 50.4976 170.561 47.3844 170.561ZM60.9854 153.417C60.9854 153.425 60.9854 153.432 60.9854 153.439C59.8851 153.439 58.7775 153.34 57.6919 153.465C56.1794 153.641 55.2374 154.569 55.1343 156.107C55.035 157.567 55.7894 158.58 57.2135 158.922C59.6128 159.498 62.0747 159.38 64.4777 159.046C66.1116 158.819 67.0389 157.648 66.8291 155.898C66.6267 154.221 65.4639 153.546 63.9183 153.436C62.9431 153.359 61.9606 153.417 60.9854 153.417ZM138.33 9.50688C138.33 9.49955 138.33 9.49221 138.33 9.48854C139.121 9.48854 139.923 9.56193 140.707 9.47386C142.301 9.29038 143.603 7.98404 143.504 6.60064C143.386 5.01175 142.422 3.95126 140.866 3.78614C139.239 3.61 137.565 3.61367 135.938 3.78247C134.205 3.96227 133.233 5.20256 133.292 6.73274C133.355 8.34365 134.503 9.40781 136.321 9.50321C136.987 9.53624 137.66 9.50688 138.33 9.50688ZM143.997 25.682C143.997 25.6747 143.997 25.6674 143.997 25.66C143.449 25.66 142.897 25.6196 142.352 25.6674C140.759 25.8141 139.732 26.6434 139.552 28.2654C139.379 29.8359 140.203 30.8267 141.671 31.2303C143.158 31.6413 144.682 31.5863 146.179 31.256C147.725 30.9147 148.391 29.8653 148.354 28.3351C148.314 26.6985 147.243 25.9866 145.822 25.6967C145.237 25.583 144.608 25.682 143.997 25.682Z" fill="#FEFEFE"/>
<path d="M181.727 43.3323C184.969 43.78 186.728 45.9523 187.991 48.7008C187.991 49.7979 187.991 50.8988 187.991 51.996C187.299 53.5298 186.636 55.0783 185.15 56.0581C180.804 54.3151 179.387 52.2015 179.523 48.0146C179.586 46.0807 181.021 44.9028 181.727 43.3323Z" fill="#76B1CA"/>
<path d="M120.733 84.8893C122.341 74.7762 120.972 65.1254 116.056 56.0875C109.505 44.0515 99.437 36.551 86.123 33.3402C83.4771 32.7017 83.363 32.5953 83.3594 29.9533C83.3594 25.9279 83.341 21.8987 83.3667 17.8733C83.3778 16.1303 84.1027 15.5432 85.7697 15.8257C96.1765 17.5944 105.693 21.4584 114.065 27.9277C125.844 37.0281 133.524 48.8035 136.921 63.2797C139.39 73.7965 138.974 84.2765 136.107 94.6722C134.952 94.3713 134.117 93.5127 133.105 92.9549C131.371 91.9935 129.818 92.2467 128.928 93.6448C128.037 95.0392 128.453 96.6244 130.028 97.7436C131.364 98.694 132.718 99.626 134.061 100.562C132.041 105.196 129.686 109.644 126.665 113.721C125.45 115.361 124.803 115.445 123.327 113.988C120.424 111.119 117.59 108.183 114.635 105.369C113.332 104.129 113.207 103.057 114.204 101.567C116.475 98.1729 118.238 94.5181 119.301 90.555C120.081 88.746 120.401 86.8158 120.733 84.8893Z" fill="#F2C858"/>
<path d="M25.4594 114.143C21.7206 108.903 18.5927 103.325 16.6055 97.1934C10.6441 78.7982 12.4546 61.1479 22.5744 44.6609C31.2443 30.5296 43.8922 21.4036 59.9919 17.1359C61.8171 16.6516 63.6939 16.3543 65.5375 15.936C66.7997 15.6535 67.4658 16.1819 67.4731 17.4075C67.5063 22.0457 67.4879 26.6803 67.4879 31.3186C67.4879 32.779 66.4207 33.0616 65.302 33.3184C58.3948 34.9073 52.1794 37.9163 46.7478 42.4665C37.8645 49.9082 32.4329 59.3132 30.8137 70.8097C29.3528 81.1944 31.259 90.9369 36.5875 99.9932C36.7421 100.254 36.9371 100.489 37.1174 100.738C35.064 103.204 33.0658 105.718 30.9425 108.121C29.1394 110.154 27.6784 112.492 25.4594 114.143Z" fill="#FD6D57"/>
<path d="M45.1765 110.58C54.3873 118.689 65.1437 122.645 77.42 122.227C85.1957 121.962 92.4304 119.709 99.08 115.647C101.417 114.22 101.413 114.212 103.371 116.165C106.226 119.008 109.089 121.845 111.93 124.703C113.262 126.043 113.207 126.656 111.621 127.712C90.4948 141.778 68.5403 143.033 45.8793 131.745C41.5665 129.595 37.6216 126.777 34.0962 123.441C34.5967 123.005 35.1597 122.623 35.5903 122.124C38.0816 119.24 40.5876 116.366 42.9869 113.405C43.7303 112.484 44.9446 111.901 45.1765 110.58Z" fill="#FD6C57"/>
<path d="M25.4594 114.143C27.6784 112.491 29.1394 110.154 30.9352 108.121C33.0585 105.717 35.0567 103.204 37.1101 100.738C40.3852 96.9804 43.6861 93.2411 46.9318 89.4579C52.2015 83.3151 57.438 77.143 62.6892 70.9856C64.3489 69.0408 66.0012 67.0923 67.6571 65.1475C69.2138 66.3327 70.8992 67.2904 72.7465 67.951C68.0951 73.4148 63.451 78.8861 58.7885 84.3426C52.8602 91.278 46.9171 98.1986 40.9887 105.13C40.8379 105.31 40.7679 105.56 40.6612 105.776C36.6943 109.974 32.9665 114.377 29.3896 118.913C26.8983 121.753 24.407 124.59 21.9157 127.43C20.613 126.101 19.3103 124.773 18.0076 123.445C20.1346 120.891 22.2579 118.333 24.3886 115.783C24.8081 115.273 25.3858 114.873 25.4594 114.143Z" fill="#88E4E7"/>
<path d="M179.6 57.5625C175.269 65.6611 170.934 73.756 166.603 81.8546C162.787 88.9881 158.978 96.1216 155.166 103.259C153.896 101.791 152.369 100.683 150.551 99.9819C156.571 88.6578 162.592 77.3301 168.612 66.006C170.294 62.8392 171.972 59.6651 173.665 56.5057C173.974 55.9296 174.125 55.2287 174.787 54.8948C176.215 56.0947 177.65 57.2946 179.6 57.5625Z" fill="#88E4E7"/>
<path d="M120.733 84.8894C120.398 86.8159 120.078 88.7423 119.305 90.5588C117.178 89.6084 115.36 88.1516 113.424 86.8966C103.202 80.2842 93.0118 73.6167 82.8147 66.9676C82.6123 66.8355 82.4284 66.6703 82.237 66.5199C83.5728 65.2099 84.9086 63.8962 86.2444 62.5862C89.1589 63.9953 91.7165 65.9768 94.4212 67.7161C103.231 73.3818 111.967 79.1576 120.733 84.8894Z" fill="#88E4E7"/>
<path d="M86.2444 62.5862C84.9086 63.8962 83.5728 65.2099 82.237 66.5199C81.133 66.5786 80.4228 67.6355 79.3078 67.6685C79.3115 67.096 78.9435 66.8208 78.4872 66.5786C77.0041 65.786 75.9664 64.5421 74.9691 63.2247C71.2819 58.3443 72.5735 50.6127 77.6371 47.112C78.34 46.6239 79.4255 46.5285 79.6758 45.4644C86.4064 48.3523 89.0706 54.4106 86.572 61.1955C86.4027 61.6542 86.1708 62.0798 86.2444 62.5862Z" fill="#76B1CA"/>
<path d="M18.0076 123.445C19.3103 124.773 20.613 126.102 21.9157 127.43C22.9534 129.962 23.9028 132.512 23.3582 135.334C22.5008 139.774 20.061 142.919 15.7776 144.559C15.5641 144.06 15.0673 143.921 14.6478 143.682C10.1215 141.106 8.02028 136.035 9.13898 130.923C9.9964 127.019 12.5355 124.597 15.7886 122.689C16.5319 122.935 17.2679 123.188 18.0076 123.445Z" fill="#76B1CA"/>
<path d="M15.7923 122.682C12.5355 124.59 9.9964 127.012 9.14265 130.916C8.02028 136.031 10.1252 141.102 14.6515 143.675C15.071 143.913 15.5641 144.053 15.7812 144.552C10.9274 146.46 5.58417 144.871 2.30535 140.545C-0.807864 136.439 -0.763705 130.615 2.41207 126.48C5.58785 122.337 11.1077 120.77 15.7923 122.682Z" fill="#76B1CA"/>
<path d="M79.6721 45.4681C79.4219 46.5323 78.3363 46.6277 77.6334 47.1157C72.5735 50.6128 71.2782 58.3481 74.9655 63.2285C75.9627 64.5495 77.0042 65.7898 78.4835 66.5824C78.9398 66.8246 79.3078 67.1035 79.3041 67.6723C77.1477 68.4429 74.9434 68.175 72.7465 67.9475C70.8992 67.287 69.2138 66.3292 67.6572 65.144C65.9055 63.0157 64.5182 60.7736 64.1539 57.9077C63.3406 51.4861 67.9515 46.1727 73.2249 45.0351C75.4365 44.5581 77.5672 44.6682 79.6721 45.4681Z" fill="#76B1CA"/>
<path d="M45.1765 110.579C44.9446 111.897 43.7303 112.484 42.9832 113.405C40.5839 116.366 38.0779 119.239 35.5866 122.124C35.156 122.623 34.593 123.004 34.0925 123.441C32.6795 122.16 31.0492 121.096 30.0925 119.372C32.6758 117.236 34.4826 114.403 36.7568 111.989C38.3576 110.293 39.502 108.176 41.537 106.884C42.7514 108.117 43.9658 109.35 45.1765 110.579Z" fill="#FD6C57"/>
<path d="M134.065 100.569C132.718 99.6298 131.368 98.7015 130.032 97.7511C128.461 96.6319 128.045 95.0466 128.932 93.6522C129.826 92.2541 131.379 92.0009 133.108 92.9623C134.117 93.5201 134.952 94.3788 136.111 94.6797C139.022 97.0098 142.176 98.9767 145.414 100.811C143.578 101.861 142.551 103.542 141.804 105.435C139.18 103.883 136.818 101.916 134.065 100.569Z" fill="#89E4E6"/>
<path d="M141.804 105.431C142.551 103.534 143.578 101.857 145.414 100.808C146.477 100.411 147.493 99.8353 148.696 100.015C148.752 100.521 148.56 100.958 148.351 101.406C145.944 106.543 150.338 111.354 154.706 111.321C152.998 113.834 150.043 114.906 147.026 114.102C144.222 113.357 141.918 110.624 141.76 107.798C141.716 107.013 141.786 106.22 141.804 105.431Z" fill="#76B1CA"/>
<path d="M179.6 57.5626C177.65 57.2911 176.215 56.0948 174.783 54.8949C174.474 53.5519 173.643 52.4033 173.617 50.9282C173.525 46.1762 176.958 42.8993 181.731 43.3323C181.025 44.9029 179.589 46.0808 179.527 48.0146C179.394 52.2015 180.807 54.3151 185.153 56.0581C183.575 57.5626 181.658 57.8195 179.6 57.5626Z" fill="#76B1CA"/>
<path d="M154.702 111.321C150.338 111.354 145.94 106.543 148.347 101.406C148.557 100.958 148.748 100.522 148.693 100.015C149.311 100.004 149.926 99.9932 150.544 99.9858C152.365 100.683 153.889 101.795 155.158 103.263C156.343 106.022 156.704 108.738 154.702 111.321Z" fill="#76B1CA"/>
<path d="M41.5407 106.888C39.5057 108.176 38.3576 110.293 36.7605 111.992C34.4863 114.403 32.6794 117.24 30.0961 119.375C29.8606 119.221 29.6251 119.071 29.3896 118.917C32.9665 114.381 36.6942 109.978 40.6612 105.776C40.9556 106.143 41.2463 106.517 41.5407 106.888Z" fill="#F86F5A"/>
</svg>
