<svg width="144" height="51" viewBox="0 0 144 51" fill="none" xmlns="http://www.w3.org/2000/svg">
<path fill-rule="evenodd" clip-rule="evenodd" d="M12.52 8.18018H22.33C27.59 8.18018 29.58 10.8502 29.27 14.7702C28.77 21.2402 24.86 24.8102 19.67 24.8102H17.05C16.34 24.8102 15.86 25.2802 15.67 26.5602L14.55 33.9702C14.48 34.4502 14.22 34.7302 13.84 34.7702H7.69001C7.11001 34.7702 6.91001 34.3302 7.06001 33.3702L10.81 9.59018C10.96 8.64018 11.48 8.18018 12.52 8.18018Z" fill="#00AEEF"/>
<path fill-rule="evenodd" clip-rule="evenodd" d="M55.09 7.74023C58.4 7.74023 61.45 9.53023 61.03 14.0102C60.53 19.3102 57.68 22.2702 53.18 22.2802H49.26C48.69 22.2802 48.42 22.7402 48.27 23.6902L47.51 28.5202C47.4 29.2502 47.02 29.6102 46.47 29.6102H42.82C42.24 29.6102 42.03 29.2402 42.16 28.4102L45.18 9.06024C45.33 8.11024 45.69 7.75023 46.34 7.75023H55.09V7.74023ZM49.14 18.1002H52.12C53.98 18.0302 55.22 16.7402 55.34 14.4202C55.42 12.9802 54.45 11.9602 52.9 11.9702L50.1 11.9802L49.14 18.1002ZM70.96 28.1202C71.29 27.8202 71.63 27.6602 71.58 28.0302L71.46 28.9302C71.4 29.4002 71.58 29.6502 72.02 29.6502H75.26C75.81 29.6502 76.07 29.4302 76.21 28.5802L78.21 16.0302C78.31 15.4002 78.16 15.0902 77.68 15.0902H74.11C73.79 15.0902 73.63 15.2702 73.55 15.7602L73.42 16.5302C73.35 16.9302 73.17 17.0002 73 16.6002C72.39 15.1702 70.85 14.5202 68.69 14.5702C63.69 14.6702 60.31 18.4702 59.95 23.3402C59.67 27.1102 62.37 30.0702 65.93 30.0702C68.51 30.0702 69.66 29.3002 70.96 28.1202ZM68.25 26.1902C66.1 26.1902 64.59 24.4702 64.91 22.3702C65.22 20.2602 67.24 18.5502 69.39 18.5502C71.54 18.5502 73.05 20.2702 72.73 22.3702C72.41 24.4702 70.4 26.1902 68.25 26.1902ZM84.57 15.0502H81.29C80.61 15.0502 80.33 15.5502 80.55 16.1802L84.63 28.1402L80.6 33.8302C80.26 34.3002 80.52 34.7402 81 34.7402H84.7C85.25 34.7402 85.52 34.6002 85.8 34.2002L98.36 16.1802C98.75 15.6202 98.56 15.0402 97.93 15.0402H94.43C93.83 15.0402 93.59 15.2802 93.24 15.7802L88 23.3802L85.67 15.7602C85.55 15.2902 85.2 15.0502 84.57 15.0502Z" fill="#03428E"/>
<path fill-rule="evenodd" clip-rule="evenodd" d="M111.45 7.74023C114.76 7.74023 117.81 9.53023 117.39 14.0102C116.89 19.3102 114.04 22.2702 109.54 22.2802H105.62C105.05 22.2802 104.78 22.7402 104.63 23.6902L103.87 28.5202C103.76 29.2502 103.38 29.6102 102.83 29.6102H99.18C98.6 29.6102 98.39 29.2402 98.52 28.4102L101.54 9.06024C101.69 8.11024 102.05 7.75023 102.7 7.75023H111.45V7.74023ZM105.5 18.1002H108.48C110.34 18.0302 111.58 16.7402 111.7 14.4202C111.78 12.9802 110.81 11.9602 109.26 11.9702L106.46 11.9802L105.5 18.1002ZM127.32 28.1202C127.65 27.8202 127.99 27.6602 127.94 28.0302L127.82 28.9302C127.76 29.4002 127.94 29.6502 128.38 29.6502H131.62C132.17 29.6502 132.43 29.4302 132.57 28.5802L134.57 16.0302C134.67 15.4002 134.52 15.0902 134.04 15.0902H130.47C130.15 15.0902 129.99 15.2702 129.91 15.7602L129.78 16.5302C129.71 16.9302 129.53 17.0002 129.36 16.6002C128.75 15.1702 127.21 14.5202 125.05 14.5702C120.05 14.6702 116.67 18.4702 116.31 23.3402C116.03 27.1102 118.73 30.0702 122.29 30.0702C124.87 30.0702 126.02 29.3002 127.32 28.1202ZM124.6 26.1902C122.45 26.1902 120.94 24.4702 121.26 22.3702C121.57 20.2602 123.59 18.5502 125.74 18.5502C127.89 18.5502 129.4 20.2702 129.08 22.3702C128.77 24.4702 126.76 26.1902 124.6 26.1902ZM139.57 29.6702H135.83C135.53 29.6702 135.33 29.4402 135.37 29.1502L138.66 8.31024C138.71 8.03024 138.99 7.79023 139.28 7.79023H143.02C143.32 7.79023 143.52 8.02024 143.48 8.31024L140.19 29.1502C140.15 29.4302 139.87 29.6702 139.57 29.6702Z" fill="#00AEEF"/>
<path fill-rule="evenodd" clip-rule="evenodd" d="M6.39002 0H16.21C18.97 0 22.25 0.09 24.45 2.02C25.92 3.31 26.68 5.37 26.51 7.58C25.91 15.08 21.42 19.27 15.41 19.27H10.57C9.75002 19.27 9.20002 19.82 8.97002 21.29L7.61002 29.9C7.52002 30.46 7.28002 30.79 6.84002 30.83H0.790017C0.120017 30.83 -0.119983 30.32 0.0600174 29.21L4.41002 1.63C4.58002 0.53 5.19002 0 6.39002 0Z" fill="#03428E"/>
<path fill-rule="evenodd" clip-rule="evenodd" d="M9.10004 20.4402L10.81 9.59018C10.96 8.64018 11.48 8.18018 12.52 8.18018H22.33C23.95 8.18018 25.26 8.43018 26.29 8.90018C25.3 15.5702 20.99 19.2802 15.34 19.2802H10.5C9.86004 19.2802 9.38004 19.6102 9.10004 20.4402Z" fill="#0E3178"/>
</svg>
