<svg width="73" height="73" viewBox="0 0 73 73" fill="none" xmlns="http://www.w3.org/2000/svg">
<path d="M36.26 0C56.28 0 72.52 16.21 72.52 36.2C72.52 56.19 56.29 72.4 36.26 72.4C31.88 72.4 27.99 71.63 24.09 70.24C20.13 68.84 16.57 69.18 13.56 69.89C12.06 70.24 10.82 70.81 9.49001 71.05C8.33001 71.25 7.20001 71.17 6.12001 70.77C5.07001 70.39 4.07 69.72 3.13 68.76C-0.409995 65.15 2.11001 61.19 2.79001 57.07C3.24001 54.33 3.08001 51.18 1.99001 48.04C0.700006 44.33 0 40.34 0 36.19C0.01 16.2 16.24 0 36.26 0Z" fill="url(#paint0_linear_4_4582)"/>
<path fill-rule="evenodd" clip-rule="evenodd" d="M11.42 29.92V49.83C11.42 49.83 12.77 53.88 15.82 50.88L15.95 45.61C15.95 45.61 16.43 44.3 17.87 44.43C17.87 44.43 21.05 45.39 23.49 44.47C28.82 42.47 29.47 34.93 26.6 30.54C24.93 27.99 21.56 26.91 17.48 28.52C17.48 28.52 16.35 28.96 14.56 28.26C12.77 27.56 11.55 28.83 11.42 29.7V29.92ZM19.7 30.7C21.91 30.7 23.71 33.29 23.71 36.5C23.71 39.7 21.91 42.3 19.7 42.3C17.49 42.3 15.69 39.71 15.69 36.5C15.69 33.3 17.49 30.7 19.7 30.7Z" fill="white"/>
<path fill-rule="evenodd" clip-rule="evenodd" d="M31.06 22.4799V44.4599C31.06 44.7099 31.18 44.8299 31.43 44.8299H35.24C35.49 44.8299 35.61 44.7099 35.61 44.4599V22.4799C35.61 22.2299 35.49 22.1099 35.24 22.1099H31.43C31.18 22.1199 31.06 22.2399 31.06 22.4799Z" fill="white"/>
<path fill-rule="evenodd" clip-rule="evenodd" d="M39.19 28.3599H43C43.2 28.3599 43.37 28.5299 43.37 28.7299V44.4599C43.37 44.6599 43.2 44.8299 43 44.8299H39.19C38.99 44.8299 38.82 44.6599 38.82 44.4599V28.7299C38.82 28.5299 38.98 28.3599 39.19 28.3599Z" fill="white"/>
<path fill-rule="evenodd" clip-rule="evenodd" d="M41.05 22.5098C42.32 22.5098 43.35 23.5098 43.35 24.7398C43.35 25.9698 42.32 26.9698 41.05 26.9698C39.78 26.9698 38.75 25.9698 38.75 24.7398C38.75 23.5098 39.78 22.5098 41.05 22.5098Z" fill="#E87CB1"/>
<path fill-rule="evenodd" clip-rule="evenodd" d="M51.2 33.16V43.26C51.2 44.15 50.47 44.8899 49.57 44.8899H48.38C47.49 44.8899 46.75 44.16 46.75 43.26V34.22C46.6 31.52 45.92 27.4099 50.31 28.5399C52.93 29.1199 52.91 28.47 54.95 28.05C56.22 27.79 58.6 27.6 60.08 29.41C61.24 30.82 61.08 31.55 61.08 33.16V43.26C61.08 44.15 60.35 44.8899 59.45 44.8899H58.26C57.37 44.8899 56.63 44.16 56.63 43.26V33.16C56.63 31.6 55.34 30.46 53.73 30.52C52.28 30.58 51.2 31.99 51.2 33.16Z" fill="white"/>
<defs>
<linearGradient id="paint0_linear_4_4582" x1="10.1577" y1="61.358" x2="62.2445" y2="10.982" gradientUnits="userSpaceOnUse">
<stop stop-color="#427ABE"/>
<stop offset="0.22" stop-color="#299FDA"/>
<stop offset="0.51" stop-color="#3EC1C9"/>
<stop offset="1" stop-color="#56C3B9"/>
</linearGradient>
</defs>
</svg>
