<svg width="219" height="65" viewBox="0 0 219 65" fill="none" xmlns="http://www.w3.org/2000/svg">
<path d="M32.4609 8.39698C19.2371 8.39698 8.28561 19.2453 8.28561 32.4136C8.28561 34.5323 8.57588 36.5813 9.09837 38.5317C12.2499 37.9322 12.988 36.6922 15.5672 36.2035C16.89 35.9489 18.3248 36.4376 17.6033 37.4559C17.6033 37.4559 17.3213 37.6612 17.2923 37.6858C17.114 37.887 17.0932 38.31 17.3213 38.4537C17.3793 38.4824 17.7525 38.7698 18.2667 38.7698C23.0479 38.3387 23.5704 36.7743 26.5602 36.1994C27.912 35.9448 29.3592 36.4335 28.6086 37.4518C28.6086 37.4518 28.3515 37.6571 28.3225 37.6817C28.1152 37.8829 28.0944 38.3059 28.3515 38.4496C28.4096 38.4783 28.7828 38.7657 29.2182 38.7657C33.962 38.3346 34.4804 36.7702 37.4743 36.1953C38.8012 35.9407 40.236 36.4294 39.5269 37.4477C39.5269 37.4477 39.2657 37.653 39.2076 37.6776C39.0335 37.8788 39.0044 38.3017 39.2366 38.4455C39.2906 38.4742 39.6969 38.7616 40.1572 38.7616C44.9135 38.3305 45.4194 36.7661 48.4258 36.1912C49.7859 35.9366 51.2206 36.4253 50.4701 37.4436C50.4701 37.4436 50.2047 37.6489 50.1798 37.6735C49.9766 37.8747 49.9476 38.2976 50.2047 38.4414C50.2669 38.4701 50.6442 38.7575 51.1004 38.7575C53.0867 38.581 54.7661 38.0554 55.8152 37.5421C56.2008 35.834 56.4123 34.056 56.4123 32.2329C56.404 19.0852 45.6848 8.39698 32.4609 8.39698ZM24.6154 21.0931L21.1777 21.3641C21.1777 21.3641 22.1688 22.4275 22.6291 22.949C22.8323 23.1749 22.654 23.4582 22.3595 23.2488L22.2559 23.1461L20.8377 21.709C20.8377 21.709 20.5557 31.5883 20.4686 32.7215C20.4396 33.0624 20.1825 33.0952 20.1162 32.7215L19.8093 21.709C19.3366 22.173 18.8265 22.8258 18.3041 23.2529C18.076 23.4623 17.8479 23.2077 18.0553 22.9162L19.3905 21.36C18.2543 21.2737 17.114 21.1875 15.9819 21.0972C15.4802 21.0725 15.4262 20.6373 15.9819 20.5511L19.432 20.239C19.432 20.239 18.4368 19.2207 17.9682 18.7033C17.7235 18.4282 17.8894 18.2147 18.1299 18.3625L19.7969 19.8859L19.8093 19.7996C19.8591 18.6746 19.9462 17.5495 20.0415 16.4244C20.0706 15.9563 20.506 15.8701 20.5889 16.4244L20.846 19.9146C20.846 19.9146 21.9698 18.8429 22.5171 18.3789C22.8032 18.1408 23.0064 18.42 22.7203 18.7033L21.1777 20.239C21.1777 20.239 23.475 20.4648 24.6195 20.5511C25.113 20.5798 25.171 21.0068 24.6154 21.0931ZM39.5518 15.6155C39.303 16.0261 39.2947 16.8843 39.6472 17.3442C39.1537 17.0609 37.8599 16.2643 36.7154 16.0795C37.8226 15.8208 39.5518 15.6155 39.5518 15.6155ZM46.1865 31.7279C44.1629 29.9992 42.214 30.4057 40.4599 30.9231C40.4102 30.8368 40.348 30.7424 40.2899 30.6356C40.5926 31.2392 40.9451 31.8593 41.3515 32.5245L41.4634 32.6928C41.4634 32.6928 37.2379 32.4752 33.7837 29.5927L32.5314 28.3034C32.1043 28.4471 31.6938 28.7304 31.2916 28.8782C31.2916 28.8782 31.2376 29.4202 31.2916 30.3072L30.9723 30.6562C29.8112 28.1104 28.3972 23.8606 31.2376 20.0296H34.9033C35.2475 19.3069 35.8737 18.4898 36.591 17.8574H46.3275C45.1333 19.0893 43.4331 21.8445 43.3626 24.3246C43.2341 28.2582 45.266 30.7876 46.1865 31.7279C46.34 31.847 46.4892 31.9866 46.6344 32.1385C46.6385 32.1426 46.4644 32.0071 46.1865 31.7279ZM70.6397 6.45068C70.2706 6.45068 69.972 18.0956 69.972 32.4588C69.972 46.8219 70.2706 58.4709 70.6397 58.4709C71.0087 58.4709 71.3114 46.8178 71.3114 32.4588C71.3114 18.0956 71.0087 6.45068 70.6397 6.45068Z" fill="#00427A"/>
<path d="M39.9538 17.7427H40.4887L40.1901 15.4228C40.1901 15.4105 40.1819 15.4064 40.1819 15.394H40.1736H39.9206C39.9123 15.4228 39.904 15.4515 39.9123 15.4844L39.9538 17.7427ZM51.9502 28.1189C46.9451 34.9637 37.9675 33.2145 33.7793 29.5971L32.527 28.3077C32.0999 28.4515 31.7184 28.7348 31.2872 28.8826C31.2872 28.8826 31.2042 29.5355 31.3038 30.5907C31.2872 30.4552 31.2747 30.3197 31.2623 30.1924C30.8352 30.6318 30.4951 30.9767 30.01 31.8061C31.113 34.1179 31.6313 35.1814 33.5139 37.7313C33.5139 37.7313 33.7959 37.6327 34.0198 37.5218L34.0696 37.4726C33.8374 37.1646 33.6218 36.8526 33.431 36.5446C33.6052 36.8033 33.7918 37.0743 33.9867 37.3412L34.0323 37.411C35.0151 36.9182 35.9232 36.4296 37.3123 36.1627C38.6434 35.904 40.0906 36.3968 39.3691 37.4274C39.3691 37.4274 39.1037 37.6327 39.0457 37.6573C38.8715 37.8627 38.8425 38.2897 39.0747 38.4293C39.1286 38.458 39.5391 38.7455 40.0035 38.7455C44.7806 38.3143 45.303 36.7417 48.3053 36.1627C49.5824 35.9328 50.9177 36.3393 50.4491 37.2796C52.0788 35.8548 53.5218 33.6457 54.6456 30.1144C53.725 29.4862 52.8501 28.7389 51.9502 28.1189Z" fill="#CE8B4F"/>
<path d="M41.2937 38.6217L41.8162 38.4739L38.3371 33.8833L41.2937 38.6217ZM42.8487 38.3138L43.2841 38.166L40.0704 33.9408L42.8487 38.3138ZM44.4701 37.702L44.7852 37.5459L42.0401 33.9203L44.4701 37.702ZM45.88 37.0327L46.1619 36.9054L43.8647 33.8833L45.88 37.0327ZM45.5358 33.8833L47.2318 36.5112L47.4682 36.3921L45.5358 33.8833Z" fill="#8A3F1E"/>
<path d="M44.8467 32.5902C44.8467 32.5902 47.3181 29.9993 48.1516 28.6853C48.1516 28.6853 50.5858 28.6648 51.9251 28.1146C52.1366 27.7943 49.3874 32.1221 44.8467 32.5902Z" fill="#FFCE71"/>
<path d="M53.2937 29.0013L51.9999 28.0405L51.917 28.0569L51.8921 28.0322C50.5818 28.5743 48.1725 28.5989 48.1476 28.5989H48.102L48.073 28.6441C47.621 29.3503 46.6797 30.4425 45.9167 31.2925C44.9588 30.2003 43.437 27.9419 43.437 24.6693C43.437 24.5585 43.4411 24.4476 43.4411 24.3368C43.5199 21.8115 45.2906 19.0645 46.3853 17.9271L46.3231 17.7793H36.5866H36.5576L36.5327 17.8039C35.8443 18.4075 35.214 19.2041 34.8408 19.9473H31.2291H31.1834L31.1544 19.9802C29.0354 22.8503 28.9235 26.3036 30.8102 30.5411C30.5324 30.8449 30.2629 31.1857 29.927 31.7647L29.9021 31.8099L30.1675 32.3724C31.0881 34.3228 31.5525 35.3001 33.29 37.6529L33.4475 37.8582L34.1608 37.4599L34.1152 37.3818L34.1193 37.3777L34.2562 37.3326C34.2562 37.3285 34.252 37.3244 34.252 37.3162C35.1145 36.8932 36.0227 36.5072 37.3206 36.2568C38.2163 36.0843 39.1244 36.265 39.3856 36.6633C39.4395 36.7413 39.4686 36.8316 39.4686 36.922C39.4686 37.0616 39.4064 37.2094 39.2944 37.3736C39.2695 37.3942 38.9917 37.5872 38.9917 37.5872L38.971 37.6036C38.8673 37.7227 38.8134 37.8992 38.8134 38.0717C38.8134 38.1086 38.8134 38.1497 38.8217 38.1866C38.8424 38.3304 38.9129 38.4494 39.0166 38.5069C39.0249 38.5151 39.058 38.5357 39.058 38.5357C39.199 38.6178 39.5598 38.8354 39.9911 38.8354C42.8523 38.5808 44.1709 37.9321 45.4523 37.2997C46.2982 36.8809 47.1027 36.4867 48.3176 36.2527C49.205 36.0925 50.0551 36.2527 50.3454 36.6222C50.4739 36.7988 50.4781 37.0041 50.3578 37.2505L50.4988 37.3531C52.2985 35.7723 53.6793 33.4195 54.7243 30.151L54.7451 30.0894L53.2937 29.0013ZM48.1974 28.7755C48.4545 28.7713 50.3786 28.7262 51.6889 28.2868C51.3447 28.7344 50.5071 29.7281 49.288 30.6396C48.4711 31.2268 47.5878 31.6867 46.6424 32.0193C46.5304 31.9166 46.4267 31.8181 46.3231 31.7277C46.236 31.6456 46.1406 31.5389 46.037 31.4198C46.7917 30.5862 47.733 29.5022 48.1974 28.7755ZM46.4516 32.0891C46.0121 32.241 45.5601 32.3642 45.0915 32.4545C45.2574 32.2739 45.5435 31.9659 45.8835 31.5963C45.9913 31.6785 46.095 31.7647 46.207 31.855C46.3065 31.9659 46.3853 32.0357 46.4516 32.0891ZM44.7888 32.5161C44.5649 32.5531 44.3327 32.5859 44.1046 32.6188C43.2587 32.7132 42.392 32.7132 41.5295 32.6434L41.4175 32.4792C41.1024 31.9659 40.8204 31.4691 40.5674 30.9927C42.2054 30.5123 43.9429 30.2044 45.7425 31.4937C45.2491 32.0357 44.8676 32.434 44.7888 32.5161ZM36.6322 17.9559H46.124C45.0044 19.1836 43.3374 21.8484 43.2711 24.3326C43.267 24.4435 43.2628 24.5585 43.2628 24.6776C43.2628 27.7736 44.5773 29.9621 45.5601 31.1611C43.806 30.0442 42.1059 30.3563 40.497 30.8326C40.4389 30.7341 40.3891 30.6437 40.3352 30.5575C38.2204 26.3652 38.5065 23.5237 39.7588 20.0664L39.6718 19.9473H35.0565C35.4089 19.2493 35.9895 18.5184 36.6322 17.9559ZM29.6575 25.043C29.6575 23.224 30.2007 21.5898 31.283 20.1198H34.8989H39.5432C39.481 20.2758 39.3815 20.5591 39.2737 20.9328C38.8549 22.2508 38.6019 23.5073 38.6019 24.8172C38.6019 25.8273 38.7553 26.8743 39.0995 28.0117C39.3317 28.8576 39.6759 29.7568 40.1942 30.6519C40.5011 31.2596 40.8619 31.9043 41.2765 32.5736C41.2765 32.5736 41.2807 32.5818 41.289 32.5941C40.4679 32.512 36.8396 32.0316 33.8332 29.531L32.5933 28.2499L32.5519 28.2088L32.5062 28.2252C32.3901 28.2622 32.2782 28.3115 32.1704 28.3607C32.0584 28.4141 31.934 28.4716 31.8303 28.5332L31.2456 28.8042L31.2083 28.8165L31.2 28.874C31.2 28.8863 31.142 29.3626 31.1876 30.1428L31.1295 30.2044C31.0715 30.2619 31.0134 30.3276 30.9554 30.385C30.0929 28.447 29.6575 26.669 29.6575 25.043ZM33.4766 37.6652C31.7889 35.3699 31.2456 34.2119 30.3375 32.2944C30.3375 32.2944 30.1426 31.8838 30.1094 31.8099C30.52 31.1077 30.8393 30.7628 31.1876 30.3933C31.2042 30.537 31.2249 30.6807 31.2456 30.8367C31.3908 32.1301 31.8137 33.9327 32.9209 35.8708C33.2112 36.4046 33.5471 36.9466 33.9369 37.4804C33.7959 37.5379 33.5719 37.6282 33.4766 37.6652ZM31.8925 33.0171C31.8842 32.9883 31.8801 32.9596 31.8676 32.9349C31.8386 32.8323 31.8096 32.7337 31.7847 32.6393C31.7557 32.5284 31.7267 32.4176 31.6976 32.3108C31.6935 32.2903 31.6852 32.2656 31.681 32.241C31.5069 31.4814 31.4115 30.8121 31.37 30.2783C31.3576 29.9991 31.3493 29.7527 31.3493 29.5515C31.3493 29.2435 31.3618 29.0341 31.37 28.9438C31.5732 28.874 31.7681 28.7755 31.9506 28.6728C32.1123 28.5907 32.2657 28.5168 32.4316 28.447C32.0957 32.0562 32.6721 33.6166 34.0447 37.2628C32.9624 35.8092 32.2948 34.3433 31.8925 33.0171ZM34.2437 37.2956C32.8587 33.6083 32.2782 32.0521 32.6016 28.5209C32.838 28.759 33.4144 29.3585 33.6217 29.5761C33.4973 32.9308 33.8 35.1646 34.6294 37.041L34.6377 37.0903C34.5091 37.1601 34.3764 37.2258 34.2437 37.2956ZM50.6232 36.9959C50.6232 36.9712 50.6315 36.9466 50.6315 36.922C50.6315 36.7495 50.5652 36.614 50.4905 36.5196C50.1588 36.0843 49.2548 35.9037 48.2886 36.0761C47.0488 36.3143 46.236 36.7208 45.3735 37.1396C44.1087 37.7637 42.8067 38.4084 39.9869 38.6588C39.622 38.6588 39.2861 38.4577 39.1617 38.3837L39.1037 38.3509C39.0373 38.3098 39.0083 38.2236 39 38.162C38.9917 38.1292 38.9917 38.1004 38.9917 38.0717C38.9917 37.9444 39.0373 37.8048 39.1037 37.7185C39.1576 37.6857 39.4271 37.4927 39.4271 37.4927L39.4354 37.4845C39.5888 37.2628 39.6469 37.0739 39.6469 36.9138C39.6469 36.77 39.593 36.6427 39.5349 36.5606C39.2281 36.0966 38.2577 35.8872 37.2833 36.0761C36.2466 36.2773 35.496 36.6386 34.7994 37.0082C33.9825 35.1358 33.6881 32.9678 33.8 29.7322C33.8249 29.7568 33.8498 29.7773 33.8747 29.7979C33.9369 29.8471 34.0074 29.9005 34.0654 29.9498C36.7483 32.0685 40.6338 33.1854 44.117 32.7912C44.4032 32.7543 44.6851 32.7091 44.963 32.6557C47.4717 32.3683 49.4124 30.9353 50.6232 29.7609C51.1001 29.301 51.5479 28.796 51.9626 28.2376C52.087 28.3238 53.1817 29.1409 53.1817 29.1409C53.1817 29.1409 54.434 30.073 54.5336 30.1469C53.5508 33.21 52.2695 35.4438 50.6232 36.9959Z" fill="black"/>
<path d="M42.7888 50.5586C42.5607 50.5586 42.3534 50.5915 42.1253 50.6448C39.6497 51.3018 38.613 52.7882 33.865 53.1783C32.2188 53.1783 31.3273 51.7822 31.8456 50.5545C31.6175 50.5545 31.3895 50.5874 31.1863 50.6407C28.6775 51.2977 27.6699 52.7841 22.926 53.1742C21.3378 53.1742 20.4463 51.7781 20.9356 50.5504C20.7034 50.5504 20.5043 50.5833 20.2721 50.6366C19.3516 50.8789 18.6217 51.2443 17.8339 51.6057C21.7484 54.5539 26.6124 56.3031 31.999 56.1676C36.4111 56.0567 40.4707 54.9398 43.954 53.0223C42.8966 52.6363 42.3824 51.54 42.7888 50.5586ZM51.1112 39.854C49.4981 39.817 48.6066 38.3758 49.1001 37.1357C48.872 37.1357 48.6646 37.1645 48.4366 37.1973C45.9568 37.9036 44.9285 39.4023 40.1763 39.854C38.5342 39.817 37.6385 38.3758 38.1569 37.1357C37.9288 37.1357 37.6966 37.1645 37.4934 37.1973C34.9929 37.9036 33.9811 39.4023 29.2373 39.854C27.6533 39.817 26.7576 38.3758 27.2469 37.1357C27.0147 37.1357 26.8115 37.1645 26.5793 37.1973C24.1078 37.9036 23.067 39.4023 18.2817 39.854C17.1414 39.8294 16.3618 39.1436 16.1462 38.3142C16.1088 38.2362 16.0881 38.1417 16.0923 38.0309C16.0632 37.7352 16.1005 37.4273 16.2167 37.1357C16.0093 37.1357 15.7854 37.1645 15.5822 37.1973C13.4467 37.7968 12.3975 38.9958 9.21286 39.5953C9.84731 41.4677 10.6891 43.2621 11.7299 44.925C13.5171 44.2763 14.4253 43.4509 16.4115 43.0773C17.7385 42.8186 19.1774 43.2826 18.46 44.3337C18.46 44.3337 18.1988 44.5062 18.1449 44.5555C17.9707 44.7567 17.9417 45.1591 18.1739 45.3274C18.2278 45.3562 18.6383 45.6149 19.1276 45.6149C23.9046 45.2166 24.452 43.648 27.4459 43.0773C28.7729 42.8186 30.2076 43.2826 29.4944 44.3337C29.4944 44.3337 29.2041 44.5062 29.1751 44.5555C29.001 44.7567 28.9761 45.1591 29.2083 45.3274C29.258 45.3562 29.6395 45.6149 30.0998 45.6149C34.8271 45.2166 35.3371 43.648 38.3393 43.0773C39.658 42.8186 41.0969 43.2826 40.3754 44.3337C40.3754 44.3337 40.1183 44.5062 40.081 44.5555C39.8861 44.7567 39.8612 45.1591 40.081 45.3274C40.1432 45.3562 40.5495 45.6149 41.0098 45.6149C45.7661 45.2166 46.3052 43.648 49.3074 43.0773C50.6302 42.8186 52.0732 43.2826 51.3517 44.3337C51.3517 44.3337 51.0573 44.5062 51.0324 44.5555C50.8541 44.7567 50.8334 45.1591 51.0614 45.3274C51.1195 45.3562 51.4927 45.6149 51.953 45.6149C51.9945 45.6149 52.0401 45.6108 52.0732 45.6066C53.4043 43.6029 54.4327 41.3732 55.0962 38.9547C54.0222 39.2668 52.2723 39.7472 51.1112 39.854ZM49.9335 44.1408C49.693 44.1408 49.4981 44.19 49.2991 44.2229C46.7862 44.884 45.7578 46.3622 41.0015 46.7646C39.3636 46.7646 38.4679 45.3644 38.9904 44.1449C38.7623 44.1449 38.555 44.1941 38.331 44.227C35.8181 44.8881 34.8188 46.3663 30.0915 46.7687C28.4743 46.7687 27.5828 45.3685 28.0804 44.149C27.8482 44.149 27.645 44.1982 27.4418 44.2311C24.9372 44.8922 23.9046 46.3704 19.1235 46.7728C17.4482 46.7728 16.5525 45.3726 17.0792 44.1531C16.8511 44.1531 16.6106 44.2024 16.4157 44.2352C14.9063 44.6171 13.9277 45.3315 12.3685 45.9023C13.6291 47.7418 15.1261 49.4048 16.8262 50.8378C17.9292 50.3205 18.8166 49.7785 20.2721 49.5157C21.6281 49.2406 23.0629 49.7169 22.3165 50.7434C22.3165 50.7434 22.0594 50.9446 22.0345 50.9733C21.8354 51.2074 21.8023 51.5934 22.0594 51.7494C22.1174 51.7781 22.4865 52.0573 22.926 52.0573C27.6699 51.6549 28.1923 50.0659 31.1863 49.5157C32.5049 49.2406 33.948 49.7169 33.2306 50.7434C33.2306 50.7434 32.9694 50.9446 32.9154 50.9733C32.7371 51.2074 32.7081 51.5934 32.9403 51.7494C33.0025 51.7781 33.4006 52.0573 33.865 52.0573C38.613 51.6549 39.1604 50.0659 42.1253 49.5157C43.4854 49.2406 44.9202 49.7169 44.1738 50.7434C44.1738 50.7434 43.9167 50.9446 43.8835 50.9733C43.6762 51.2074 43.6471 51.5934 43.9167 51.7494C43.9664 51.7781 44.3396 52.0573 44.8041 52.0573C45.1399 52.0286 45.4468 51.9999 45.7454 51.9629C47.8892 50.5176 49.7677 48.7478 51.3061 46.7071C50.116 46.3704 49.5106 45.2001 49.9335 44.1408Z" fill="#0072BC"/>
<path d="M8.98632 39.6565C8.87436 39.2746 8.82045 38.8846 8.73337 38.5027C12.2166 37.9196 12.9091 36.5564 15.5837 36.0308C16.9065 35.7598 18.3454 36.269 17.6239 37.3325C17.6239 37.3325 17.3419 37.5378 17.3171 37.5665C17.1387 37.7718 17.1097 38.2153 17.3461 38.3631C17.4 38.3918 17.7732 38.6875 18.2874 38.6875C23.0727 38.2481 23.5869 36.6221 26.585 36.0308C27.9368 35.7598 29.384 36.269 28.6334 37.3325C28.6334 37.3325 28.3722 37.5378 28.3432 37.5665C28.1358 37.7718 28.1068 38.2153 28.3722 38.3631C28.4261 38.3918 28.7993 38.6875 29.2388 38.6875C33.9827 38.2481 34.5052 36.6221 37.4949 36.0308C38.8177 35.7598 40.2608 36.269 39.5434 37.3325C39.5434 37.3325 39.3153 37.6076 39.2614 37.6363C39.0831 37.8457 39.0292 38.2153 39.2573 38.3631C39.3153 38.3918 39.7093 38.6341 40.1779 38.6341C44.9341 38.1988 45.2078 36.6057 48.4423 36.0349C49.8065 35.7886 51.2952 36.3141 50.5446 37.3694C50.5446 37.3694 50.2295 37.665 50.2046 37.6938C50.0014 37.9032 49.9641 38.2153 50.2212 38.3631C50.2834 38.3918 50.6607 38.6875 51.1169 38.6875C53.4266 38.4739 55.3134 37.7759 56.292 37.1723C56.2298 37.2093 55.8524 38.8024 55.8317 38.7942C55.6078 38.864 53.1073 39.6853 51.121 39.87C49.508 39.8331 48.6164 38.3877 49.1099 37.16C48.8818 37.16 48.6745 37.1805 48.4464 37.2134C45.9667 37.9237 44.9383 39.4225 40.1862 39.87C38.5441 39.8331 37.6484 38.3877 38.1667 37.16C37.9386 37.16 37.7064 37.1805 37.5032 37.2134C35.0028 37.9237 33.991 39.4225 29.2471 39.87C27.6631 39.8331 26.7674 38.3877 27.2567 37.16C27.0245 37.16 26.8213 37.1805 26.5891 37.2134C24.1177 37.9237 23.0768 39.4225 18.2915 39.87C16.6246 39.8331 15.7247 38.3877 16.2265 37.16C16.0191 37.16 15.7911 37.1805 15.592 37.2134C13.4026 37.8252 12.3617 39.0693 8.98632 39.6565Z" fill="white"/>
<path d="M31.3447 28.9519L32.4311 28.4346C32.4311 28.4346 32.2445 31.5511 32.5472 32.668C32.5472 32.668 32.9287 34.3474 33.4305 35.6613C33.8203 36.6796 34.1686 37.5009 34.0359 37.2832C34.0359 37.2832 32.3606 34.9797 31.8506 32.8938C31.8506 32.8938 31.2535 30.8777 31.3613 28.993L31.3447 28.9519Z" fill="#DBAC78"/>
<path d="M63.1668 30.886L64.1413 30.8039L63.8925 27.8968L57.5563 28.41L57.7968 31.3254L58.792 31.2433L58.622 29.2723L60.2932 29.1327L60.4051 30.537L61.4086 30.459L61.3008 29.0465L62.9885 28.8987L63.1668 30.886ZM62.9761 26.5212C63.3576 25.9546 63.4861 25.3017 63.3534 24.694C63.0424 23.1665 61.4791 22.3371 59.5592 22.7231C57.7015 23.0967 56.5694 24.5092 56.8846 26.0408C57.0048 26.6198 57.32 27.1577 57.8217 27.5478L58.535 27.0099C58.2613 26.7389 58.0083 26.4514 57.8673 25.8068C57.6683 24.8459 58.6303 23.9467 59.8246 23.7086C61.0644 23.4581 62.1675 23.9221 62.3789 24.924C62.4619 25.3346 62.3582 25.8889 62.1011 26.2667L62.9761 26.5212ZM58.0208 22.3946L61.616 20.7357L61.5123 19.7462L57.5812 21.5734C56.8224 21.906 56.2999 21.7007 56.0138 21.1217C55.7318 20.5592 55.9142 20.0788 56.6275 19.6928L60.4673 17.689L59.7334 17.0074L56.2004 18.8551C54.8776 19.5696 54.5707 20.4237 55.1264 21.5241C55.6654 22.6122 56.5487 23.0721 58.0208 22.3946ZM53.6335 16.9417L58.0208 13.9155L57.461 13.1271L52.2402 16.7323L54.0026 19.2042L54.8236 18.6293L53.6335 16.9417ZM53.6709 10.7825L54.55 10.4376C54.4214 9.90793 54.1975 9.40288 53.8036 9.04976C53.024 8.3394 51.9624 8.47079 51.2658 9.22632C49.8061 10.8236 51.7634 11.8665 50.9133 12.8027C50.5733 13.1682 50.0715 13.2708 49.6693 12.9095C49.4578 12.7206 49.321 12.2813 49.2795 11.9692L48.3797 12.3798C48.5041 12.9013 48.7404 13.3488 49.1178 13.6938C49.8849 14.3795 50.9714 14.244 51.7053 13.4515C53.0654 11.9528 51.1662 10.7702 52.0039 9.85455C52.3854 9.43983 52.8913 9.50553 53.2189 9.80117C53.4967 10.0558 53.5755 10.413 53.6709 10.7825ZM47.5545 12.2484L51.3321 7.16916L50.5442 6.60252L46.7666 11.6777L47.5545 12.2484ZM48.2304 7.1979C48.7238 6.31919 48.6741 5.35426 47.5586 4.73834L46.099 3.94176L42.9723 9.43573L43.8432 9.91614L45.083 7.71116L45.3484 7.85898C45.4728 7.92879 45.5433 8.03555 45.5516 8.21621L45.6428 11.0535L46.7044 10.9262L46.5344 8.14641C47.2144 8.208 47.8447 7.90004 48.2304 7.1979ZM47.3305 6.74212C46.9283 7.45658 46.3436 7.31287 46.0948 7.17326L45.564 6.88173L46.4971 5.23929L46.9947 5.51029C47.4259 5.75255 47.6167 6.21654 47.3305 6.74212ZM42.5867 5.81825C43.0967 5.9209 43.6649 5.53903 43.9551 4.73424C44.2744 3.83911 43.9054 2.98914 42.9516 2.65655L41.2598 2.05705L39.0703 7.98217L40.8824 8.62272C41.8154 8.95121 42.6738 8.55292 43.0304 7.56334C43.2916 6.84067 43.1424 6.15495 42.5784 5.83057L42.5867 5.81825ZM41.4629 5.92911C42.1389 6.16727 42.3503 6.5902 42.1347 7.18969C41.9523 7.69474 41.5293 7.90826 40.928 7.69063L40.306 7.47301L40.9529 5.74434L41.4629 5.92911ZM43.0304 4.56178C42.8065 5.16538 42.2757 5.26392 41.803 5.09557L41.2639 4.90259L41.8776 3.22319L42.4582 3.42849C43.0055 3.62148 43.2253 4.01977 43.0304 4.56178ZM39.4601 2.55389L39.655 1.60538L36.7647 1.02642L35.5 7.19379L38.3902 7.77686L38.5976 6.80371L36.6362 6.41774L36.9638 4.79583L38.3529 5.07915L38.552 4.106L37.1545 3.81036L37.4863 2.16792L39.4601 2.55389ZM34.6375 6.92279L34.7992 0.812904L33.8289 0.79648L33.7998 5.50208H33.7832L31.4113 0.624023L30.4949 0.931981L30.3415 7.04597L31.3077 7.05829L31.3201 2.39376L31.3325 2.37733L33.6505 7.22664L34.6375 6.92279ZM26.8458 7.50175L29.7568 7.02134L29.5951 6.03998L27.6254 6.36847L27.3393 4.73424L28.7408 4.50429L28.575 3.52293L27.1651 3.74466L26.8748 2.09812L28.8528 1.76142L28.6911 0.804692L25.7884 1.28921L26.8458 7.50175ZM24.9093 8.06018L23.3833 2.97272L24.7724 2.54979L24.4863 1.58485L20.7543 2.72635L21.0363 3.69129L22.4503 3.26014L23.9763 8.34761L24.9093 8.06018ZM19.5642 10.3842L20.2235 9.59587L17.0305 4.36469L16.2012 4.87795L18.739 8.85677L18.7224 8.86087L14.0781 6.02355L13.4768 6.78729L16.6656 12.0103L17.4991 11.5011L14.9696 7.57566V7.55103L19.5642 10.3842ZM15.9648 12.6549L11.9425 7.76454L11.1961 8.38456L15.2184 13.279L15.9648 12.6549ZM13.0207 14.6628L9.86088 14.1413L8.74126 11.2671L7.75849 11.5586L8.80761 13.9976L6.19104 13.4885L6.09566 14.5437L9.13105 15.0241L10.3004 18.0257L11.2666 17.7095L10.2051 15.1555L12.8963 15.6893L13.0207 14.6628ZM8.48002 17.689L5.0424 15.7222L4.28355 16.3833L8.04462 18.5184C8.75785 18.9414 8.92372 19.3561 8.60857 19.9227C8.30586 20.4729 7.86216 20.5427 7.12819 20.1814L3.27175 18.2146L3.12662 19.2042L6.6845 21.0067C8.03632 21.6678 8.85737 21.4913 9.45035 20.4114C10.0433 19.3479 9.88161 18.4938 8.48002 17.689ZM6.74255 24.1233L1.7043 22.3576L1.385 23.2733L7.38529 25.3633L8.37221 22.5055L7.41432 22.1811L6.74255 24.1233ZM1.4472 27.285L0.443698 27.1782L0.0456138 31.0421L1.04912 31.1529L1.19425 29.6953L6.51033 30.2619L6.60571 29.297L1.29792 28.7221L1.4472 27.285ZM0.974477 32.2985L0 32.356L0.182455 35.2714L6.52692 34.8731L6.34447 31.9618L5.34511 32.0152L5.48195 33.9902L3.80668 34.1011L3.71545 32.6927L2.72024 32.7502L2.79488 34.1668L1.11132 34.2777L0.974477 32.2985ZM7.28162 37.6488H0.273683C2.90684 52.7839 16.1846 64.2933 32.1702 64.2933C48.1474 64.2933 61.4294 52.7798 64.0584 37.6488H57.038C54.5666 49.113 44.3698 57.7071 32.1536 57.7071C19.9457 57.7071 9.74891 49.113 7.28162 37.6488ZM47.6167 59.7355L44.9711 55.1162L45.7258 54.6809L48.3714 59.3044L47.6167 59.7355ZM43.2792 55.9497L44.0671 55.576L46.3934 60.372L45.6055 60.7415L43.2792 55.9497ZM38.3073 57.7153L39.1201 57.4525L41.2473 59.9326L41.5127 56.7011L42.3503 56.4383L42.002 62.1294L38.3073 57.7153ZM35.3631 60.8031L33.3893 58.3764L34.2601 58.2614L35.7446 60.0846L36.7316 57.9699L37.6065 57.8878L36.2671 60.7169L38.241 63.1723L37.3743 63.2627L35.8898 61.4724L34.9029 63.5542L34.0362 63.6651L35.3631 60.8031ZM26.7048 63.2914L28.5086 58.089L30.0512 60.5157L31.9711 58.3723L32.929 63.7759L32.0624 63.7185L31.3616 60.3638L29.9351 61.9282L28.774 60.1626L27.5756 63.3736L26.7048 63.2914ZM23.3004 59.5918C23.6736 58.1793 24.76 57.2144 25.6847 57.4525C26.2984 57.625 26.6758 58.2943 26.7587 59.1278L25.8921 58.865C25.805 58.5817 25.6515 58.3477 25.4566 58.3189C24.9881 58.204 24.4117 58.865 24.1504 59.8177C23.9099 60.7744 24.0551 61.6449 24.5236 61.7557C24.731 61.8132 24.959 61.7024 25.1622 61.4683L26.0662 61.7229C25.5728 62.3922 24.9093 62.7699 24.2914 62.5934C23.3916 62.3675 22.923 61.0125 23.3004 59.5918ZM16.1183 59.366L19.6388 55.1162L20.2484 57.9165L22.7779 56.5862L21.7536 61.9939L20.9823 61.6161L21.5297 58.2614L19.6388 59.2182L19.1785 57.1651L16.902 59.7355L16.1183 59.366ZM63.1378 35.6039L64.1454 35.6491L64.2989 31.7647L63.2912 31.7196L63.2373 33.1896L57.8964 32.9473L57.8549 33.9122L63.2 34.1586L63.1378 35.6039Z" fill="#9E0621"/>
<path d="M97.1813 25.9792C97.1813 24.3121 96.6837 23.1706 95.6843 22.5547C94.685 21.9346 92.906 21.6308 90.3351 21.6308H88.0876V30.0812H90.3848C92.1555 30.0812 93.5198 29.9703 94.4694 29.7527C95.4272 29.5309 96.1115 29.1285 96.5427 28.5414C96.9657 27.946 97.1813 27.0919 97.1813 25.9792ZM108.058 25.9299C108.058 27.2315 107.834 28.4962 107.386 29.7362C106.93 30.9763 106.196 32.1301 105.205 33.1977C104.189 34.2776 102.837 35.1399 101.125 35.8092C99.4122 36.4744 97.4052 36.8111 95.0831 36.8111H88.0834V49.9588H77.4056V14.9009H95.0789C97.3969 14.9009 99.4081 15.2417 101.121 15.9192C102.833 16.5926 104.185 17.4713 105.201 18.5471C106.196 19.6229 106.926 20.7931 107.382 22.0578C107.83 23.3225 108.058 24.6159 108.058 25.9299Z" fill="#00427A"/>
<path d="M148.097 34.253C148.097 37.2504 147.529 39.8167 146.401 41.9273C145.269 44.0419 143.768 45.7131 141.906 46.949C140.04 48.1727 138.033 49.0596 135.877 49.6016C133.725 50.1395 131.573 50.4064 129.429 50.4064C126.426 50.4064 123.511 49.9054 120.687 48.8912C117.847 47.8811 115.479 46.1607 113.567 43.7299C111.664 41.3073 110.706 38.1497 110.706 34.253V14.9009H121.359V31.5224C121.359 33.83 121.695 35.7394 122.367 37.2504C123.047 38.7574 123.976 39.8619 125.174 40.5599C126.377 41.258 127.791 41.6111 129.429 41.6111C130.996 41.6111 132.381 41.2621 133.592 40.5723C134.803 39.8824 135.74 38.7861 136.416 37.2833C137.092 35.7804 137.424 33.8793 137.424 31.5676V14.9009H148.097V34.253Z" fill="#00427A"/>
<path d="M184.782 47.3309C183.318 48.0906 181.826 48.6942 180.287 49.1499C178.757 49.6016 177.206 49.926 175.651 50.1231C174.092 50.3161 172.479 50.4105 170.812 50.4105C167.727 50.4105 164.961 49.9958 162.527 49.1499C160.076 48.3041 157.961 47.0599 156.166 45.4134C154.366 43.771 153.022 41.8534 152.131 39.6525C151.235 37.4517 150.787 35.0373 150.787 32.4011C150.787 29.3832 151.314 26.7429 152.367 24.4722C153.425 22.2057 154.905 20.3251 156.8 18.8264C158.695 17.3276 160.86 16.219 163.294 15.5004C165.716 14.79 168.274 14.4287 170.965 14.4287C174.983 14.4287 179.541 15.3115 184.629 17.0813V26.3898C182.875 25.3058 181.141 24.4107 179.433 23.6921C177.72 22.9776 175.705 22.6163 173.391 22.6163C171.33 22.6163 169.406 23.0187 167.615 23.8358C165.832 24.6406 164.389 25.7985 163.302 27.2972C162.216 28.8001 161.664 30.5534 161.664 32.5572C161.664 34.331 162.137 35.9488 163.099 37.427C164.053 38.9011 165.376 40.0755 167.072 40.9501C168.768 41.8123 170.675 42.2476 172.806 42.2476C174.527 42.2476 176.153 42.0382 177.687 41.6317C179.217 41.217 180.511 40.7571 181.556 40.2479C182.601 39.7429 183.679 39.1475 184.786 38.4535V47.3309H184.782Z" fill="#00427A"/>
<path d="M207.721 25.9792C207.721 24.3121 207.219 23.1706 206.228 22.5547C205.233 21.9346 203.446 21.6308 200.875 21.6308H198.627V30.0812H200.924C202.699 30.0812 204.059 29.9703 205.017 29.7527C205.967 29.5309 206.655 29.1285 207.078 28.5414C207.509 27.946 207.721 27.0919 207.721 25.9792ZM218.598 25.9299C218.598 27.2315 218.374 28.4962 217.922 29.7362C217.47 30.9763 216.744 32.1301 215.741 33.1977C214.733 34.2776 213.377 35.1399 211.664 35.8092C209.956 36.4744 207.949 36.8111 205.627 36.8111H198.627V49.9588H187.949V14.9009H205.623C207.945 14.9009 209.952 15.2417 211.66 15.9192C213.377 16.5926 214.729 17.4713 215.736 18.5471C216.74 19.6229 217.47 20.7931 217.918 22.0578C218.374 23.3225 218.598 24.6159 218.598 25.9299Z" fill="#00427A"/>
</svg>
