<svg width="298" height="105" viewBox="0 0 298 105" fill="none" xmlns="http://www.w3.org/2000/svg">
<path d="M86.5002 32.0328V15.8013H70.9362V0.824219H30.9228V15.8013H15.3652V32.0391H1V72.7699H15.3652V89.0077H30.9292V103.985H70.9426V89.0077H86.5065V72.7699H100.872V32.0328H86.5002ZM94.447 69.089H81.1663V84.2751H66.8328V98.9671H36.0474L36.6816 84.2751H19.8112V69.089H5.89623V36.3726H19.8112V19.9193H34.7789V6.49447H66.2049V19.9193H81.1727V36.3726H94.4534V69.089H94.447Z" fill="url(#paint0_linear_4_4485)"/>
<path d="M86.5002 32.0328V15.8013H70.9362V0.824219H30.9228V15.8013H15.3652V32.0328H1V72.7636H15.3652V89.0014H30.9228V103.978H70.9362V89.0014H86.5002V72.7636H100.865V32.0328H86.5002Z" stroke="#231F20" stroke-miterlimit="10"/>
<path d="M94.448 69.0891H81.1673V84.2753H66.8338V98.9673H36.0484L36.6826 84.2753H19.8122V69.0891H5.89722V36.3727H19.8122V19.9195H34.7799V6.49463H66.1995V19.9195H81.1673V36.3727H94.448V69.0891Z" stroke="#231F20" stroke-width="0.5" stroke-miterlimit="10"/>
<path d="M76.2262 72.6305C68.7423 73.8849 61.0111 74.3727 53.432 74.208C47.8699 74.0876 41.5403 73.8215 36.3586 71.5661C31.0121 69.2346 27.7776 63.4504 26.6042 57.9828C24.2195 46.8324 30.2764 33.0401 41.9272 30.1384C46.6331 28.9664 51.6816 29.2768 56.451 29.8787C62.3366 30.6199 66.7318 34.4782 69.2941 39.7113C74.5138 50.3739 70.7147 63.3553 58.9181 67.0996C53.4003 68.8545 47.3498 68.3477 42.0921 65.9592C36.5426 63.4377 33.4919 59.1866 33.6378 52.9905C33.7647 47.5673 36.3143 41.1685 41.0836 38.2035C45.149 35.6756 50.7239 35.3145 55.1127 37.2088C63.364 40.763 64.3027 55.4106 56.21 59.7251C52.5758 61.6637 48.0982 61.1886 44.9271 58.5784C40.5572 54.9862 40.0942 49.2589 44.908 45.8884C46.3224 44.9001 48.5041 43.9688 50.2229 44.6973C52.0241 45.4576 54.117 48.5366 54.1487 50.5323C54.1868 52.7181 50.2736 54.3843 50.2482 51.8121C50.2165 48.7584 45.4598 48.7457 45.4915 51.8121C45.5423 56.3926 49.7916 58.8001 53.9775 57.438C59.0767 55.7718 59.8377 50.2282 57.5355 45.9644C54.561 40.4209 49.2335 38.1084 43.5127 41.1812C38.5214 43.8611 35.3375 49.7024 37.0436 55.3029C40.608 66.9982 56.8569 69.0636 63.6304 59.2816C67.4929 53.7001 67.0552 45.8694 64.4169 39.8697C61.9053 34.1488 55.4996 31.4435 49.5442 31.2978C42.6692 31.1268 36.4474 34.3325 32.7943 40.1485C28.9762 46.2242 27.5175 54.3589 30.3652 61.1062C33.3461 68.1576 41.1978 71.6801 48.4216 72.6368C55.4108 73.5618 62.6727 71.8449 68.2159 67.41C80.2218 57.8118 78.3762 37.7347 66.402 28.8206C60.8906 24.7216 53.1403 24.2781 46.4873 24.7026C39.9103 25.1207 33.5934 27.4078 29.1348 32.4255C18.854 43.9878 17.947 65.389 31.9698 74.5754C38.052 78.5605 46.8361 78.8519 53.8697 78.9786C60.5164 79.0926 67.1757 78.6175 73.7654 77.7559C75.0085 77.5911 76.2515 77.4264 77.4883 77.2237C80.5072 76.7042 79.2261 72.1236 76.2262 72.6305Z" fill="url(#paint1_linear_4_4485)"/>
<path d="M118.549 53.0984C118.549 50.4312 112.467 50.9824 112.467 46.915C112.467 44.8877 114.179 43.3418 116.615 43.3418C118.276 43.3418 119.488 43.969 120.116 44.5582L118.974 45.9774C118.422 45.4959 117.649 45.0017 116.488 45.0017C115.143 45.0017 114.351 45.7556 114.351 46.7883C114.351 49.4935 120.452 48.9614 120.452 52.9907C120.452 54.923 118.885 56.6146 115.974 56.6146C113.856 56.6146 112.454 55.8037 111.795 55.1955L112.879 53.6686C113.564 54.2388 114.611 54.9737 116.177 54.9737C117.737 54.9737 118.549 54.1501 118.549 53.0984Z" fill="black"/>
<path d="M123.114 43.5254H124.972V56.4308H123.114V43.5254Z" fill="black"/>
<path d="M134.759 52.0656H134.854L138.19 43.5254H141.082V56.4308H139.275V45.7175H139.18C138.444 47.5041 136.376 52.8766 135.641 54.6632H133.852L130.332 45.7175H130.224V56.4308H128.474V43.5254H131.423L134.759 52.0656Z" fill="black"/>
<path d="M144.596 43.5254H146.454V56.4308H144.596V43.5254Z" fill="black"/>
<path d="M151.655 45.7935C151.712 46.3637 151.75 48.5558 151.75 49.5314V56.4308H149.962V43.5254H152.41L156.26 50.7985C156.539 51.3497 157.642 53.4467 157.845 54.0043H157.953C157.896 53.2123 157.896 50.7288 157.896 50.1206V43.5254H159.646V56.4308H157.249L153.304 49.0119C153.025 48.4607 151.998 46.4144 151.757 45.7935H151.655Z" fill="black"/>
<path d="M167.77 43.3418C169.908 43.3418 170.979 44.1717 171.385 44.5392L170.187 45.9393C169.686 45.4578 168.969 44.9827 167.624 44.9827C165.506 44.9827 164.269 46.5285 164.269 49.9497C164.269 53.1871 165.468 54.9547 167.789 54.9547C169.058 54.9547 169.8 54.5302 170.237 54.0868L171.271 55.3919C170.719 55.9811 169.521 56.6083 167.567 56.6083C163.901 56.6083 162.373 54.0107 162.373 50.0764C162.373 45.9013 164.238 43.3418 167.77 43.3418Z" fill="black"/>
<path d="M183.099 43.5254V56.4308H181.241V50.7225H175.438V56.4308H173.592V43.5254H175.438V49.1196H181.241V43.5254H183.099Z" fill="black"/>
<path d="M186.619 43.5254H188.478V56.4308H186.619V43.5254Z" fill="black"/>
<path d="M193.215 56.4308H192.112V43.5254H193.215V56.4308ZM198.536 43.5254H199.843L195.105 50.0256L200.261 56.4308H198.822L193.792 50.0826V50.0066L198.536 43.5254Z" fill="black"/>
<path d="M203.508 56.4308H202.405V43.5254H203.508V56.4308ZM208.836 43.5254H210.142L205.405 50.0256L210.561 56.4308H209.121L204.092 50.0826V50.0066L208.836 43.5254Z" fill="black"/>
<path d="M220.482 52.2177V43.5254H221.585V52.1036C221.585 54.9736 219.943 56.6145 217.051 56.6145C214.247 56.6145 212.649 55.0306 212.649 52.2177V43.5254H213.753V52.0846C213.753 54.5111 215.135 55.5628 217.165 55.5628C219.175 55.5628 220.482 54.6632 220.482 52.2177Z" fill="black"/>
<path d="M226.189 44.8178V56.4308H225.136V43.5254H226.848L231.656 52.5281L233.058 55.1447H233.203V43.5254H234.237V56.4308H232.544L227.755 47.4661L226.335 44.8178H226.189Z" fill="black"/>
<path d="M242.273 43.5254L246.528 56.4308H245.349L244.042 52.4521H238.626L237.319 56.4308H236.159L240.414 43.5254H242.273ZM238.956 51.4257H243.712L242.07 46.4207L241.372 44.2856H241.296L240.611 46.3827L238.956 51.4257Z" fill="black"/>
<path d="M251.424 43.5254C254.056 43.5254 255.679 44.5771 255.679 47.1176C255.679 49.1956 254.278 50.4691 252.711 50.6148V50.6908C253.187 50.8936 253.669 51.299 254.24 52.2747L256.726 56.4371H255.4L253.003 52.3317C252.451 51.3941 251.804 50.9316 250.77 50.9316H249.534V56.4371H248.43V43.5254H251.424ZM249.546 49.9116H251.373C253.231 49.9116 254.544 49.1956 254.544 47.2443C254.544 45.274 253.383 44.5581 251.246 44.5581H249.553V49.9116H249.546Z" fill="black"/>
<path d="M263.734 43.5254L267.99 56.4308H266.81L265.503 52.4521H260.087L258.781 56.4308H257.62L261.876 43.5254H263.734ZM260.417 51.4257H265.174L263.531 46.4207L262.833 44.2856H262.757L262.072 46.3827L260.417 51.4257Z" fill="black"/>
<path d="M276.763 43.5254L272.507 51.6411V56.4244H271.404V51.6411L267.148 43.5254H268.436L271.956 50.4627H272.032L275.552 43.5254H276.763Z" fill="black"/>
<path d="M279.627 56.4308H278.524V43.5254H279.627V56.4308ZM284.955 43.5254H286.261L281.524 50.0256L286.68 56.4308H285.24L280.211 50.0826V50.0066L284.955 43.5254Z" fill="black"/>
<path d="M296.603 52.2177V43.5254H297.706V52.1036C297.706 54.9736 296.064 56.6145 293.172 56.6145C290.368 56.6145 288.77 55.0306 288.77 52.2177V43.5254H289.874V52.0846C289.874 54.5111 291.256 55.5628 293.286 55.5628C295.296 55.5628 296.603 54.6632 296.603 52.2177Z" fill="black"/>
<defs>
<linearGradient id="paint0_linear_4_4485" x1="18.0565" y1="19.5609" x2="85.8544" y2="87.4315" gradientUnits="userSpaceOnUse">
<stop stop-color="#6FA24F"/>
<stop offset="0.1249" stop-color="#A9C354"/>
<stop offset="0.2701" stop-color="#F1EB5B"/>
<stop offset="0.3895" stop-color="#EAAF70"/>
<stop offset="0.4905" stop-color="#E37982"/>
<stop offset="0.7617" stop-color="#D35E90"/>
<stop offset="1" stop-color="#5A446C"/>
</linearGradient>
<linearGradient id="paint1_linear_4_4485" x1="34.1655" y1="74.2186" x2="71.5761" y2="36.7679" gradientUnits="userSpaceOnUse">
<stop stop-color="#6FA24F"/>
<stop offset="0.1249" stop-color="#A9C354"/>
<stop offset="0.2701" stop-color="#F1EB5B"/>
<stop offset="0.3895" stop-color="#EAAF70"/>
<stop offset="0.4905" stop-color="#E37982"/>
<stop offset="0.7617" stop-color="#D35E90"/>
<stop offset="1" stop-color="#5A446C"/>
</linearGradient>
</defs>
</svg>
