<svg width="168" height="169" viewBox="0 0 168 169" fill="none" xmlns="http://www.w3.org/2000/svg">
<path d="M91.0685 123.126C91.0685 108.799 91.0956 94.4715 91.028 80.1444C91.019 78.54 91.5237 78.2335 93.0064 78.238C117.333 78.2831 141.664 78.2876 165.99 78.229C167.676 78.2245 167.986 78.7203 167.986 80.2977C167.937 108.839 167.932 137.385 167.995 165.927C168 167.698 167.482 168.014 165.841 168.009C141.628 167.955 117.409 167.973 93.1956 167.968C90.7936 167.968 91.073 168.23 91.073 165.778C91.0685 151.555 91.0685 137.34 91.0685 123.126ZM144.922 123.13C144.922 113.301 144.922 103.472 144.922 93.6423C144.922 91.0824 144.183 89.8836 142.583 89.8476C140.902 89.807 140.118 91.0238 140.118 93.6828C140.118 113.287 140.118 132.887 140.118 152.492C140.118 153.051 140.104 153.619 140.176 154.173C140.357 155.539 141.204 156.345 142.538 156.345C143.791 156.345 144.633 155.588 144.832 154.299C144.917 153.749 144.917 153.182 144.917 152.623C144.922 142.789 144.922 132.96 144.922 123.13ZM114.102 122.941C114.102 133.05 114.093 143.163 114.106 153.272C114.111 155.228 114.994 156.341 116.463 156.372C117.919 156.404 118.847 155.255 118.901 153.353C118.91 153.015 118.906 152.677 118.906 152.343C118.906 132.851 118.906 113.364 118.906 93.8721C118.906 93.4215 118.924 92.9708 118.897 92.5246C118.788 90.8886 117.81 89.825 116.454 89.8431C115.156 89.8611 114.232 90.8751 114.111 92.4435C114.075 92.8897 114.102 93.3403 114.102 93.791C114.102 103.508 114.102 113.224 114.102 122.941ZM127.148 123.09C127.148 125.785 127.148 128.475 127.148 131.17C127.148 135.096 127.126 139.026 127.162 142.951C127.175 144.538 128.094 145.457 129.491 145.47C130.893 145.479 131.781 144.56 131.871 142.987C131.893 142.595 131.875 142.203 131.875 141.811C131.875 130.868 131.875 119.93 131.875 108.988C131.875 107.023 131.902 105.058 131.857 103.098C131.83 101.908 131.24 101.051 130.023 100.813C128.856 100.583 127.932 100.966 127.373 102.088C127.08 102.674 127.148 103.291 127.148 103.904C127.144 110.299 127.148 116.695 127.148 123.09ZM101.159 122.945C101.159 125.915 101.145 128.89 101.163 131.86C101.177 133.726 102.006 134.69 103.516 134.677C105.016 134.663 105.873 133.676 105.877 131.833C105.895 126.001 105.895 120.174 105.877 114.342C105.873 112.544 104.944 111.485 103.493 111.494C102.037 111.503 101.172 112.539 101.159 114.369C101.145 117.226 101.159 120.088 101.159 122.945ZM153.133 123.126C153.133 126.042 153.115 128.953 153.137 131.869C153.151 133.694 154.021 134.681 155.53 134.677C157.045 134.672 157.851 133.721 157.856 131.828C157.869 126.001 157.869 120.174 157.856 114.342C157.851 112.485 157.008 111.525 155.49 111.539C153.985 111.552 153.151 112.53 153.137 114.383C153.119 117.298 153.133 120.214 153.133 123.126Z" fill="#F3705A"/>
<path d="M76.9089 44.8742C76.9089 59.2014 76.8909 73.5285 76.9405 87.8511C76.945 89.2933 76.625 89.7665 75.0883 89.762C50.6492 89.7124 26.2147 89.7169 1.77558 89.7575C0.351512 89.762 0 89.3293 0 87.9503C0.0360525 59.2419 0.0360525 30.5336 0 1.82529C0 0.464233 0.319966 -0.00447465 1.76206 3.21463e-05C26.2552 0.0405934 50.7484 0.0405934 75.246 3.21463e-05C76.607 3.21463e-05 76.9405 0.419165 76.936 1.72614C76.8954 16.1073 76.9089 30.493 76.9089 44.8742ZM38.2967 15.873C47.1161 15.873 55.9309 15.864 64.7502 15.882C65.611 15.882 66.4537 15.8279 67.2063 15.4403C68.2068 14.9221 68.6529 13.9936 68.4141 12.903C68.1977 11.934 67.684 11.213 66.4853 11.1228C65.264 11.0327 64.0607 10.8073 62.8169 10.8118C47.089 10.8299 31.3656 10.8254 15.6378 10.8254C13.9027 10.8254 12.1812 10.8614 10.4507 11.1138C9.18887 11.2986 8.6571 12.0197 8.49937 13.0652C8.33713 14.1514 8.81483 15.0437 9.87387 15.5124C10.658 15.8595 11.4962 15.8865 12.348 15.882C21.0006 15.8685 29.6486 15.873 38.2967 15.873ZM38.4184 40.8362C45.665 40.8362 52.9115 40.8362 60.1581 40.8362C62.1815 40.8362 64.2049 40.8452 66.2239 40.8271C67.3776 40.8181 68.1707 40.2413 68.4141 39.1146C68.6529 38.0104 68.1662 37.1451 67.2514 36.5231C66.6114 36.086 65.8769 36.1085 65.1423 36.1085C47.3369 36.113 29.527 36.1085 11.7216 36.113C9.66206 36.113 8.42726 37.1 8.46332 38.6819C8.49486 40.1917 9.43223 40.8316 11.6224 40.8316C20.5544 40.8362 29.4864 40.8362 38.4184 40.8362ZM38.4725 48.9259C29.3737 48.9259 20.2705 48.9214 11.1718 48.9304C9.40519 48.9304 8.53092 49.6379 8.46332 51.0215C8.39572 52.4502 9.52687 53.5543 11.1582 53.6445C11.2709 53.649 11.3836 53.6445 11.4962 53.6445C29.4729 53.6445 47.4496 53.649 65.4262 53.64C67.319 53.64 68.5357 52.5674 68.4726 51.0305C68.4096 49.5658 67.5037 48.9259 65.4397 48.9259C56.4492 48.9214 47.4631 48.9259 38.4725 48.9259ZM38.504 66.1238C47.4856 66.1238 56.4672 66.1238 65.4442 66.1238C67.3145 66.1238 68.4726 65.2134 68.4726 63.7668C68.4726 62.3426 67.2874 61.4097 65.3947 61.4097C47.4315 61.4007 29.4729 61.4007 11.5098 61.4097C9.68459 61.4097 8.49937 62.3832 8.45881 63.8434C8.42276 65.1954 9.68009 66.1238 11.5593 66.1238C20.5454 66.1283 29.527 66.1238 38.504 66.1238ZM38.6437 23.6337C29.5991 23.6337 20.5544 23.6337 11.5098 23.6337C9.73867 23.6337 8.49937 24.5306 8.46332 25.806C8.42726 27.2572 9.63502 28.3433 11.4106 28.3433C29.4459 28.3523 47.4766 28.3523 65.5118 28.3433C67.2919 28.3433 68.5042 27.2707 68.4726 25.815C68.4456 24.526 67.2108 23.6292 65.4397 23.6292C56.5077 23.6337 47.5757 23.6337 38.6437 23.6337ZM29.4323 78.6077C35.5567 78.6077 41.6812 78.6122 47.8011 78.6032C49.6037 78.5986 50.3608 77.846 50.2707 76.2145C50.1895 74.7048 49.0539 73.889 46.9854 73.889C35.4666 73.8845 23.9524 73.889 12.4336 73.889C11.8162 73.889 11.2168 74.0062 10.6129 74.1009C9.10325 74.3352 8.38671 75.2185 8.50388 76.6247C8.62555 78.0804 9.5494 78.6482 11.0636 78.6347C17.1835 78.5716 23.3079 78.6077 29.4323 78.6077Z" fill="#FEF4F4"/>
<path d="M62.2852 153.127C58.0715 153.127 53.8624 153.15 49.6488 153.123C40.0949 153.06 33.1142 146.038 33.0736 136.475C33.0601 132.824 33.0376 129.174 33.0917 125.523C33.1097 124.482 32.7762 124.176 31.7487 124.194C28.6031 124.252 25.4576 124.18 22.3165 124.234C21.3025 124.252 20.8293 123.946 20.978 122.9C20.987 122.846 20.987 122.788 20.978 122.734C20.2074 118.484 21.7036 115.559 25.453 113.175C29.6982 110.475 33.5198 107.104 37.481 103.967C38.2472 103.359 38.7023 103.368 39.4729 103.972C44.642 108.023 49.847 112.025 55.0611 116.023C55.6921 116.505 56.0075 117.028 55.976 117.857C55.9174 119.538 55.9039 121.228 55.976 122.909C56.021 123.968 55.6154 124.252 54.615 124.234C51.528 124.185 48.4365 124.266 45.3495 124.189C44.1733 124.162 43.8128 124.509 43.8398 125.695C43.9119 129.345 43.8488 132.996 43.8713 136.646C43.8939 140.058 46.1607 142.32 49.6082 142.329C58.3689 142.352 67.1297 142.374 75.8904 142.302C77.3371 142.289 77.6705 142.726 77.6165 144.091C77.5083 146.669 77.5353 149.256 77.6075 151.839C77.639 152.898 77.292 153.164 76.2735 153.15C71.6092 153.1 66.9449 153.127 62.2852 153.127Z" fill="#66C6B9"/>
<path d="M105.697 14.8678C109.965 14.8678 114.232 14.8453 118.5 14.8724C127.752 14.9309 134.814 21.9525 134.899 31.178C134.935 34.9411 134.94 38.7043 134.886 42.4675C134.872 43.5041 135.192 43.8195 136.224 43.8015C139.37 43.7429 142.515 43.815 145.656 43.7609C146.666 43.7429 147.148 44.0404 146.995 45.0904C146.986 45.1445 146.986 45.2031 146.995 45.2572C147.748 49.4981 146.292 52.4365 142.529 54.8206C138.279 57.5112 134.462 60.8913 130.501 64.0235C129.73 64.6319 129.284 64.6184 128.514 64.01C123.399 59.9809 118.243 56.0014 113.07 52.0489C112.326 51.4811 111.952 50.9222 112.001 49.9578C112.078 48.3308 112.078 46.6994 112.001 45.0724C111.952 44.0043 112.376 43.7384 113.371 43.7564C116.458 43.806 119.55 43.7204 122.637 43.8015C123.822 43.833 124.165 43.4635 124.138 42.2872C124.066 38.6367 124.133 34.9862 124.106 31.3357C124.084 27.9331 121.799 25.6661 118.369 25.6616C109.663 25.6436 100.96 25.6075 92.2538 25.6977C90.6449 25.7157 90.2979 25.2109 90.3655 23.7327C90.4782 21.2089 90.4511 18.6761 90.3745 16.1523C90.343 15.0887 90.699 14.8318 91.713 14.8408C96.3773 14.8949 101.037 14.8678 105.697 14.8678Z" fill="#66C6B9"/>
<path d="M144.922 123.13C144.922 132.96 144.922 142.789 144.917 152.618C144.917 153.177 144.917 153.745 144.832 154.295C144.629 155.584 143.791 156.341 142.538 156.341C141.199 156.341 140.352 155.534 140.177 154.169C140.104 153.614 140.118 153.046 140.118 152.488C140.113 132.883 140.113 113.283 140.118 93.6783C140.118 91.0193 140.902 89.8025 142.583 89.843C144.183 89.8836 144.922 91.0779 144.922 93.6377C144.922 103.467 144.922 113.301 144.922 123.13Z" fill="#FFCCCC"/>
<path d="M114.102 122.941C114.102 113.224 114.102 103.508 114.102 93.791C114.102 93.3403 114.079 92.8896 114.111 92.4434C114.232 90.8751 115.161 89.861 116.454 89.843C117.81 89.825 118.788 90.8886 118.897 92.5245C118.924 92.9707 118.906 93.4214 118.906 93.8721C118.906 113.364 118.906 132.851 118.906 152.343C118.906 152.681 118.915 153.019 118.901 153.353C118.847 155.255 117.914 156.404 116.463 156.372C114.994 156.341 114.111 155.228 114.106 153.272C114.093 143.163 114.102 133.054 114.102 122.941Z" fill="#FFCCCC"/>
<path d="M127.148 123.09C127.148 116.695 127.148 110.299 127.153 103.9C127.153 103.287 127.085 102.674 127.378 102.083C127.937 100.961 128.861 100.583 130.028 100.808C131.244 101.047 131.835 101.903 131.862 103.093C131.902 105.058 131.88 107.018 131.88 108.983C131.88 119.926 131.88 130.864 131.88 141.806C131.88 142.198 131.898 142.595 131.875 142.983C131.785 144.556 130.897 145.475 129.496 145.466C128.094 145.457 127.18 144.533 127.166 142.947C127.13 139.021 127.153 135.091 127.153 131.166C127.148 128.475 127.148 125.785 127.148 123.09Z" fill="#FFCCCC"/>
<path d="M101.159 122.945C101.159 120.088 101.145 117.226 101.163 114.369C101.177 112.544 102.038 111.507 103.498 111.494C104.953 111.485 105.877 112.539 105.882 114.342C105.9 120.174 105.9 126.001 105.882 131.833C105.877 133.676 105.021 134.663 103.52 134.677C102.01 134.69 101.177 133.726 101.168 131.86C101.145 128.89 101.159 125.915 101.159 122.945Z" fill="#FFCCCC"/>
<path d="M153.133 123.126C153.133 120.21 153.119 117.298 153.137 114.383C153.151 112.53 153.985 111.552 155.49 111.539C157.008 111.525 157.851 112.485 157.856 114.342C157.869 120.169 157.869 125.997 157.856 131.828C157.851 133.717 157.045 134.668 155.53 134.677C154.021 134.681 153.151 133.694 153.137 131.869C153.119 128.953 153.133 126.042 153.133 123.126Z" fill="#FFCCCC"/>
<path d="M38.2967 15.8729C29.6486 15.8729 20.9961 15.8684 12.348 15.8819C11.4962 15.8819 10.658 15.8549 9.87387 15.5124C8.81483 15.0482 8.33713 14.1558 8.49937 13.0652C8.6571 12.0196 9.18436 11.2985 10.4507 11.1137C12.1812 10.8613 13.9027 10.8253 15.6378 10.8253C31.3656 10.8253 47.089 10.8343 62.8169 10.8118C64.0562 10.8118 65.264 11.0326 66.4852 11.1227C67.684 11.2084 68.1977 11.934 68.4141 12.9029C68.6574 13.9936 68.2113 14.922 67.2063 15.4403C66.4582 15.8278 65.611 15.8864 64.7502 15.8819C55.9354 15.8684 47.1161 15.8729 38.2967 15.8729Z" fill="#EEE1DD"/>
<path d="M38.4184 40.836C29.4864 40.836 20.5544 40.836 11.6224 40.836C9.43223 40.836 8.49486 40.196 8.46332 38.6863C8.42726 37.1044 9.66206 36.1174 11.7216 36.1174C29.527 36.1129 47.3369 36.1174 65.1423 36.1129C65.8769 36.1129 66.6114 36.0858 67.2514 36.5275C68.1662 37.1539 68.6529 38.0147 68.4141 39.1189C68.1707 40.2456 67.3776 40.8225 66.2239 40.8315C64.2004 40.8495 62.1815 40.8405 60.1581 40.8405C52.9115 40.836 45.665 40.836 38.4184 40.836Z" fill="#EEE1DD"/>
<path d="M38.4725 48.9258C47.4586 48.9258 56.4492 48.9213 65.4352 48.9258C67.4992 48.9258 68.4051 49.5658 68.4681 51.0305C68.5312 52.5673 67.319 53.6399 65.4217 53.6399C47.445 53.6489 29.4684 53.6444 11.4917 53.6444C11.3791 53.6444 11.2664 53.6489 11.1537 53.6444C9.51785 53.5498 8.39121 52.4501 8.45881 51.0215C8.52641 49.6379 9.39617 48.9348 11.1673 48.9303C20.275 48.9168 29.3738 48.9258 38.4725 48.9258Z" fill="#EEE1DD"/>
<path d="M38.504 66.1237C29.5225 66.1237 20.5409 66.1237 11.5638 66.1237C9.68459 66.1237 8.42727 65.1908 8.46332 63.8433C8.50388 62.3831 9.6891 61.4096 11.5143 61.4096C29.4774 61.4006 47.436 61.4006 65.3992 61.4096C67.2919 61.4096 68.4772 62.347 68.4772 63.7667C68.4772 65.2133 67.319 66.1237 65.4487 66.1237C56.4672 66.1282 47.4856 66.1237 38.504 66.1237Z" fill="#EEE1DD"/>
<path d="M38.6437 23.6338C47.5757 23.6338 56.5077 23.6338 65.4442 23.6338C67.2153 23.6338 68.4501 24.5352 68.4772 25.8196C68.5042 27.2753 67.2964 28.3479 65.5163 28.3479C47.4811 28.3569 29.4504 28.3569 11.4151 28.3479C9.63953 28.3479 8.42726 27.2618 8.46782 25.8106C8.49937 24.5306 9.74318 23.6383 11.5143 23.6383C20.5544 23.6338 29.5991 23.6338 38.6437 23.6338Z" fill="#EEE1DD"/>
<path d="M29.4323 78.6075C23.3079 78.6075 17.1835 78.5715 11.0636 78.6346C9.54939 78.6481 8.62555 78.0803 8.50387 76.6246C8.3867 75.2139 9.10324 74.3306 10.6129 74.1007C11.2213 74.0061 11.8207 73.8889 12.4336 73.8889C23.9524 73.8889 35.4666 73.8889 46.9854 73.8889C49.0584 73.8889 50.1895 74.7046 50.2707 76.2144C50.3608 77.8504 49.6037 78.603 47.8011 78.603C41.6767 78.6121 35.5522 78.6075 29.4323 78.6075Z" fill="#EEE1DD"/>
</svg>
