<svg width="161" height="142" viewBox="0 0 161 142" fill="none" xmlns="http://www.w3.org/2000/svg">
<path d="M0.00418922 33.216C0.816899 31.3537 0.829467 29.2947 1.45366 27.3738C6.26708 12.6344 16.2542 3.57811 31.4611 0.661193C49.6884 -2.83743 67.6225 8.01835 73.5544 25.5784C76.8807 35.4257 76.1559 45.0804 71.397 54.3459C70.7309 55.639 71.0744 56.7899 71.2294 57.9742C71.8452 62.6112 72.5448 67.2397 73.2612 71.8641C73.412 72.8434 73.1439 73.0359 72.2013 72.8936C67.0025 72.1027 61.7994 71.3787 56.6006 70.5961C56.0351 70.5124 55.6036 70.6588 55.1218 70.9058C40.7528 78.2336 24.0713 75.9696 12.2493 65.1138C5.53816 58.9493 1.57096 51.362 0.310003 42.3476C0.2723 42.0839 0.251354 41.8287 0 41.6738C0.00418922 38.8531 0.00418922 36.0367 0.00418922 33.216ZM38.4403 18.8114C37.5313 18.8114 36.9909 18.8951 36.4882 18.7946C35.0261 18.51 34.3391 19.2382 33.8112 20.4979C33.0697 22.2723 32.1732 23.9882 31.327 25.7166C27.6531 33.2034 24.0043 40.6987 20.2675 48.1563C19.6684 49.349 19.8527 49.8345 21.0341 50.345C22.9947 51.1946 24.8966 52.1781 26.7859 53.1783C27.7201 53.6721 28.2186 53.6428 28.6585 52.538C29.2743 50.9937 30.1331 49.5499 30.8243 48.0308C31.172 47.2649 31.637 46.951 32.5 46.9762C34.4312 47.0389 36.3625 46.9845 38.2937 46.9971C40.3255 47.0138 42.7217 46.4028 44.2885 47.2733C45.9349 48.1856 46.3915 50.7426 47.2419 52.6342C47.7069 53.6721 48.1887 53.6386 49.0265 53.2034C50.9745 52.199 52.9183 51.1862 54.9207 50.3032C56.056 49.801 56.1691 49.3114 55.6203 48.2065C51.251 39.3805 46.89 30.546 42.6756 21.6446C41.6702 19.5186 40.6481 18.0497 38.4403 18.8114Z" fill="#80AAFE"/>
<path d="M80.5638 140.643C80.061 141.154 79.8516 140.568 79.6128 140.342C78.5906 139.375 77.5601 138.409 76.6091 137.375C73.2619 133.751 68.9303 132.483 64.2132 131.805C57.3596 130.817 51.1093 132.529 45.0014 135.37C36.5978 139.283 27.7376 141.066 18.4711 140.962C12.3171 140.895 6.15892 140.949 0.00495148 140.949C0.00495148 140.844 0.00495148 140.74 0.00495148 140.635C1.5801 138.158 2.67349 135.429 4.06431 132.851C4.32823 132.366 4.43296 131.759 5.01526 131.495C10.8006 131.499 16.5901 131.562 22.3754 131.47C24.4449 131.437 26.5186 131.081 28.5755 130.767C34.4613 129.871 39.811 127.377 45.2318 125.101C54.49 121.209 63.8571 121.288 73.3206 124.272C75.8299 125.063 77.9497 126.59 80.2537 127.762C80.2537 127.821 80.2496 127.875 80.237 127.934C80.2412 131.633 80.2328 135.329 80.2537 139.028C80.2621 139.572 80.0485 140.187 80.5638 140.643Z" fill="#FEA64E"/>
<path d="M160.498 37.2959C160.49 55.7641 146.996 71.5916 129.062 74.6048C120.906 75.9774 113.168 74.814 105.833 71.0643C104.664 70.4658 103.617 70.6877 102.515 70.8383C97.7647 71.4953 93.0183 72.1733 88.2761 72.9015C87.3293 73.048 87.078 72.8387 87.2204 71.8804C87.9787 66.7789 88.6699 61.6691 89.4449 56.5718C89.5622 55.7934 89.4491 55.1824 89.1014 54.5002C78.6116 33.7554 89.026 8.90508 111.179 1.79065C133.155 -5.26938 156.648 9.30684 160.096 32.1693C160.373 33.9688 160.599 35.7893 160.498 37.2959ZM113.282 33.0146C113.282 32.977 113.282 32.9435 113.282 32.9058C111.975 32.9058 110.668 32.9309 109.365 32.8975C108.69 32.8807 108.447 33.1318 108.456 33.8056C108.481 36.3082 108.485 38.815 108.451 41.3176C108.443 42.0625 108.699 42.3178 109.444 42.3094C111.949 42.276 114.459 42.2801 116.964 42.3052C117.638 42.3136 117.894 42.0709 117.873 41.3971C117.839 40.0914 117.911 38.7857 117.852 37.4842C117.785 35.9943 118.531 34.0023 117.521 33.1611C116.666 32.4455 114.735 33.0146 113.282 33.0146ZM132.112 33.0314C132.112 32.9895 132.112 32.9477 132.112 32.9058C130.86 32.9058 129.603 32.9435 128.35 32.8933C127.558 32.864 127.236 33.09 127.253 33.9395C127.299 36.3919 127.303 38.8443 127.253 41.2967C127.236 42.1839 127.634 42.322 128.384 42.3094C130.784 42.2801 133.189 42.255 135.589 42.3178C136.553 42.3429 136.72 41.9244 136.683 41.1084C136.632 39.9115 136.716 38.7062 136.657 37.5093C136.586 36.0153 137.332 34.0232 136.339 33.1779C135.501 32.4622 133.566 33.0314 132.112 33.0314Z" fill="#59C26A"/>
<path d="M80.2579 127.762C77.9497 126.59 75.8341 125.063 73.3248 124.272C63.8571 121.288 54.49 121.213 45.236 125.1C39.8151 127.377 34.4655 129.871 28.5796 130.767C26.5227 131.081 24.4491 131.437 22.3796 131.47C16.5943 131.562 10.8048 131.499 5.01944 131.495C4.96917 130.884 5.29174 130.394 5.54728 129.888C8.15717 124.669 10.8006 119.468 13.356 114.22C13.888 113.123 14.5122 112.717 15.7397 112.734C22.3419 112.834 28.919 112.575 35.362 110.897C38.7595 110.014 41.8888 108.52 44.9553 106.85C48.0302 105.172 51.2894 104.117 54.7958 103.644C60.3465 102.895 65.6417 103.778 70.8531 105.594C71.272 105.741 71.7119 106.092 72.1141 105.553C73.6138 107.264 75.876 107.775 77.669 109.047C78.4608 109.608 79.0347 110.675 80.237 110.591C80.2412 110.687 80.2454 110.784 80.2621 110.884C80.2537 116.513 80.2537 122.138 80.2579 127.762Z" fill="#FEF4F4"/>
<path d="M80.2579 127.762C80.2537 122.138 80.2537 116.513 80.2496 110.884C82.717 109.085 85.2012 107.31 88.075 106.189C88.1839 106.08 88.2929 105.971 88.4018 105.866L88.3934 105.871C90.9069 105.255 93.3158 104.28 95.8879 103.841C103.169 102.598 110.077 103.56 116.52 107.264C120.717 109.679 125.2 111.165 129.997 111.855C135.003 112.575 140.026 112.83 145.069 112.755C145.84 112.742 146.452 112.822 146.858 113.646C149.648 119.3 152.489 124.933 155.3 130.579C155.434 130.846 155.438 131.177 155.505 131.483C149.979 131.487 144.454 131.524 138.928 131.483C137.424 131.47 135.92 131.248 134.42 131.093C128.606 130.495 123.189 128.532 117.915 126.143C111.807 123.376 105.498 121.769 98.7157 122.142C92.0422 122.51 85.7332 123.862 80.2454 127.929C80.2537 127.875 80.2579 127.821 80.2579 127.762Z" fill="#EEE1DC"/>
<path d="M80.2412 127.934C85.7249 123.866 92.038 122.514 98.7115 122.146C105.494 121.773 111.799 123.38 117.911 126.147C123.185 128.532 128.597 130.499 134.416 131.097C135.916 131.252 137.42 131.474 138.924 131.487C144.449 131.528 149.975 131.495 155.501 131.487C156.355 131.968 156.489 132.918 156.887 133.68C158.106 136.019 159.254 138.396 160.528 140.953C159.334 140.953 158.362 140.953 157.386 140.953C152.53 140.953 147.675 140.84 142.824 140.978C133.004 141.259 123.704 139.212 114.794 135.157C111.191 133.516 107.538 131.901 103.517 131.717C97.3164 131.432 91.1457 131.629 85.9259 135.63C83.9947 137.111 82.3442 138.965 80.5679 140.647C80.0485 140.187 80.2663 139.576 80.2621 139.028C80.237 135.328 80.2454 131.629 80.2412 127.934Z" fill="#FE7734"/>
<path d="M88.075 106.189C85.2012 107.314 82.717 109.085 80.2495 110.884C80.237 110.788 80.2286 110.692 80.2244 110.591C80.2286 107.344 80.2328 104.092 80.2412 100.845C82.9558 96.5131 86.2527 92.7257 90.6346 89.9971C96.2314 86.5068 102.352 84.791 108.929 85.2681C114.157 85.6489 119.167 87.2183 123.855 89.5158C130.755 92.9015 137.96 94.4248 145.618 93.9854C147.076 93.9017 148.542 94.0021 150.004 93.9644C150.813 93.9435 151.119 94.2406 151.106 95.0567C151.073 97.4547 151.089 99.8569 151.098 102.259C151.102 102.899 151.027 103.393 150.193 103.376C143.7 103.222 137.173 103.891 130.755 102.205C126.39 101.058 122.343 99.1538 118.221 97.417C114.543 95.8686 110.73 94.6675 106.763 94.6884C102.092 94.7177 97.7563 96.1741 94.0321 99.1538C91.6987 101.02 89.5287 103.012 88.3934 105.875L88.4018 105.871C88.2929 105.975 88.1839 106.08 88.075 106.189Z" fill="#E0D2CD"/>
<path d="M80.2412 100.849C80.237 104.096 80.2328 107.348 80.2244 110.595C79.0221 110.679 78.4482 109.612 77.6564 109.051C75.8634 107.779 73.6013 107.268 72.1015 105.557C70.8322 102.836 68.6957 100.886 66.3916 99.0825C62.3825 95.948 57.7911 94.4037 52.7389 94.6506C48.7633 94.8431 45.0224 96.1865 41.3652 97.7266C37.8211 99.2164 34.3775 100.953 30.6114 101.912C26.8076 102.878 22.9745 103.38 19.0575 103.372C16.2382 103.364 13.4188 103.347 10.5995 103.385C9.7449 103.397 9.37624 103.138 9.393 102.23C9.43489 99.8818 9.44746 97.5341 9.38881 95.1863C9.36368 94.1903 9.77003 93.9434 10.6875 93.9601C13.3476 94.002 16.0162 93.9183 18.6763 93.9852C24.3653 94.1359 29.7024 92.7967 34.8048 90.3694C39.4256 88.1723 44.2013 86.3519 49.2744 85.5944C56.3039 84.5481 62.9104 85.992 69.0643 89.5366C73.8358 92.2861 77.3171 96.287 80.2412 100.849Z" fill="#EEE1DC"/>
<path d="M38.4411 18.811C40.653 18.0493 41.6752 19.5224 42.6806 21.6484C46.8949 30.5498 51.2559 39.3801 55.6253 48.2103C56.1741 49.3152 56.061 49.8048 54.9257 50.307C52.9232 51.19 50.9752 52.2028 49.0314 53.2072C48.1894 53.6424 47.7118 53.6717 47.2468 52.638C46.3964 50.7464 45.9398 48.1936 44.2934 47.2771C42.7267 46.4066 40.3304 47.0176 38.2987 47.0009C36.3674 46.9841 34.4362 47.0386 32.505 46.98C31.642 46.9507 31.177 47.2645 30.8293 48.0346C30.138 49.5537 29.2793 50.9975 28.6634 52.5418C28.2236 53.6466 27.725 53.6717 26.7908 53.1821C24.9015 52.1819 22.9954 51.2026 21.039 50.3489C19.8577 49.8341 19.6734 49.3528 20.2724 48.1601C24.005 40.7025 27.6538 33.2031 31.3278 25.7162C32.1782 23.9836 33.0705 22.272 33.812 20.4975C34.3398 19.2379 35.0227 18.5139 36.4889 18.7943C36.9916 18.8905 37.5278 18.811 38.4411 18.811ZM37.9258 33.5169C37.2639 35.0947 35.9988 36.2665 36.3632 37.342C36.6062 38.0618 38.4201 37.568 39.5345 37.5345C39.5722 37.5345 39.6099 37.4801 39.7816 37.3546C39.2412 36.2372 38.6882 35.0863 37.9258 33.5169Z" fill="#FDF4F4"/>
<path d="M113.282 33.0145C114.735 33.0145 116.662 32.4495 117.521 33.161C118.531 34.0021 117.785 35.9942 117.852 37.484C117.911 38.7856 117.839 40.0913 117.873 41.397C117.89 42.0707 117.638 42.3135 116.964 42.3051C114.459 42.28 111.949 42.2758 109.444 42.3093C108.699 42.3177 108.443 42.0624 108.451 41.3175C108.485 38.8149 108.481 36.3081 108.456 33.8055C108.447 33.1317 108.69 32.8764 109.365 32.8973C110.668 32.9308 111.975 32.9057 113.282 32.9057C113.282 32.9392 113.282 32.9768 113.282 33.0145Z" fill="#EEE1DC"/>
<path d="M132.112 33.0312C133.566 33.0312 135.501 32.4621 136.343 33.1777C137.336 34.0231 136.59 36.0151 136.662 37.5091C136.72 38.706 136.637 39.9113 136.687 41.1082C136.72 41.9284 136.557 42.3428 135.593 42.3176C133.193 42.2549 130.788 42.28 128.388 42.3093C127.638 42.3176 127.24 42.1837 127.257 41.2965C127.307 38.8441 127.303 36.3917 127.257 33.9394C127.24 33.0898 127.567 32.8596 128.354 32.8931C129.607 32.9433 130.86 32.9057 132.116 32.9057C132.112 32.9475 132.112 32.9894 132.112 33.0312Z" fill="#EEE1DC"/>
<path d="M88.075 106.189C88.184 106.08 88.2929 105.971 88.4018 105.866C88.2929 105.975 88.184 106.08 88.075 106.189Z" fill="#FEFEFE"/>
<path d="M37.9258 33.5168C38.6882 35.0904 39.2412 36.2371 39.7816 37.3545C39.6099 37.48 39.5722 37.5302 39.5345 37.5344C38.4201 37.5679 36.6062 38.0617 36.3632 37.3419C35.9988 36.2622 37.2639 35.0904 37.9258 33.5168Z" fill="#87AEFD"/>
</svg>
