<svg width="75" height="75" viewBox="0 0 75 75" fill="none" xmlns="http://www.w3.org/2000/svg">
<path d="M47.72 74.14H26.43C11.89 74.14 0 62.25 0 47.71V26.43C0 11.89 11.89 0 26.43 0H47.71C62.25 0 74.14 11.89 74.14 26.43V47.71C74.15 62.25 62.25 74.14 47.72 74.14Z" fill="url(#paint0_linear_4_4576)"/>
<path d="M25.01 46.2996C24.68 46.6096 24.37 46.9096 24.06 47.1996C23.62 47.5996 23.14 47.9396 22.58 48.1396C21.22 48.6296 20 47.9996 19.61 46.6096C19.44 45.9896 19.46 45.3696 19.56 44.7496C19.67 44.0996 19.77 43.4396 19.93 42.7996C20.1 42.1396 20.33 41.4996 20.55 40.8596C20.83 40.0296 21.13 39.2096 21.43 38.3896C21.62 37.8696 21.62 37.3396 21.59 36.8096C21.56 36.2596 21.83 35.9396 22.37 35.9696C22.81 35.9896 23.25 36.0496 23.59 36.3996C23.98 36.8096 24.11 37.2996 23.97 37.8296C23.7 38.8396 23.39 39.8296 23.11 40.8296C22.88 41.6496 22.66 42.4696 22.47 43.2996C22.4 43.5896 22.41 43.8996 22.44 44.1896C22.5 44.7696 22.97 45.0596 23.5 44.8196C23.81 44.6796 24.1 44.4596 24.33 44.2096C25.09 43.4396 25.52 42.4796 25.88 41.4796C26.01 41.1296 26.14 40.7796 26.26 40.4296C26.54 39.6396 26.83 38.8496 27.1 38.0496C27.33 37.3696 27.53 36.6896 27.75 36.0096C28.12 34.9196 29.28 33.9896 30.45 34.0496C31.06 34.0796 31.2 34.3396 31.09 34.8496C30.89 35.7996 30.63 36.7496 30.37 37.6896C29.2 41.8696 28.02 46.0496 26.85 50.2196C26.82 50.3096 26.8 50.3996 26.79 50.4896C30.88 49.8296 34.95 49.1596 39.07 48.4896C39.23 47.6196 39.41 46.7196 39.59 45.7296C39.43 45.8296 39.33 45.8896 39.23 45.9496C38.8 46.2096 38.35 46.4396 37.85 46.5296C36.96 46.6896 36.3 46.2896 36.03 45.4096C35.99 45.2896 35.96 45.1696 35.92 45.0096C35.75 45.2996 35.62 45.5696 35.46 45.8196C35 46.5296 34.42 47.0696 33.57 47.2596C32.32 47.5396 31.09 46.8796 30.65 45.6796C30.41 45.0096 30.3 44.3096 30.28 43.5996C30.21 41.6096 30.72 39.7296 31.46 37.8996C31.81 37.0296 32.24 36.2096 32.81 35.4596C33.24 34.8996 33.72 34.3796 34.3 33.9696C35.24 33.2996 36.61 33.1896 37.7 34.1996C37.77 33.9996 37.84 33.8096 37.89 33.6196C38.04 33.1196 38.45 32.9796 38.96 33.0496C39.16 33.0796 39.36 33.1296 39.55 33.1996C39.93 33.3296 40.14 33.6196 40.14 34.0196C40.14 34.2796 40.1 34.5496 40.04 34.7996C39.61 36.7796 39.16 38.7596 38.76 40.7396C38.63 41.3696 38.61 42.0196 38.55 42.6696C38.54 42.7996 38.56 42.9396 38.59 43.0596C38.67 43.3796 38.81 43.4596 39.11 43.3296C39.33 43.2396 39.54 43.1196 39.74 42.9896C40.06 42.7796 40.22 42.4896 40.29 42.1096C40.83 39.2196 41.4 36.3396 41.95 33.4496C41.96 33.4096 41.97 33.3796 41.98 33.3496C42.15 32.5496 42.45 32.5496 43.12 32.6396C43.36 32.6696 43.6 32.7496 43.84 32.8296C44.14 32.9296 44.21 33.0696 44.18 33.3896C44.16 33.5796 44.13 33.7696 44.18 33.9796C44.35 33.7796 44.51 33.5696 44.69 33.3696C44.91 33.1196 45.1 32.8396 45.36 32.6296C46.07 32.0796 46.88 31.9396 47.75 32.1496C48.35 32.2896 48.71 32.7096 48.95 33.2596C49.32 34.1096 49.43 35.0196 49.45 35.9296C49.49 37.6296 49.12 39.2596 48.63 40.8596C48.35 41.7796 48.01 42.6796 47.5 43.4996C47.22 43.9496 46.92 44.3896 46.57 44.7696C45.1 46.3696 43.2 45.8196 42.17 44.8696C42.09 44.7996 42.02 44.7196 41.88 44.5696C41.7 45.8096 41.52 46.9696 41.34 48.1896C41.69 48.1496 41.98 48.1196 42.27 48.0796C44.6 47.7896 46.94 47.4996 49.27 47.2196C50.33 47.0896 51.39 46.9896 52.46 46.9096C53.02 46.8696 53.59 46.8996 54.15 46.9396C55.06 47.0196 55.46 47.8796 55.26 48.6396C55.17 48.9796 54.94 49.2396 54.57 49.3096C53.92 49.4396 53.28 49.5796 52.63 49.6696C49.74 50.0396 46.84 50.3896 43.95 50.7496C43.02 50.8696 42.1 50.9996 41.17 51.1196C40.97 51.1396 40.89 51.2096 40.84 51.4096C40.75 51.7696 40.63 52.1196 40.5 52.4696C40.37 52.8196 40.12 53.0796 39.79 53.2596C39.23 53.5696 38.6 53.2796 38.5 52.6496C38.45 52.2896 38.49 51.9096 38.49 51.4996C37.95 51.5796 37.43 51.6296 36.92 51.7296C33.46 52.3396 30.01 52.9896 26.59 53.7996C26.3 53.8696 25.94 53.8796 25.74 54.0596C25.54 54.2396 25.5 54.5896 25.41 54.8796C24.88 56.4896 24.3 58.0696 23.52 59.5796C22.68 61.1996 21.68 62.6996 20.35 63.9596C19.54 64.7296 18.61 65.3096 17.48 65.4996C15.48 65.8396 13.79 64.4996 13.65 62.4796C13.58 61.5096 13.84 60.5996 14.15 59.6996C14.54 58.5496 15.13 57.5096 15.86 56.5496C16.25 56.0396 16.66 55.5396 17.14 55.1196C18.82 53.6596 20.63 52.3696 22.76 51.6196C22.88 51.5796 23.02 51.5496 23.12 51.4696C23.25 51.3796 23.4 51.2596 23.44 51.1196C23.97 49.5396 24.49 47.9596 25 46.3696C25.02 46.3696 25.01 46.3296 25.01 46.2996ZM22.25 55.0296C22.15 55.0696 22.04 55.0896 21.95 55.1396C20.39 55.8896 19.05 56.9196 17.99 58.2896C17.32 59.1396 16.73 60.0496 16.43 61.0996C16.34 61.4196 16.3 61.7596 16.31 62.0896C16.33 62.6096 16.78 62.8996 17.28 62.7396C17.48 62.6696 17.67 62.5596 17.85 62.4396C18.4 62.0696 18.84 61.5696 19.25 61.0496C20.18 59.8496 20.9 58.5196 21.51 57.1396C21.81 56.4596 22.04 55.7596 22.3 55.0696C22.31 55.0596 22.33 55.0396 22.34 55.0296C22.3 55.0196 22.28 55.0296 22.25 55.0296ZM46.99 36.5996C46.95 36.3496 46.91 35.9296 46.79 35.5296C46.58 34.8196 46.09 34.6596 45.5 35.1096C45.17 35.3696 44.85 35.6896 44.64 36.0596C44.32 36.6296 44.05 37.2396 43.84 37.8596C43.3 39.4396 42.96 41.0696 42.62 42.6996C42.58 42.9096 42.62 43.0596 42.81 43.1496C42.97 43.2296 43.14 43.3096 43.31 43.3296C43.99 43.4096 44.58 43.1696 45.01 42.6596C45.31 42.3096 45.58 41.9096 45.76 41.4896C46.05 40.8396 46.28 40.1496 46.5 39.4696C46.79 38.5796 46.93 37.6796 46.99 36.5996ZM37.27 36.7996C37.29 36.0796 36.9 35.7696 36.34 35.9096C36.19 35.9496 36.05 36.0096 35.9 36.0696C35.08 36.4396 34.49 37.0496 34.04 37.8196C33.39 38.9296 33.01 40.1396 32.88 41.4196C32.82 42.0296 32.85 42.6396 33.09 43.2296C33.14 43.3596 33.2 43.4996 33.29 43.6096C33.69 44.1796 34.31 44.2296 34.79 43.7296C35.22 43.2796 35.49 42.7196 35.68 42.1396C36.14 40.7696 36.56 39.3796 36.99 37.9996C37.12 37.5596 37.19 37.1096 37.27 36.7996Z" fill="#FDFDFE"/>
<path d="M39.52 8.56982C43.53 8.80982 46.69 10.6598 48.43 14.5598C50.17 18.4698 48.99 23.0798 45.69 25.8098C43.59 27.5398 41.18 28.2998 38.48 28.1598C37.66 28.1198 36.86 27.9798 36.09 27.6998C35.71 27.5598 35.39 27.5998 35.07 27.8098C34.59 28.1298 34.11 28.4498 33.63 28.7698C33.33 28.9698 33.03 29.1698 32.73 29.3598C32.63 29.4198 32.52 29.4798 32.41 29.5298C31.91 29.7498 31.67 29.6198 31.65 29.0798C31.64 28.7598 31.66 28.4298 31.7 28.1098C31.78 27.4598 31.88 26.7998 31.98 26.1498C32.07 25.5998 31.94 25.1498 31.56 24.6998C29.89 22.7598 29.14 20.4798 29.26 17.9198C29.35 15.9698 30.04 14.2198 31.17 12.6498C31.5 12.1898 31.91 11.7698 32.32 11.3798C33.95 9.80982 35.93 8.94982 38.16 8.66982C38.54 8.60982 38.94 8.59982 39.52 8.56982ZM37.2 23.2798C37.59 23.1898 38.11 23.1298 38.59 22.9598C39.59 22.5898 40.13 21.5798 39.94 20.5598C39.83 19.9898 39.52 19.5498 39.05 19.2198C38.4 18.7698 37.67 18.5098 36.94 18.2198C36.56 18.0698 36.18 17.9098 35.86 17.6698C35.2 17.1698 35.32 16.3298 36.08 15.9998C36.71 15.7198 37.33 15.8198 37.9 16.1598C38.26 16.3798 38.48 16.6898 38.49 17.1298C38.49 17.2198 38.51 17.3198 38.53 17.4098C38.62 17.7398 38.89 17.9298 39.19 17.8998C39.51 17.8698 39.77 17.6198 39.77 17.2698C39.79 16.3998 39.48 15.6798 38.7 15.2498C37.64 14.6598 36.53 14.5898 35.41 15.0598C34.75 15.3398 34.31 15.8298 34.22 16.5698C34.12 17.3698 34.35 18.0498 35.05 18.5098C35.43 18.7598 35.84 18.9498 36.25 19.1498C36.66 19.3498 37.1 19.4898 37.5 19.6898C37.77 19.8198 38.03 19.9798 38.24 20.1898C38.58 20.5198 38.69 20.9598 38.55 21.4198C38.41 21.8698 38.02 21.9698 37.62 22.0398C37.44 22.0698 37.26 22.0698 37.08 22.0698C35.93 22.0598 35.36 21.5498 35.23 20.4098C35.18 19.9998 34.92 19.7598 34.54 19.7898C34.18 19.8098 33.92 20.1098 33.95 20.5198C34.04 21.6998 34.69 22.7798 36.06 23.1198C36.41 23.1998 36.75 23.2198 37.2 23.2798ZM45.59 15.3998C45.58 15.0698 45.46 14.8898 45.24 14.7798C45.02 14.6798 44.74 14.7198 44.57 14.8998C44.48 14.9898 44.41 15.1098 44.35 15.2298C43.11 17.4898 41.87 19.7498 40.64 22.0198C40.58 22.1298 40.52 22.2298 40.48 22.3398C40.39 22.5998 40.49 22.8798 40.72 23.0298C40.95 23.1798 41.25 23.1598 41.45 22.9698C41.53 22.8898 41.6 22.7798 41.66 22.6798C42.93 20.3698 44.2 18.0498 45.46 15.7398C45.52 15.6098 45.56 15.4698 45.59 15.3998Z" fill="#57C2B6"/>
<path d="M49.63 41.1899C49.68 40.3999 49.64 39.7499 49.76 39.1299C49.93 38.2799 50.18 37.4399 50.47 36.6299C50.97 35.2399 51.64 33.9099 52.59 32.7699C53.05 32.2099 53.61 31.7099 54.2 31.2899C54.84 30.8399 55.61 30.7699 56.38 30.8699C56.85 30.9299 57.29 31.0499 57.66 31.3499C58.12 31.7199 58.37 32.1899 58.46 32.7699C58.56 33.4199 58.45 34.0299 58.24 34.6399C57.41 37.0799 55.74 38.6199 53.23 39.2299C53.19 39.2399 53.16 39.2599 53.13 39.2599C52.65 39.1899 52.53 39.5199 52.43 39.8799C52.27 40.4199 52.2 40.9599 52.33 41.5099C52.48 42.1099 52.95 42.4299 53.57 42.3399C54.27 42.2299 54.86 41.8799 55.38 41.4399C55.81 41.0799 56.21 40.6799 56.59 40.2599C57.15 39.6399 57.47 39.6799 57.81 40.4499C57.83 40.4999 57.86 40.5599 57.88 40.6199C58.23 41.3499 58.12 41.9399 57.51 42.5299C56.54 43.4699 55.55 44.3699 54.28 44.8699C53.82 45.0499 53.32 45.2099 52.83 45.2599C51.47 45.3899 50.41 44.6699 49.95 43.3699C49.86 43.1199 49.78 42.8699 49.75 42.6099C49.69 42.0599 49.66 41.5499 49.63 41.1899ZM53.12 36.8799C53.14 36.9099 53.17 36.9399 53.19 36.9699C53.51 36.8499 53.85 36.7599 54.15 36.5999C55.03 36.1499 55.75 35.5399 56.1 34.5799C56.21 34.2799 56.28 33.9799 56.18 33.6599C56.09 33.3399 55.84 33.1599 55.52 33.2599C55.29 33.3299 55.04 33.4499 54.88 33.6199C53.99 34.5499 53.49 35.6799 53.12 36.8799Z" fill="#FDFDFE"/>
<defs>
<linearGradient id="paint0_linear_4_4576" x1="7.7654" y1="66.3804" x2="66.3832" y2="7.76251" gradientUnits="userSpaceOnUse">
<stop stop-color="#6C2980"/>
<stop offset="1" stop-color="#953D97"/>
</linearGradient>
</defs>
</svg>
